# Blender 4.5.3 LTS
# www.blender.org
mtllib ARCO.mtl
g Cylinder.003_Mesh
v -2.643416 2.604725 -0.202945
v -2.643416 0.003299 -0.202945
v -2.596076 2.604725 -0.199045
v -2.596076 0.003299 -0.199045
v -2.550555 2.604725 -0.187497
v -2.550555 0.003299 -0.187497
v -2.508603 2.604725 -0.168743
v -2.508603 0.003299 -0.168743
v -2.471831 2.604725 -0.143504
v -2.471831 0.003299 -0.143504
v -2.441654 2.604725 -0.112750
v -2.441654 0.003299 -0.112750
v -2.419230 2.604725 -0.077664
v -2.419230 0.003299 -0.077664
v -2.405421 2.604725 -0.039593
v -2.405421 0.003299 -0.039593
v -2.400759 2.604725 0.000000
v -2.400759 0.003299 0.000000
v -2.405421 2.604725 0.039593
v -2.405421 0.003299 0.039593
v -2.419230 2.604725 0.077664
v -2.419230 0.003299 0.077664
v -2.441654 2.604725 0.112750
v -2.441654 0.003299 0.112750
v -2.471831 2.604725 0.143504
v -2.471831 0.003299 0.143504
v -2.508603 2.604725 0.168743
v -2.508603 0.003299 0.168743
v -2.550555 2.604725 0.187497
v -2.550555 0.003299 0.187497
v -2.596076 2.604725 0.199045
v -2.596076 0.003299 0.199045
v -2.643416 2.604725 0.202945
v -2.643416 0.003299 0.202945
v -2.690756 2.604725 0.199045
v -2.690756 0.003299 0.199045
v -2.736277 2.604725 0.187497
v -2.736277 0.003299 0.187497
v -2.778229 2.604725 0.168743
v -2.778229 0.003299 0.168743
v -2.815001 2.604725 0.143504
v -2.815001 0.003299 0.143504
v -2.845178 2.604725 0.112750
v -2.845178 0.003299 0.112750
v -2.867602 2.604725 0.077664
v -2.867602 0.003299 0.077664
v -2.881411 2.604725 0.039593
v -2.881411 0.003299 0.039593
v -2.886073 2.604725 0.000000
v -2.886073 0.003299 0.000000
v -2.881411 2.604725 -0.039593
v -2.881411 0.003299 -0.039593
v -2.867602 2.604725 -0.077664
v -2.867602 0.003299 -0.077664
v -2.845178 2.604725 -0.112750
v -2.845178 0.003299 -0.112750
v -2.815001 2.604725 -0.143504
v -2.815001 0.003299 -0.143504
v -2.778229 2.604725 -0.168743
v -2.778229 0.003299 -0.168743
v -2.736277 2.604725 -0.187497
v -2.736277 0.003299 -0.187497
v -2.690756 2.604725 -0.199045
v -2.690756 0.003299 -0.199045
v 2.233482 5.097795 -0.296677
v 2.233482 0.006457 -0.296677
v 2.280822 5.097795 -0.292777
v 2.280822 0.006457 -0.292777
v 2.326343 5.097795 -0.281229
v 2.326343 0.006457 -0.281229
v 2.368295 5.097795 -0.262475
v 2.368295 0.006457 -0.262475
v 2.405067 5.097795 -0.237236
v 2.405067 0.006457 -0.237236
v 2.435244 5.097795 -0.206482
v 2.435244 0.006457 -0.206482
v 2.457668 5.097795 -0.171396
v 2.457668 0.006457 -0.171396
v 2.471477 5.097795 -0.133325
v 2.471477 0.006457 -0.133325
v 2.476140 5.097795 -0.093732
v 2.476140 0.006457 -0.093732
v 2.471477 5.097795 -0.054139
v 2.471477 0.006457 -0.054139
v 2.457668 5.097795 -0.016068
v 2.457668 0.006457 -0.016068
v 2.435244 5.097795 0.019018
v 2.435244 0.006457 0.019018
v 2.405067 5.097795 0.049772
v 2.405067 0.006457 0.049772
v 2.368295 5.097795 0.075011
v 2.368295 0.006457 0.075011
v 2.326343 5.097795 0.093765
v 2.326343 0.006457 0.093765
v 2.280822 5.097795 0.105313
v 2.280822 0.006457 0.105313
v 2.233482 5.097795 0.109213
v 2.233482 0.006457 0.109213
v 2.186142 5.097795 0.105313
v 2.186142 0.006457 0.105313
v 2.140621 5.097795 0.093765
v 2.140621 0.006457 0.093765
v 2.098669 5.097795 0.075011
v 2.098669 0.006457 0.075011
v 2.061898 5.097795 0.049772
v 2.061898 0.006457 0.049772
v 2.031720 5.097795 0.019018
v 2.031720 0.006457 0.019018
v 2.009296 5.097795 -0.016068
v 2.009296 0.006457 -0.016068
v 1.995488 5.097795 -0.054139
v 1.995488 0.006457 -0.054139
v 1.990825 5.097795 -0.093732
v 1.990825 0.006457 -0.093732
v 1.995488 5.097795 -0.133325
v 1.995488 0.006457 -0.133325
v 2.009296 5.097795 -0.171396
v 2.009296 0.006457 -0.171396
v 2.031720 5.097795 -0.206482
v 2.031720 0.006457 -0.206482
v 2.061898 5.097795 -0.237236
v 2.061898 0.006457 -0.237236
v 2.098669 5.097795 -0.262475
v 2.098669 0.006457 -0.262475
v 2.140621 5.097795 -0.281229
v 2.140621 0.006457 -0.281229
v 2.186142 5.097795 -0.292777
v 2.186142 0.006457 -0.292777
v -2.549242 5.097795 -0.296677
v -2.549242 0.006457 -0.296677
v -2.501902 5.097795 -0.292777
v -2.501902 0.006457 -0.292777
v -2.456381 5.097795 -0.281229
v -2.456381 0.006457 -0.281229
v -2.414429 5.097795 -0.262475
v -2.414429 0.006457 -0.262475
v -2.377658 5.097795 -0.237236
v -2.377658 0.006457 -0.237236
v -2.347480 5.097795 -0.206482
v -2.347480 0.006457 -0.206482
v -2.325056 5.097795 -0.171396
v -2.325056 0.006457 -0.171396
v -2.311248 5.097795 -0.133325
v -2.311248 0.006457 -0.133325
v -2.306585 5.097795 -0.093732
v -2.306585 0.006457 -0.093732
v -2.311248 5.097795 -0.054139
v -2.311248 0.006457 -0.054139
v -2.325056 5.097795 -0.016068
v -2.325056 0.006457 -0.016068
v -2.347480 5.097795 0.019018
v -2.347480 0.006457 0.019018
v -2.377658 5.097795 0.049772
v -2.377658 0.006457 0.049772
v -2.414429 5.097795 0.075011
v -2.414429 0.006457 0.075011
v -2.456381 5.097795 0.093765
v -2.456381 0.006457 0.093765
v -2.501902 5.097795 0.105313
v -2.501902 0.006457 0.105313
v -2.549242 5.097795 0.109213
v -2.549242 0.006457 0.109213
v -2.596583 5.097795 0.105313
v -2.596583 0.006457 0.105313
v -2.642103 5.097795 0.093765
v -2.642103 0.006457 0.093765
v -2.684056 5.097795 0.075011
v -2.684056 0.006457 0.075011
v -2.720827 5.097795 0.049772
v -2.720827 0.006457 0.049772
v -2.751005 5.097795 0.019018
v -2.751005 0.006457 0.019018
v -2.773429 5.097795 -0.016068
v -2.773429 0.006457 -0.016068
v -2.787237 5.097795 -0.054139
v -2.787237 0.006457 -0.054139
v -2.791900 5.097795 -0.093732
v -2.791900 0.006457 -0.093732
v -2.787237 5.097795 -0.133325
v -2.787237 0.006457 -0.133325
v -2.773429 5.097795 -0.171396
v -2.773429 0.006457 -0.171396
v -2.751005 5.097795 -0.206482
v -2.751005 0.006457 -0.206482
v -2.720827 5.097795 -0.237236
v -2.720827 0.006457 -0.237236
v -2.684056 5.097795 -0.262475
v -2.684056 0.006457 -0.262475
v -2.642103 5.097795 -0.281229
v -2.642103 0.006457 -0.281229
v -2.596583 5.097795 -0.292777
v -2.596583 0.006457 -0.292777
v -0.157880 6.564838 -0.093732
v -0.157880 6.593869 -0.190604
v -0.157880 6.675064 -0.264359
v -0.157880 6.790534 -0.295316
v -0.157880 6.911410 -0.272332
v -0.157880 7.003402 -0.198570
v -0.157880 7.037824 -0.093732
v -0.157880 7.003402 0.011106
v -0.157880 6.911411 0.084868
v -0.157880 6.790534 0.107852
v -0.157880 6.675064 0.076894
v -0.157880 6.593869 0.003140
v 0.116792 6.549939 -0.093732
v 0.121371 6.578722 -0.190604
v 0.134178 6.659222 -0.264359
v 0.152390 6.773705 -0.295316
v 0.171454 6.893546 -0.272332
v 0.185963 6.984751 -0.198570
v 0.191392 7.018879 -0.093732
v 0.185963 6.984751 0.011106
v 0.171454 6.893547 0.084868
v 0.152390 6.773705 0.107852
v 0.134178 6.659222 0.076894
v 0.121371 6.578722 0.003140
v 0.386765 6.505497 -0.093732
v 0.395844 6.533539 -0.190604
v 0.421238 6.611968 -0.264359
v 0.457350 6.723503 -0.295316
v 0.495153 6.840261 -0.272332
v 0.523923 6.929118 -0.198570
v 0.534689 6.962367 -0.093732
v 0.523923 6.929118 0.011106
v 0.495153 6.840261 0.084868
v 0.457350 6.723503 0.107852
v 0.421238 6.611968 0.076894
v 0.395845 6.533539 0.003140
v 0.647419 6.432273 -0.093732
v 0.660843 6.459095 -0.190604
v 0.698389 6.534109 -0.264359
v 0.751784 6.640790 -0.295316
v 0.807679 6.752464 -0.272332
v 0.850218 6.837454 -0.198570
v 0.866135 6.869256 -0.093732
v 0.850218 6.837454 0.011106
v 0.807679 6.752464 0.084868
v 0.751784 6.640790 0.107852
v 0.698389 6.534109 0.076894
v 0.660843 6.459095 0.003140
v 0.894295 6.331519 -0.093732
v 0.911834 6.356661 -0.190604
v 0.960890 6.426978 -0.264359
v 1.030654 6.526978 -0.295316
v 1.103684 6.631660 -0.272332
v 1.159263 6.711327 -0.198570
v 1.180060 6.741138 -0.093732
v 1.159263 6.711327 0.011106
v 1.103684 6.631660 0.084868
v 1.030654 6.526978 0.107852
v 0.960890 6.426978 0.076894
v 0.911834 6.356661 0.003140
v 1.123165 6.204961 -0.093732
v 1.144521 6.227993 -0.190604
v 1.204247 6.292409 -0.264359
v 1.289187 6.384018 -0.295316
v 1.378103 6.479915 -0.272332
v 1.445772 6.552897 -0.198570
v 1.471092 6.580206 -0.093732
v 1.445772 6.552897 0.011106
v 1.378103 6.479915 0.084868
v 1.289187 6.384018 0.107852
v 1.204247 6.292409 0.076894
v 1.144521 6.227993 0.003140
v 1.330119 6.054761 -0.093732
v 1.354924 6.075289 -0.190604
v 1.424299 6.132702 -0.264358
v 1.522961 6.214353 -0.295316
v 1.626241 6.299825 -0.272332
v 1.704841 6.364872 -0.198570
v 1.734253 6.389213 -0.093732
v 1.704842 6.364872 0.011106
v 1.626241 6.299825 0.084868
v 1.522961 6.214353 0.107852
v 1.424299 6.132702 0.076894
v 1.354924 6.075289 0.003140
v 1.511611 5.883492 -0.093732
v 1.539442 5.901165 -0.190604
v 1.617279 5.950593 -0.264358
v 1.727974 6.020887 -0.295316
v 1.843852 6.094472 -0.272332
v 1.932039 6.150473 -0.198570
v 1.965038 6.171428 -0.093732
v 1.932039 6.150473 0.011106
v 1.843852 6.094472 0.084868
v 1.727974 6.020887 0.107852
v 1.617279 5.950593 0.076894
v 1.539442 5.901165 0.003140
v 1.664539 5.694082 -0.093732
v 1.694919 5.708598 -0.190604
v 1.779886 5.749195 -0.264358
v 1.900721 5.806930 -0.295316
v 2.027213 5.867368 -0.272332
v 2.123479 5.913364 -0.198570
v 2.159500 5.930576 -0.093732
v 2.123478 5.913364 0.011106
v 2.027213 5.867369 0.084868
v 1.900721 5.806930 0.107852
v 1.779886 5.749195 0.076894
v 1.694919 5.708598 0.003140
v 1.786284 5.489775 -0.093732
v 1.818693 5.500885 -0.190604
v 1.909337 5.531957 -0.264359
v 2.038244 5.576145 -0.295316
v 2.173186 5.622403 -0.272332
v 2.275883 5.657606 -0.198570
v 2.314311 5.670779 -0.093732
v 2.275883 5.657606 0.011106
v 2.173187 5.622403 0.084868
v 2.038244 5.576145 0.107852
v 1.909337 5.531957 0.076894
v 1.818693 5.500885 0.003140
v 1.874764 5.274063 -0.093732
v 1.908648 5.281577 -0.190604
v 2.003417 5.302592 -0.264358
v 2.138191 5.332478 -0.295316
v 2.279274 5.363762 -0.272332
v 2.386645 5.387572 -0.198570
v 2.426821 5.396482 -0.093732
v 2.386645 5.387572 0.011106
v 2.279274 5.363762 0.084868
v 2.138191 5.332478 0.107852
v 2.003418 5.302592 0.076894
v 1.908648 5.281577 0.003140
v 1.928465 5.050640 -0.093732
v 1.963245 5.054429 -0.190604
v 2.060517 5.065027 -0.264358
v 2.198851 5.080099 -0.295316
v 2.343662 5.095876 -0.272332
v 2.453869 5.107883 -0.198570
v 2.495107 5.112377 -0.093732
v 2.453869 5.107883 0.011106
v 2.343662 5.095876 0.084868
v 2.198851 5.080099 0.107852
v 2.060517 5.065027 0.076894
v 1.963245 5.054429 0.003140
v 1.946468 4.823328 -0.093732
v 1.981548 4.823328 -0.190604
v 2.079660 4.823328 -0.264358
v 2.219188 4.823328 -0.295316
v 2.365248 4.823328 -0.272332
v 2.476405 4.823327 -0.198570
v 2.518000 4.823327 -0.093732
v 2.476405 4.823328 0.011106
v 2.365248 4.823328 0.084868
v 2.219188 4.823328 0.107852
v 2.079660 4.823328 0.076894
v 1.981548 4.823328 0.003140
v -2.262228 4.823328 -0.093732
v -2.297308 4.823328 -0.190604
v -2.395419 4.823328 -0.264358
v -2.534948 4.823328 -0.295316
v -2.681008 4.823327 -0.272332
v -2.792166 4.823327 -0.198570
v -2.833760 4.823327 -0.093732
v -2.792166 4.823327 0.011106
v -2.681008 4.823327 0.084868
v -2.534948 4.823328 0.107852
v -2.395420 4.823328 0.076894
v -2.297308 4.823328 0.003140
v -2.244225 5.050640 -0.093732
v -2.279005 5.054429 -0.190604
v -2.376277 5.065027 -0.264358
v -2.514612 5.080099 -0.295316
v -2.659422 5.095876 -0.272332
v -2.769629 5.107883 -0.198570
v -2.810867 5.112377 -0.093732
v -2.769629 5.107883 0.011106
v -2.659422 5.095876 0.084868
v -2.514612 5.080099 0.107852
v -2.376277 5.065027 0.076894
v -2.279005 5.054429 0.003140
v -2.190525 5.274062 -0.093732
v -2.224409 5.281576 -0.190604
v -2.319177 5.302590 -0.264358
v -2.453951 5.332477 -0.295316
v -2.595035 5.363762 -0.272332
v -2.702405 5.387571 -0.198570
v -2.742581 5.396480 -0.093732
v -2.702405 5.387571 0.011106
v -2.595035 5.363762 0.084868
v -2.453951 5.332477 0.107852
v -2.319177 5.302590 0.076894
v -2.224409 5.281576 0.003140
v -2.102044 5.489775 -0.093732
v -2.134453 5.500885 -0.190604
v -2.225096 5.531957 -0.264358
v -2.354004 5.576145 -0.295316
v -2.488946 5.622403 -0.272332
v -2.591643 5.657606 -0.198570
v -2.630070 5.670778 -0.093732
v -2.591643 5.657606 0.011106
v -2.488946 5.622403 0.084868
v -2.354004 5.576145 0.107852
v -2.225096 5.531957 0.076894
v -2.134453 5.500885 0.003140
v -1.980299 5.694082 -0.093732
v -2.010679 5.708598 -0.190604
v -2.095646 5.749195 -0.264358
v -2.216481 5.806931 -0.295316
v -2.342973 5.867368 -0.272332
v -2.439238 5.913364 -0.198570
v -2.475260 5.930576 -0.093732
v -2.439238 5.913364 0.011106
v -2.342973 5.867368 0.084868
v -2.216481 5.806930 0.107852
v -2.095646 5.749195 0.076894
v -2.010679 5.708598 0.003140
v -1.827372 5.883491 -0.093732
v -1.855202 5.901164 -0.190604
v -1.933040 5.950593 -0.264359
v -2.043735 6.020886 -0.295316
v -2.159612 6.094471 -0.272332
v -2.247800 6.150472 -0.198570
v -2.280798 6.171427 -0.093732
v -2.247800 6.150472 0.011106
v -2.159612 6.094471 0.084868
v -2.043735 6.020886 0.107852
v -1.933040 5.950593 0.076894
v -1.855202 5.901164 0.003140
v -1.645880 6.054760 -0.093732
v -1.670685 6.075289 -0.190604
v -1.740060 6.132702 -0.264358
v -1.838721 6.214352 -0.295316
v -1.942002 6.299824 -0.272332
v -2.020602 6.364872 -0.198570
v -2.050014 6.389212 -0.093732
v -2.020602 6.364872 0.011106
v -1.942002 6.299824 0.084868
v -1.838721 6.214352 0.107852
v -1.740060 6.132702 0.076894
v -1.670685 6.075289 0.003140
v -1.438926 6.204960 -0.093732
v -1.460281 6.227993 -0.190604
v -1.520007 6.292409 -0.264358
v -1.604947 6.384018 -0.295316
v -1.693863 6.479915 -0.272332
v -1.761531 6.552897 -0.198570
v -1.786852 6.580206 -0.093732
v -1.761531 6.552897 0.011106
v -1.693862 6.479915 0.084868
v -1.604947 6.384018 0.107852
v -1.520007 6.292409 0.076894
v -1.460281 6.227993 0.003140
v -1.210054 6.331519 -0.093732
v -1.227594 6.356661 -0.190604
v -1.276650 6.426978 -0.264359
v -1.346414 6.526978 -0.295316
v -1.419444 6.631660 -0.272332
v -1.475023 6.711327 -0.198570
v -1.495820 6.741138 -0.093732
v -1.475023 6.711327 0.011106
v -1.419444 6.631660 0.084868
v -1.346414 6.526978 0.107852
v -1.276650 6.426978 0.076894
v -1.227594 6.356661 0.003140
v -0.963180 6.432273 -0.093732
v -0.976604 6.459094 -0.190604
v -1.014150 6.534109 -0.264358
v -1.067545 6.640789 -0.295316
v -1.123440 6.752464 -0.272332
v -1.165978 6.837453 -0.198570
v -1.181896 6.869255 -0.093732
v -1.165978 6.837453 0.011106
v -1.123440 6.752464 0.084868
v -1.067545 6.640789 0.107852
v -1.014150 6.534109 0.076894
v -0.976605 6.459094 0.003140
v -0.702525 6.505497 -0.093732
v -0.711604 6.533539 -0.190604
v -0.736997 6.611968 -0.264359
v -0.773110 6.723503 -0.295316
v -0.810913 6.840261 -0.272332
v -0.839683 6.929118 -0.198570
v -0.850448 6.962367 -0.093732
v -0.839683 6.929118 0.011106
v -0.810913 6.840261 0.084868
v -0.773110 6.723503 0.107852
v -0.736997 6.611968 0.076894
v -0.711604 6.533539 0.003140
v -0.432553 6.549939 -0.093732
v -0.437131 6.578722 -0.190604
v -0.449937 6.659222 -0.264359
v -0.468149 6.773705 -0.295316
v -0.487214 6.893546 -0.272332
v -0.501723 6.984751 -0.198570
v -0.507152 7.018879 -0.093732
v -0.501723 6.984751 0.011106
v -0.487214 6.893547 0.084868
v -0.468149 6.773705 0.107852
v -0.449937 6.659222 0.076894
v -0.437131 6.578722 0.003140
v 2.102635 4.628207 -0.145105
v 2.102635 5.529992 -0.145105
v 2.102635 4.628207 -0.042359
v 2.102635 5.529992 -0.042359
v -2.528131 4.628207 -0.145105
v -2.528131 5.529992 -0.145105
v -2.528131 4.628207 -0.042359
v -2.528131 5.529992 -0.042359
v -2.313077 1.691442 -0.202945
v -2.313077 0.002142 -0.202945
v -2.265737 1.691442 -0.199045
v -2.070419 0.002142 0.000000
v -2.075082 0.002142 0.039593
v -2.088891 0.002142 0.077664
v -2.111315 0.002142 0.112750
v -2.141492 0.002142 0.143504
v -2.178263 0.002142 0.168743
v -2.220216 0.002142 0.187497
v -2.265737 0.002142 0.199045
v -2.313077 0.002142 0.202945
v -2.360417 0.002142 0.199045
v -2.405938 1.691442 0.187497
v -2.405938 0.002142 0.187497
v -2.447890 1.691442 0.168743
v -2.447890 0.002142 0.168743
v -2.484661 1.691442 0.143504
v -2.484661 0.002142 0.143504
v -2.514839 1.691442 0.112750
v -2.514839 0.002142 0.112750
v -2.537263 1.691442 0.077664
v -2.537263 0.002142 0.077664
v -2.551072 1.691442 0.039593
v -2.551072 0.002142 0.039593
v -2.555734 1.691442 0.000000
v -2.555734 0.002142 0.000000
v -2.551072 1.691442 -0.039593
v -2.551072 0.002142 -0.039593
v -2.537263 1.691442 -0.077664
v -2.537263 0.002142 -0.077664
v -2.514839 1.691442 -0.112750
v -2.514839 0.002142 -0.112750
v -2.484661 1.691442 -0.143504
v -2.484661 0.002142 -0.143504
v -2.447890 1.691442 -0.168743
v -2.447890 0.002142 -0.168743
v -2.405938 1.691442 -0.187497
v -2.405938 0.002142 -0.187497
v -2.360417 1.691442 -0.199045
v -2.360417 0.002142 -0.199045
v 2.041812 1.691442 -0.015368
v 2.041812 0.002142 -0.015368
v 2.007945 1.691442 -0.043305
v 2.007945 0.002142 -0.043305
v 1.981244 1.691442 -0.076231
v 1.981244 0.002142 -0.076231
v 1.962737 1.691442 -0.112880
v 1.962737 0.002142 -0.112880
v 1.953135 1.691442 -0.151846
v 1.953135 0.002142 -0.151846
v 1.952806 1.691442 -0.191629
v 1.952806 0.002142 -0.191629
v 1.961764 1.691442 -0.230701
v 1.961764 0.002142 -0.230701
v 1.979664 1.691442 -0.267561
v 1.979664 0.002142 -0.267561
v 2.005818 1.691442 -0.300792
v 2.005818 0.002142 -0.300792
v 2.039222 1.691442 -0.329118
v 2.039222 0.002142 -0.329118
v 2.078591 1.691442 -0.351448
v 2.078591 0.002142 -0.351448
v 2.122412 1.691442 -0.366927
v 2.122412 0.002142 -0.366927
v 2.169002 1.691442 -0.374957
v 2.169002 0.002142 -0.374957
v 2.216570 1.691442 -0.375232
v 2.216570 0.002142 -0.375232
v 2.263288 1.691442 -0.367740
v 2.263288 0.002142 -0.367740
v 2.307361 1.691442 -0.352770
v 2.307361 0.002142 -0.352770
v 2.347095 1.691442 -0.330896
v 2.347095 0.002142 -0.330896
v 2.380963 1.691442 -0.302959
v 2.380963 0.002142 -0.302959
v 2.407663 1.691442 -0.270033
v 2.407663 0.002142 -0.270033
v 2.426171 1.691442 -0.233383
v 2.426171 0.002142 -0.233383
v 2.435772 1.691442 -0.194418
v 2.435772 0.002142 -0.194418
v 2.436101 1.691442 -0.154635
v 2.436101 0.002142 -0.154635
v 2.427143 1.691442 -0.115563
v 2.427143 0.002142 -0.115563
v 2.409243 1.691442 -0.078703
v 2.409243 0.002142 -0.078703
v 2.383089 1.691442 -0.045471
v 2.383089 0.002142 -0.045471
v 2.349686 1.691442 -0.017146
v 2.349686 0.002142 -0.017146
v 2.310317 1.691442 0.005185
v 2.310317 0.002142 0.005185
v 2.266495 1.691442 0.020663
v 2.266495 0.002142 0.020663
v 2.219905 1.691442 0.028694
v 2.219905 0.002142 0.028694
v 2.172337 1.691442 0.028968
v 2.172337 0.002142 0.028968
v 2.125619 1.691442 0.021476
v 2.125619 0.002142 0.021476
v 2.081547 1.691442 0.006506
v 2.081547 0.002142 0.006506
v 2.298609 2.604724 0.158421
v 2.298609 0.003299 0.158421
v 2.264742 2.604724 0.130485
v 2.264742 0.003299 0.130485
v 2.238041 2.604724 0.097559
v 2.238041 0.003299 0.097559
v 2.219534 2.604724 0.060909
v 2.219534 0.003299 0.060909
v 2.209932 2.604724 0.021944
v 2.209932 0.003299 0.021944
v 2.209603 2.604724 -0.017839
v 2.209603 0.003299 -0.017839
v 2.218561 2.604724 -0.056912
v 2.218561 0.003299 -0.056912
v 2.236461 2.604724 -0.093772
v 2.236461 0.003299 -0.093772
v 2.262615 2.604724 -0.127003
v 2.262615 0.003299 -0.127003
v 2.296019 2.604724 -0.155328
v 2.296019 0.003299 -0.155328
v 2.335388 2.604724 -0.177659
v 2.335388 0.003299 -0.177659
v 2.379209 2.604724 -0.193137
v 2.379209 0.003299 -0.193137
v 2.425799 2.604724 -0.201168
v 2.425799 0.003299 -0.201168
v 2.473367 2.604724 -0.201443
v 2.473367 0.003299 -0.201443
v 2.520085 2.604724 -0.193951
v 2.520085 0.003299 -0.193951
v 2.564158 2.604724 -0.178980
v 2.564158 0.003299 -0.178980
v 2.603892 2.604724 -0.157106
v 2.603892 0.003299 -0.157106
v 2.637760 2.604724 -0.129170
v 2.637760 0.003299 -0.129170
v 2.664460 2.604724 -0.096244
v 2.664460 0.003299 -0.096244
v 2.682967 2.604724 -0.059594
v 2.682967 0.003299 -0.059594
v 2.692569 2.604724 -0.020629
v 2.692569 0.003299 -0.020629
v 2.692898 2.604724 0.019154
v 2.692898 0.003299 0.019154
v 2.683940 2.604724 0.058227
v 2.683940 0.003299 0.058227
v 2.666040 2.604724 0.095087
v 2.666040 0.003299 0.095087
v 2.639886 2.604724 0.128318
v 2.639886 0.003299 0.128318
v 2.606483 2.604724 0.156643
v 2.606483 0.003299 0.156643
v 2.567114 2.604724 0.178974
v 2.567114 0.003299 0.178974
v 2.523292 2.604724 0.194452
v 2.523292 0.003299 0.194452
v 2.476702 2.604724 0.202483
v 2.476702 0.003299 0.202483
v 2.429134 2.604724 0.202758
v 2.429134 0.003299 0.202758
v 2.382416 2.604724 0.195266
v 2.382416 0.003299 0.195266
v 2.338343 2.604724 0.180295
v 2.338343 0.003299 0.180295
vn 0.0821 -0.0000 -0.9966
vn 0.2459 -0.0000 -0.9693
vn 0.4081 -0.0000 -0.9129
vn 0.5659 -0.0000 -0.8245
vn 0.7138 -0.0000 -0.7004
vn 0.8426 -0.0000 -0.5385
vn 0.9401 -0.0000 -0.3410
vn 0.9931 -0.0000 -0.1170
vn 0.9931 -0.0000 0.1170
vn 0.9401 -0.0000 0.3410
vn 0.8426 -0.0000 0.5385
vn 0.7138 -0.0000 0.7004
vn 0.5659 -0.0000 0.8245
vn 0.4081 -0.0000 0.9129
vn 0.2459 -0.0000 0.9693
vn 0.0821 -0.0000 0.9966
vn -0.0821 -0.0000 0.9966
vn -0.2459 -0.0000 0.9693
vn -0.4081 -0.0000 0.9129
vn -0.5659 -0.0000 0.8245
vn -0.7138 -0.0000 0.7004
vn -0.8426 -0.0000 0.5385
vn -0.9401 -0.0000 0.3410
vn -0.9931 -0.0000 0.1170
vn -0.9931 -0.0000 -0.1170
vn -0.9401 -0.0000 -0.3410
vn -0.8426 -0.0000 -0.5385
vn -0.7138 -0.0000 -0.7004
vn -0.5659 -0.0000 -0.8245
vn -0.4081 -0.0000 -0.9129
vn -0.0000 -1.0000 -0.0000
vn -0.2459 -0.0000 -0.9693
vn -0.0821 -0.0000 -0.9966
vn -0.0000 1.0000 -0.0000
vn -0.0519 -0.9566 -0.2867
vn -0.0364 -0.6719 -0.7397
vn -0.0140 -0.2589 -0.9658
vn 0.0101 0.1868 -0.9823
vn 0.0339 0.6252 -0.7797
vn 0.0515 0.9488 -0.3115
vn 0.0515 0.9488 0.3115
vn 0.0339 0.6252 0.7797
vn 0.0101 0.1868 0.9823
vn -0.0140 -0.2589 0.9658
vn -0.0364 -0.6719 0.7397
vn -0.0519 -0.9566 0.2867
vn -0.1555 -0.9449 -0.2881
vn -0.1090 -0.6620 -0.7415
vn -0.0419 -0.2546 -0.9661
vn 0.0302 0.1836 -0.9825
vn 0.1014 0.6158 -0.7814
vn 0.1543 0.9371 -0.3130
vn 0.1543 0.9371 0.3131
vn 0.1014 0.6158 0.7814
vn 0.0302 0.1836 0.9825
vn -0.0419 -0.2546 0.9661
vn -0.1090 -0.6620 0.7415
vn -0.1555 -0.9449 0.2881
vn -0.2588 -0.9211 -0.2909
vn -0.1804 -0.6422 -0.7450
vn -0.0691 -0.2460 -0.9668
vn 0.0498 0.1774 -0.9829
vn 0.1677 0.5970 -0.7845
vn 0.2566 0.9134 -0.3160
vn 0.2566 0.9134 0.3160
vn 0.1677 0.5970 0.7845
vn 0.0498 0.1774 0.9829
vn -0.0691 -0.2460 0.9668
vn -0.1804 -0.6422 0.7450
vn -0.2588 -0.9211 0.2909
vn -0.3611 -0.8847 -0.2950
vn -0.2499 -0.6124 -0.7500
vn -0.0952 -0.2332 -0.9678
vn 0.0686 0.1681 -0.9834
vn 0.2321 0.5687 -0.7891
vn 0.3579 0.8771 -0.3204
vn 0.3579 0.8771 0.3204
vn 0.2321 0.5687 0.7891
vn 0.0686 0.1681 0.9834
vn -0.0952 -0.2332 0.9678
vn -0.2499 -0.6124 0.7500
vn -0.3610 -0.8847 0.2950
vn -0.4616 -0.8347 -0.3002
vn -0.3166 -0.5725 -0.7563
vn -0.1197 -0.2165 -0.9689
vn 0.0862 0.1559 -0.9840
vn 0.2937 0.5310 -0.7948
vn 0.4575 0.8273 -0.3260
vn 0.4575 0.8273 0.3260
vn 0.2937 0.5310 0.7948
vn 0.0862 0.1559 0.9840
vn -0.1197 -0.2165 0.9689
vn -0.3166 -0.5725 0.7563
vn -0.4616 -0.8347 0.3002
vn -0.5591 -0.7704 -0.3064
vn -0.3793 -0.5226 -0.7636
vn -0.1422 -0.1960 -0.9702
vn 0.1024 0.1411 -0.9847
vn 0.3514 0.4841 -0.8014
vn 0.5539 0.7632 -0.3326
vn 0.5539 0.7632 0.3326
vn 0.3514 0.4841 0.8014
vn 0.1024 0.1411 0.9847
vn -0.1422 -0.1960 0.9702
vn -0.3793 -0.5226 0.7636
vn -0.5591 -0.7704 0.3064
vn -0.6518 -0.6907 -0.3133
vn -0.4368 -0.4629 -0.7713
vn -0.1624 -0.1721 -0.9716
vn 0.1168 0.1238 -0.9854
vn 0.4041 0.4282 -0.8083
vn 0.6455 0.6840 -0.3399
vn 0.6455 0.6840 0.3399
vn 0.4041 0.4282 0.8083
vn 0.1168 0.1238 0.9854
vn -0.1624 -0.1721 0.9716
vn -0.4368 -0.4629 0.7713
vn -0.6518 -0.6907 0.3133
vn -0.7371 -0.5951 -0.3203
vn -0.4879 -0.3939 -0.7789
vn -0.1799 -0.1452 -0.9729
vn 0.1293 0.1044 -0.9861
vn 0.4507 0.3639 -0.8151
vn 0.7296 0.5891 -0.3474
vn 0.7296 0.5891 0.3474
vn 0.4507 0.3639 0.8151
vn 0.1293 0.1044 0.9861
vn -0.1799 -0.1452 0.9729
vn -0.4879 -0.3939 0.7789
vn -0.7371 -0.5951 0.3203
vn -0.8118 -0.4837 -0.3271
vn -0.5311 -0.3165 -0.7860
vn -0.1943 -0.1158 -0.9741
vn 0.1396 0.0832 -0.9867
vn 0.4899 0.2919 -0.8214
vn 0.8032 0.4786 -0.3546
vn 0.8032 0.4786 0.3546
vn 0.4899 0.2919 0.8214
vn 0.1396 0.0832 0.9867
vn -0.1943 -0.1158 0.9741
vn -0.5311 -0.3165 0.7860
vn -0.8118 -0.4837 0.3271
vn -0.8724 -0.3578 -0.3329
vn -0.5649 -0.2317 -0.7919
vn -0.2053 -0.0842 -0.9751
vn 0.1474 0.0605 -0.9872
vn 0.5206 0.2135 -0.8267
vn 0.8629 0.3539 -0.3608
vn 0.8629 0.3539 0.3608
vn 0.5206 0.2135 0.8267
vn 0.1474 0.0605 0.9872
vn -0.2053 -0.0842 0.9751
vn -0.5649 -0.2317 0.7919
vn -0.8724 -0.3578 0.3329
vn -0.9154 -0.2200 -0.3372
vn -0.5883 -0.1414 -0.7962
vn -0.2128 -0.0511 -0.9758
vn 0.1527 0.0367 -0.9876
vn 0.5416 0.1302 -0.8305
vn 0.9051 0.2175 -0.3653
vn 0.9051 0.2175 0.3653
vn 0.5416 0.1302 0.8305
vn 0.1527 0.0367 0.9876
vn -0.2128 -0.0511 0.9758
vn -0.5883 -0.1414 0.7962
vn -0.9154 -0.2200 0.3372
vn -0.9377 -0.0743 -0.3395
vn -0.6002 -0.0475 -0.7984
vn -0.2166 -0.0172 -0.9761
vn 0.1554 0.0123 -0.9878
vn 0.5524 0.0437 -0.8324
vn 0.9270 0.0734 -0.3678
vn 0.9270 0.0734 0.3678
vn 0.5524 0.0437 0.8324
vn 0.1554 0.0123 0.9878
vn -0.2166 -0.0172 0.9761
vn -0.6002 -0.0475 0.7984
vn -0.9377 -0.0743 0.3395
vn 0.9377 -0.0743 -0.3395
vn 0.6002 -0.0475 -0.7984
vn 0.2166 -0.0172 -0.9761
vn -0.1554 0.0123 -0.9878
vn -0.5524 0.0437 -0.8324
vn -0.9270 0.0734 -0.3678
vn -0.9270 0.0734 0.3678
vn -0.5524 0.0437 0.8324
vn -0.1554 0.0123 0.9878
vn 0.2166 -0.0172 0.9761
vn 0.6002 -0.0475 0.7984
vn 0.9377 -0.0743 0.3395
vn 0.9153 -0.2200 -0.3372
vn 0.5883 -0.1414 -0.7962
vn 0.2128 -0.0511 -0.9758
vn -0.1527 0.0367 -0.9876
vn -0.5416 0.1302 -0.8305
vn -0.9051 0.2175 -0.3653
vn -0.9051 0.2175 0.3653
vn -0.5417 0.1302 0.8305
vn -0.1527 0.0367 0.9876
vn 0.2128 -0.0511 0.9758
vn 0.5883 -0.1414 0.7962
vn 0.9153 -0.2200 0.3372
vn 0.8724 -0.3578 -0.3329
vn 0.5649 -0.2317 -0.7919
vn 0.2053 -0.0842 -0.9751
vn -0.1474 0.0605 -0.9872
vn -0.5206 0.2135 -0.8267
vn -0.8629 0.3539 -0.3608
vn -0.8629 0.3539 0.3608
vn -0.5206 0.2135 0.8267
vn -0.1474 0.0605 0.9872
vn 0.2053 -0.0842 0.9751
vn 0.5649 -0.2317 0.7919
vn 0.8724 -0.3578 0.3329
vn 0.8118 -0.4837 -0.3271
vn 0.5311 -0.3165 -0.7860
vn 0.1943 -0.1158 -0.9741
vn -0.1396 0.0832 -0.9867
vn -0.4899 0.2919 -0.8214
vn -0.8032 0.4786 -0.3546
vn -0.8032 0.4786 0.3546
vn -0.4899 0.2919 0.8214
vn -0.1396 0.0832 0.9867
vn 0.1943 -0.1158 0.9741
vn 0.5311 -0.3165 0.7860
vn 0.8118 -0.4837 0.3271
vn 0.7371 -0.5951 -0.3203
vn 0.4879 -0.3939 -0.7789
vn 0.1799 -0.1452 -0.9729
vn -0.1293 0.1044 -0.9861
vn -0.4507 0.3639 -0.8151
vn -0.7296 0.5891 -0.3474
vn -0.7296 0.5891 0.3474
vn -0.4507 0.3639 0.8151
vn -0.1293 0.1044 0.9861
vn 0.1799 -0.1452 0.9729
vn 0.4879 -0.3939 0.7789
vn 0.7371 -0.5951 0.3203
vn 0.6518 -0.6907 -0.3133
vn 0.4368 -0.4629 -0.7713
vn 0.1624 -0.1721 -0.9716
vn -0.1168 0.1238 -0.9854
vn -0.4041 0.4282 -0.8083
vn -0.6455 0.6840 -0.3399
vn -0.6455 0.6840 0.3399
vn -0.4041 0.4282 0.8083
vn -0.1168 0.1238 0.9854
vn 0.1624 -0.1721 0.9716
vn 0.4368 -0.4629 0.7713
vn 0.6518 -0.6907 0.3133
vn 0.5591 -0.7704 -0.3064
vn 0.3793 -0.5226 -0.7636
vn 0.1422 -0.1960 -0.9702
vn -0.1024 0.1411 -0.9847
vn -0.3514 0.4841 -0.8013
vn -0.5539 0.7632 -0.3326
vn -0.5539 0.7632 0.3326
vn -0.3514 0.4841 0.8013
vn -0.1024 0.1411 0.9847
vn 0.1422 -0.1960 0.9702
vn 0.3793 -0.5226 0.7636
vn 0.5591 -0.7704 0.3064
vn 0.4616 -0.8347 -0.3002
vn 0.3166 -0.5725 -0.7563
vn 0.1197 -0.2165 -0.9689
vn -0.0862 0.1559 -0.9840
vn -0.2937 0.5310 -0.7948
vn -0.4575 0.8273 -0.3260
vn -0.4575 0.8273 0.3260
vn -0.2937 0.5310 0.7948
vn -0.0862 0.1559 0.9840
vn 0.1197 -0.2165 0.9689
vn 0.3166 -0.5725 0.7563
vn 0.4616 -0.8347 0.3002
vn 0.3610 -0.8847 -0.2950
vn 0.2499 -0.6124 -0.7500
vn 0.0952 -0.2332 -0.9678
vn -0.0686 0.1681 -0.9834
vn -0.2321 0.5687 -0.7891
vn -0.3579 0.8771 -0.3204
vn -0.3579 0.8771 0.3204
vn -0.2321 0.5687 0.7891
vn -0.0686 0.1681 0.9834
vn 0.0952 -0.2332 0.9678
vn 0.2499 -0.6124 0.7500
vn 0.3610 -0.8847 0.2950
vn 0.2588 -0.9211 -0.2909
vn 0.1804 -0.6422 -0.7450
vn 0.0691 -0.2460 -0.9668
vn -0.0498 0.1774 -0.9829
vn -0.1677 0.5970 -0.7845
vn -0.2566 0.9134 -0.3160
vn -0.2566 0.9134 0.3160
vn -0.1677 0.5970 0.7845
vn -0.0498 0.1774 0.9829
vn 0.0691 -0.2460 0.9668
vn 0.1804 -0.6422 0.7450
vn 0.2588 -0.9211 0.2909
vn 0.1555 -0.9449 -0.2881
vn 0.1090 -0.6620 -0.7415
vn 0.0419 -0.2546 -0.9661
vn -0.0302 0.1836 -0.9825
vn -0.1014 0.6158 -0.7814
vn -0.1543 0.9371 -0.3130
vn -0.1543 0.9371 0.3130
vn -0.1014 0.6158 0.7814
vn -0.0302 0.1836 0.9825
vn 0.0419 -0.2546 0.9661
vn 0.1090 -0.6620 0.7415
vn 0.1555 -0.9449 0.2881
vn 0.0519 -0.9566 -0.2867
vn 0.0364 -0.6719 -0.7397
vn 0.0140 -0.2589 -0.9658
vn -0.0101 0.1868 -0.9823
vn -0.0339 0.6252 -0.7797
vn -0.0515 0.9488 -0.3115
vn -0.0515 0.9488 0.3115
vn -0.0339 0.6252 0.7797
vn -0.0101 0.1868 0.9823
vn 0.0140 -0.2589 0.9658
vn 0.0364 -0.6719 0.7397
vn 0.0519 -0.9566 0.2867
vn -1.0000 -0.0000 -0.0000
vn -0.0000 -0.0000 -1.0000
vn 1.0000 -0.0000 -0.0000
vn -0.0000 -0.0000 1.0000
vn -0.6363 -0.0000 0.7714
vn -0.7767 -0.0000 0.6299
vn -0.8926 -0.0000 0.4508
vn -0.9709 -0.0000 0.2393
vn -1.0000 -0.0000 0.0083
vn -0.9747 -0.0000 -0.2235
vn -0.8995 -0.0000 -0.4368
vn -0.7858 -0.0000 -0.6185
vn -0.6468 -0.0000 -0.7627
vn -0.4934 -0.0000 -0.8698
vn -0.3330 -0.0000 -0.9429
vn -0.1699 -0.0000 -0.9855
vn -0.0058 -0.0000 -1.0000
vn 0.1583 -0.0000 -0.9874
vn 0.3216 -0.0000 -0.9469
vn 0.4823 -0.0000 -0.8760
vn 0.6363 -0.0000 -0.7714
vn 0.7767 -0.0000 -0.6299
vn 0.8926 -0.0000 -0.4508
vn 0.9710 -0.0000 -0.2393
vn 1.0000 -0.0000 -0.0083
vn 0.9747 -0.0000 0.2235
vn 0.8995 -0.0000 0.4368
vn 0.7858 -0.0000 0.6185
vn 0.6467 -0.0000 0.7627
vn 0.4934 -0.0000 0.8698
vn 0.3330 -0.0000 0.9429
vn 0.1699 -0.0000 0.9855
vn 0.0058 -0.0000 1.0000
vn -0.1583 -0.0000 0.9874
vn -0.3216 -0.0000 0.9469
vn -0.4823 -0.0000 0.8760
vn -0.9710 -0.0000 0.2393
vn -0.6467 -0.0000 -0.7627
vn -0.0001 1.0000 -0.0000
vn 0.0002 1.0000 -0.0000
vn 0.0001 1.0000 -0.0000
vn 0.1543 0.9371 0.3130
vn -0.3610 -0.8847 -0.2950
vn 0.3514 0.4841 -0.8013
vn 0.3514 0.4841 0.8013
vn -0.4369 -0.4629 -0.7713
vn -0.4369 -0.4629 0.7713
vn -0.9153 -0.2200 -0.3372
vn -0.9153 -0.2200 0.3372
vn 0.9154 -0.2200 -0.3372
vn -0.5416 0.1302 0.8305
vn 0.9154 -0.2200 0.3372
vn 0.4369 -0.4629 -0.7713
vn 0.4369 -0.4629 0.7713
vn -0.3514 0.4841 0.8014
vn -0.1543 0.9371 -0.3131
vn -0.1543 0.9371 0.3131
vn -0.8927 -0.0000 0.4507
vn 0.6468 -0.0000 0.7627
vt 1.000000 1.000000
vt 0.968750 0.500000
vt 1.000000 0.500000
vt 0.968750 1.000000
vt 0.937500 0.500000
vt 0.937500 1.000000
vt 0.906250 0.500000
vt 0.906250 1.000000
vt 0.875000 0.500000
vt 0.875000 1.000000
vt 0.843750 0.500000
vt 0.843750 1.000000
vt 0.812500 0.500000
vt 0.812500 1.000000
vt 0.781250 0.500000
vt 0.781250 1.000000
vt 0.750000 0.500000
vt 0.750000 1.000000
vt 0.718750 0.500000
vt 0.718750 1.000000
vt 0.687500 0.500000
vt 0.687500 1.000000
vt 0.656250 0.500000
vt 0.656250 1.000000
vt 0.625000 0.500000
vt 0.625000 1.000000
vt 0.593750 0.500000
vt 0.593750 1.000000
vt 0.562500 0.500000
vt 0.562500 1.000000
vt 0.531250 0.500000
vt 0.531250 1.000000
vt 0.500000 0.500000
vt 0.500000 1.000000
vt 0.468750 0.500000
vt 0.468750 1.000000
vt 0.437500 0.500000
vt 0.437500 1.000000
vt 0.406250 0.500000
vt 0.406250 1.000000
vt 0.375000 0.500000
vt 0.375000 1.000000
vt 0.343750 0.500000
vt 0.343750 1.000000
vt 0.312500 0.500000
vt 0.312500 1.000000
vt 0.281250 0.500000
vt 0.281250 1.000000
vt 0.250000 0.500000
vt 0.250000 1.000000
vt 0.218750 0.500000
vt 0.218750 1.000000
vt 0.187500 0.500000
vt 0.187500 1.000000
vt 0.156250 0.500000
vt 0.156250 1.000000
vt 0.125000 0.500000
vt 0.125000 1.000000
vt 0.093750 0.500000
vt 0.093750 1.000000
vt 0.062500 0.500000
vt 0.158156 0.028269
vt 0.471731 0.158156
vt 0.341844 0.471731
vt 0.062500 1.000000
vt 0.031250 0.500000
vt 0.031250 1.000000
vt 0.000000 0.500000
vt 0.796822 0.014612
vt 0.514612 0.203178
vt 0.703178 0.485388
vt 0.520833 0.500000
vt 0.500000 0.583333
vt 0.520833 0.583333
vt 0.500000 0.666667
vt 0.520833 0.666667
vt 0.500000 0.750000
vt 0.520833 0.750000
vt 0.500000 0.833333
vt 0.520833 0.833333
vt 0.500000 0.916667
vt 0.520833 0.916667
vt 0.500000 0.000000
vt 0.520833 0.083333
vt 0.500000 0.083333
vt 0.520833 0.166667
vt 0.500000 0.166667
vt 0.520833 0.250000
vt 0.500000 0.250000
vt 0.520833 0.333333
vt 0.500000 0.333333
vt 0.520833 0.416667
vt 0.500000 0.416667
vt 0.541667 0.500000
vt 0.541667 0.583333
vt 0.541667 0.666667
vt 0.541667 0.750000
vt 0.541667 0.833333
vt 0.541667 0.916667
vt 0.520833 1.000000
vt 0.520833 0.000000
vt 0.541667 0.083333
vt 0.541667 0.166667
vt 0.541667 0.250000
vt 0.541667 0.333333
vt 0.541667 0.416667
vt 0.562500 0.583333
vt 0.562500 0.666667
vt 0.562500 0.750000
vt 0.562500 0.833333
vt 0.562500 0.916667
vt 0.541667 1.000000
vt 0.541667 0.000000
vt 0.562500 0.083333
vt 0.562500 0.166667
vt 0.562500 0.250000
vt 0.562500 0.333333
vt 0.562500 0.416667
vt 0.583333 0.500000
vt 0.583333 0.583333
vt 0.583333 0.666667
vt 0.583333 0.750000
vt 0.583333 0.833333
vt 0.583333 0.916667
vt 0.562500 0.000000
vt 0.583333 0.083333
vt 0.583333 0.166667
vt 0.583333 0.250000
vt 0.583333 0.333333
vt 0.583333 0.416667
vt 0.604167 0.500000
vt 0.604167 0.583333
vt 0.604167 0.666667
vt 0.604167 0.750000
vt 0.604167 0.833333
vt 0.604167 0.916667
vt 0.583333 1.000000
vt 0.583333 0.000000
vt 0.604167 0.083333
vt 0.604167 0.166667
vt 0.604167 0.250000
vt 0.604167 0.333333
vt 0.604167 0.416667
vt 0.625000 0.583333
vt 0.625000 0.666667
vt 0.625000 0.750000
vt 0.625000 0.833333
vt 0.625000 0.916667
vt 0.604167 1.000000
vt 0.604167 0.000000
vt 0.625000 0.083333
vt 0.625000 0.166667
vt 0.625000 0.250000
vt 0.625000 0.333333
vt 0.625000 0.416667
vt 0.645833 0.500000
vt 0.645833 0.583333
vt 0.645833 0.666667
vt 0.645833 0.750000
vt 0.645833 0.833333
vt 0.645833 0.916667
vt 0.625000 0.000000
vt 0.645833 0.083333
vt 0.645833 0.166667
vt 0.645833 0.250000
vt 0.645833 0.333333
vt 0.645833 0.416667
vt 0.666667 0.500000
vt 0.666667 0.583333
vt 0.666667 0.666667
vt 0.666667 0.750000
vt 0.666667 0.833333
vt 0.666667 0.916667
vt 0.645833 1.000000
vt 0.645833 0.000000
vt 0.666667 0.083333
vt 0.666667 0.166667
vt 0.666667 0.250000
vt 0.666667 0.333333
vt 0.666667 0.416667
vt 0.687500 0.583333
vt 0.687500 0.666667
vt 0.687500 0.750000
vt 0.687500 0.833333
vt 0.687500 0.916667
vt 0.666667 1.000000
vt 0.666667 0.000000
vt 0.687500 0.083333
vt 0.687500 0.166667
vt 0.687500 0.250000
vt 0.687500 0.333333
vt 0.687500 0.416667
vt 0.708333 0.500000
vt 0.708333 0.583333
vt 0.708333 0.666667
vt 0.708333 0.750000
vt 0.708333 0.833333
vt 0.708333 0.916667
vt 0.687500 0.000000
vt 0.708333 0.083333
vt 0.708333 0.166667
vt 0.708333 0.250000
vt 0.708333 0.333333
vt 0.708333 0.416667
vt 0.729167 0.500000
vt 0.729167 0.583333
vt 0.729167 0.666667
vt 0.729167 0.750000
vt 0.729167 0.833333
vt 0.729167 0.916667
vt 0.708333 1.000000
vt 0.708333 0.000000
vt 0.729167 0.083333
vt 0.729167 0.166667
vt 0.729167 0.250000
vt 0.729167 0.333333
vt 0.729167 0.416667
vt 0.750000 0.583333
vt 0.750000 0.666667
vt 0.750000 0.750000
vt 0.750000 0.833333
vt 0.750000 0.916667
vt 0.729167 1.000000
vt 0.729167 0.000000
vt 0.750000 0.083333
vt 0.750000 0.166667
vt 0.750000 0.250000
vt 0.750000 0.333333
vt 0.750000 0.416667
vt 0.270833 0.583333
vt 0.250000 0.583333
vt 0.270833 0.666667
vt 0.250000 0.666667
vt 0.270833 0.750000
vt 0.250000 0.750000
vt 0.270833 0.833333
vt 0.250000 0.833333
vt 0.270833 0.916667
vt 0.250000 0.916667
vt 0.270833 1.000000
vt 0.270833 0.000000
vt 0.250000 0.083333
vt 0.250000 0.000000
vt 0.270833 0.083333
vt 0.250000 0.166667
vt 0.270833 0.166667
vt 0.250000 0.250000
vt 0.270833 0.250000
vt 0.250000 0.333333
vt 0.270833 0.333333
vt 0.250000 0.416667
vt 0.270833 0.416667
vt 0.270833 0.500000
vt 0.291667 0.583333
vt 0.291667 0.666667
vt 0.291667 0.750000
vt 0.291667 0.833333
vt 0.291667 0.916667
vt 0.291667 1.000000
vt 0.291667 0.000000
vt 0.291667 0.083333
vt 0.291667 0.166667
vt 0.291667 0.250000
vt 0.291667 0.333333
vt 0.291667 0.416667
vt 0.291667 0.500000
vt 0.312500 0.583333
vt 0.312500 0.666667
vt 0.312500 0.750000
vt 0.312500 0.833333
vt 0.312500 0.916667
vt 0.312500 0.000000
vt 0.312500 0.083333
vt 0.312500 0.166667
vt 0.312500 0.250000
vt 0.312500 0.333333
vt 0.312500 0.416667
vt 0.333333 0.583333
vt 0.333333 0.666667
vt 0.333333 0.750000
vt 0.333333 0.833333
vt 0.333333 0.916667
vt 0.333333 1.000000
vt 0.333333 0.000000
vt 0.333333 0.083333
vt 0.333333 0.166667
vt 0.333333 0.250000
vt 0.333333 0.333333
vt 0.333333 0.416667
vt 0.333333 0.500000
vt 0.354167 0.583333
vt 0.354167 0.666667
vt 0.354167 0.750000
vt 0.354167 0.833333
vt 0.354167 0.916667
vt 0.354167 1.000000
vt 0.354167 0.000000
vt 0.354167 0.083333
vt 0.354167 0.166667
vt 0.354167 0.250000
vt 0.354167 0.333333
vt 0.354167 0.416667
vt 0.354167 0.500000
vt 0.375000 0.583333
vt 0.375000 0.666667
vt 0.375000 0.750000
vt 0.375000 0.833333
vt 0.375000 0.916667
vt 0.375000 0.000000
vt 0.375000 0.083333
vt 0.375000 0.166667
vt 0.375000 0.250000
vt 0.375000 0.333333
vt 0.375000 0.416667
vt 0.395833 0.583333
vt 0.395833 0.666667
vt 0.395833 0.750000
vt 0.395833 0.833333
vt 0.395833 0.916667
vt 0.395833 1.000000
vt 0.395833 0.000000
vt 0.395833 0.083333
vt 0.395833 0.166667
vt 0.395833 0.250000
vt 0.395833 0.333333
vt 0.395833 0.416667
vt 0.395833 0.500000
vt 0.416667 0.583333
vt 0.416667 0.666667
vt 0.416667 0.750000
vt 0.416667 0.833333
vt 0.416667 0.916667
vt 0.416667 1.000000
vt 0.416667 0.000000
vt 0.416667 0.083333
vt 0.416667 0.166667
vt 0.416667 0.250000
vt 0.416667 0.333333
vt 0.416667 0.416667
vt 0.416667 0.500000
vt 0.437500 0.583333
vt 0.437500 0.666667
vt 0.437500 0.750000
vt 0.437500 0.833333
vt 0.437500 0.916667
vt 0.437500 0.000000
vt 0.437500 0.083333
vt 0.437500 0.166667
vt 0.437500 0.250000
vt 0.437500 0.333333
vt 0.437500 0.416667
vt 0.458333 0.583333
vt 0.458333 0.666667
vt 0.458333 0.750000
vt 0.458333 0.833333
vt 0.458333 0.916667
vt 0.458333 1.000000
vt 0.458333 0.000000
vt 0.458333 0.083333
vt 0.458333 0.166667
vt 0.458333 0.250000
vt 0.458333 0.333333
vt 0.458333 0.416667
vt 0.458333 0.500000
vt 0.479167 0.583333
vt 0.479167 0.666667
vt 0.479167 0.750000
vt 0.479167 0.833333
vt 0.479167 0.916667
vt 0.479167 1.000000
vt 0.479167 0.000000
vt 0.479167 0.083333
vt 0.479167 0.166667
vt 0.479167 0.250000
vt 0.479167 0.333333
vt 0.479167 0.416667
vt 0.479167 0.500000
vt 0.625000 0.000000
vt 0.375000 0.000000
vt 0.125000 0.750000
vt 0.296822 0.485388
vt 0.250000 0.490000
vt 0.203178 0.485388
vt 0.158156 0.471731
vt 0.116663 0.449553
vt 0.080294 0.419706
vt 0.050447 0.383337
vt 0.028269 0.341844
vt 0.014612 0.296822
vt 0.010000 0.250000
vt 0.014612 0.203178
vt 0.028269 0.158156
vt 0.050447 0.116663
vt 0.080294 0.080294
vt 0.116663 0.050447
vt 0.203178 0.014612
vt 0.250000 0.010000
vt 0.296822 0.014612
vt 0.341844 0.028269
vt 0.383337 0.050447
vt 0.419706 0.080294
vt 0.449553 0.116663
vt 0.485388 0.203178
vt 0.490000 0.250000
vt 0.485388 0.296822
vt 0.471731 0.341844
vt 0.449553 0.383337
vt 0.419706 0.419706
vt 0.383337 0.449553
vt 0.000000 1.000000
vt 0.750000 0.490000
vt 0.796822 0.485388
vt 0.841844 0.471731
vt 0.883337 0.449553
vt 0.919706 0.419706
vt 0.949553 0.383337
vt 0.971731 0.341844
vt 0.985388 0.296822
vt 0.990000 0.250000
vt 0.985388 0.203178
vt 0.971731 0.158156
vt 0.949553 0.116663
vt 0.919706 0.080294
vt 0.883337 0.050447
vt 0.841844 0.028269
vt 0.750000 0.010000
vt 0.703178 0.014612
vt 0.658156 0.028269
vt 0.616663 0.050447
vt 0.580294 0.080294
vt 0.550447 0.116663
vt 0.528269 0.158156
vt 0.510000 0.250000
vt 0.514612 0.296822
vt 0.528269 0.341844
vt 0.550447 0.383337
vt 0.580294 0.419706
vt 0.616663 0.449553
vt 0.658156 0.471731
vt 0.750000 0.000000
vt 0.875000 0.750000
s 0
g off
g Cylinder.003_Material.001
usemtl Material.001
f 2/1/1 1/3/1 3/2/1
f 4/4/2 3/2/2 5/5/2
f 6/6/3 5/5/3 7/7/3
f 8/8/4 7/7/4 9/9/4
f 10/10/5 9/9/5 11/11/5
f 12/12/6 11/11/6 13/13/6
f 14/14/7 13/13/7 15/15/7
f 16/16/8 15/15/8 17/17/8
f 18/18/9 17/17/9 19/19/9
f 20/20/10 19/19/10 21/21/10
f 22/22/11 21/21/11 23/23/11
f 24/24/12 23/23/12 25/25/12
f 26/26/13 25/25/13 27/27/13
f 28/28/14 27/27/14 29/29/14
f 30/30/15 29/29/15 31/31/15
f 32/32/16 31/31/16 33/33/16
f 34/34/17 33/33/17 35/35/17
f 36/36/18 35/35/18 37/37/18
f 38/38/19 37/37/19 39/39/19
f 40/40/20 39/39/20 41/41/20
f 42/42/21 41/41/21 43/43/21
f 44/44/22 43/43/22 45/45/22
f 46/46/23 45/45/23 47/47/23
f 48/48/24 47/47/24 49/49/24
f 50/50/25 49/49/25 51/51/25
f 52/52/26 51/51/26 53/53/26
f 54/54/27 53/53/27 55/55/27
f 56/56/28 55/55/28 57/57/28
f 58/58/29 57/57/29 59/59/29
f 60/60/30 59/59/30 61/61/30
f 38/62/31 6/64/31 22/63/31
f 62/65/32 61/61/32 63/66/32
f 64/67/33 63/66/33 1/68/33
f 31/69/34 63/71/34 47/70/34
f 66/1/1 65/3/1 67/2/1
f 68/4/2 67/2/2 69/5/2
f 70/6/3 69/5/3 71/7/3
f 72/8/4 71/7/4 73/9/4
f 74/10/5 73/9/5 75/11/5
f 76/12/6 75/11/6 77/13/6
f 78/14/7 77/13/7 79/15/7
f 80/16/8 79/15/8 81/17/8
f 82/18/9 81/17/9 83/19/9
f 84/20/10 83/19/10 85/21/10
f 86/22/11 85/21/11 87/23/11
f 88/24/12 87/23/12 89/25/12
f 90/26/13 89/25/13 91/27/13
f 92/28/14 91/27/14 93/29/14
f 94/30/15 93/29/15 95/31/15
f 96/32/16 95/31/16 97/33/16
f 98/34/17 97/33/17 99/35/17
f 100/36/18 99/35/18 101/37/18
f 102/38/19 101/37/19 103/39/19
f 104/40/20 103/39/20 105/41/20
f 106/42/21 105/41/21 107/43/21
f 108/44/22 107/43/22 109/45/22
f 110/46/23 109/45/23 111/47/23
f 112/48/24 111/47/24 113/49/24
f 114/50/25 113/49/25 115/51/25
f 116/52/26 115/51/26 117/53/26
f 118/54/27 117/53/27 119/55/27
f 120/56/28 119/55/28 121/57/28
f 122/58/29 121/57/29 123/59/29
f 124/60/30 123/59/30 125/61/30
f 102/62/31 70/64/31 86/63/31
f 126/65/32 125/61/32 127/66/32
f 128/67/33 127/66/33 65/68/33
f 95/69/34 127/71/34 111/70/34
f 130/1/1 129/3/1 131/2/1
f 132/4/2 131/2/2 133/5/2
f 134/6/3 133/5/3 135/7/3
f 136/8/4 135/7/4 137/9/4
f 138/10/5 137/9/5 139/11/5
f 140/12/6 139/11/6 141/13/6
f 142/14/7 141/13/7 143/15/7
f 144/16/8 143/15/8 145/17/8
f 146/18/9 145/17/9 147/19/9
f 148/20/10 147/19/10 149/21/10
f 150/22/11 149/21/11 151/23/11
f 152/24/12 151/23/12 153/25/12
f 154/26/13 153/25/13 155/27/13
f 156/28/14 155/27/14 157/29/14
f 158/30/15 157/29/15 159/31/15
f 160/32/16 159/31/16 161/33/16
f 162/34/17 161/33/17 163/35/17
f 164/36/18 163/35/18 165/37/18
f 166/38/19 165/37/19 167/39/19
f 168/40/20 167/39/20 169/41/20
f 170/42/21 169/41/21 171/43/21
f 172/44/22 171/43/22 173/45/22
f 174/46/23 173/45/23 175/47/23
f 176/48/24 175/47/24 177/49/24
f 178/50/25 177/49/25 179/51/25
f 180/52/26 179/51/26 181/53/26
f 182/54/27 181/53/27 183/55/27
f 184/56/28 183/55/28 185/57/28
f 186/58/29 185/57/29 187/59/29
f 188/60/30 187/59/30 189/61/30
f 166/62/31 134/64/31 150/63/31
f 190/65/32 189/61/32 191/66/32
f 192/67/33 191/66/33 129/68/33
f 159/69/34 191/71/34 175/70/34
f 205/72/35 193/33/35 194/73/35
f 206/74/36 194/73/36 195/75/36
f 207/76/37 195/75/37 196/77/37
f 208/78/38 196/77/38 197/79/38
f 209/80/39 197/79/39 198/81/39
f 210/82/40 198/81/40 199/34/40
f 199/83/41 200/85/41 212/84/41
f 200/85/42 201/87/42 213/86/42
f 201/87/43 202/89/43 214/88/43
f 202/89/44 203/91/44 215/90/44
f 203/91/45 204/93/45 216/92/45
f 204/93/46 193/33/46 205/72/46
f 217/94/47 205/72/47 206/74/47
f 218/95/48 206/74/48 207/76/48
f 219/96/49 207/76/49 208/78/49
f 220/97/50 208/78/50 209/80/50
f 221/98/51 209/80/51 210/82/51
f 222/99/52 210/82/52 211/100/52
f 211/101/53 212/84/53 224/102/53
f 212/84/54 213/86/54 225/103/54
f 213/86/55 214/88/55 226/104/55
f 214/88/56 215/90/56 227/105/56
f 215/90/57 216/92/57 228/106/57
f 216/92/58 205/72/58 217/94/58
f 229/29/59 217/94/59 218/95/59
f 230/107/60 218/95/60 219/96/60
f 231/108/61 219/96/61 220/97/61
f 232/109/62 220/97/62 221/98/62
f 233/110/63 221/98/63 222/99/63
f 234/111/64 222/99/64 223/112/64
f 223/113/65 224/102/65 236/114/65
f 224/102/66 225/103/66 237/115/66
f 225/103/67 226/104/67 238/116/67
f 226/104/68 227/105/68 239/117/68
f 227/105/69 228/106/69 240/118/69
f 228/106/70 217/94/70 229/29/70
f 241/119/71 229/29/71 230/107/71
f 242/120/72 230/107/72 231/108/72
f 243/121/73 231/108/73 232/109/73
f 244/122/74 232/109/74 233/110/74
f 245/123/75 233/110/75 234/111/75
f 246/124/76 234/111/76 235/30/76
f 235/125/77 236/114/77 248/126/77
f 236/114/78 237/115/78 249/127/78
f 237/115/79 238/116/79 250/128/79
f 238/116/80 239/117/80 251/129/80
f 239/117/81 240/118/81 252/130/81
f 240/118/82 229/29/82 241/119/82
f 253/131/83 241/119/83 242/120/83
f 254/132/84 242/120/84 243/121/84
f 255/133/85 243/121/85 244/122/85
f 256/134/86 244/122/86 245/123/86
f 257/135/87 245/123/87 246/124/87
f 258/136/88 246/124/88 247/137/88
f 247/138/89 248/126/89 260/139/89
f 248/126/90 249/127/90 261/140/90
f 249/127/91 250/128/91 262/141/91
f 250/128/92 251/129/92 263/142/92
f 251/129/93 252/130/93 264/143/93
f 252/130/94 241/119/94 253/131/94
f 265/25/95 253/131/95 254/132/95
f 266/144/96 254/132/96 255/133/96
f 267/145/97 255/133/97 256/134/97
f 268/146/98 256/134/98 257/135/98
f 269/147/99 257/135/99 258/136/99
f 270/148/100 258/136/100 259/149/100
f 259/150/101 260/139/101 272/151/101
f 260/139/102 261/140/102 273/152/102
f 261/140/103 262/141/103 274/153/103
f 262/141/104 263/142/104 275/154/104
f 263/142/105 264/143/105 276/155/105
f 264/143/106 253/131/106 265/25/106
f 277/156/107 265/25/107 266/144/107
f 278/157/108 266/144/108 267/145/108
f 279/158/109 267/145/109 268/146/109
f 280/159/110 268/146/110 269/147/110
f 281/160/111 269/147/111 270/148/111
f 282/161/112 270/148/112 271/26/112
f 271/162/113 272/151/113 284/163/113
f 272/151/114 273/152/114 285/164/114
f 273/152/115 274/153/115 286/165/115
f 274/153/116 275/154/116 287/166/116
f 275/154/117 276/155/117 288/167/117
f 276/155/118 265/25/118 277/156/118
f 289/168/119 277/156/119 278/157/119
f 290/169/120 278/157/120 279/158/120
f 291/170/121 279/158/121 280/159/121
f 292/171/122 280/159/122 281/160/122
f 293/172/123 281/160/123 282/161/123
f 294/173/124 282/161/124 283/174/124
f 283/175/125 284/163/125 296/176/125
f 284/163/126 285/164/126 297/177/126
f 285/164/127 286/165/127 298/178/127
f 286/165/128 287/166/128 299/179/128
f 287/166/129 288/167/129 300/180/129
f 288/167/130 277/156/130 289/168/130
f 301/21/131 289/168/131 290/169/131
f 302/181/132 290/169/132 291/170/132
f 303/182/133 291/170/133 292/171/133
f 304/183/134 292/171/134 293/172/134
f 305/184/135 293/172/135 294/173/135
f 306/185/136 294/173/136 295/186/136
f 295/187/137 296/176/137 308/188/137
f 296/176/138 297/177/138 309/189/138
f 297/177/139 298/178/139 310/190/139
f 298/178/140 299/179/140 311/191/140
f 299/179/141 300/180/141 312/192/141
f 300/180/142 289/168/142 301/21/142
f 313/193/143 301/21/143 302/181/143
f 314/194/144 302/181/144 303/182/144
f 315/195/145 303/182/145 304/183/145
f 316/196/146 304/183/146 305/184/146
f 317/197/147 305/184/147 306/185/147
f 318/198/148 306/185/148 307/22/148
f 307/199/149 308/188/149 320/200/149
f 308/188/150 309/189/150 321/201/150
f 309/189/151 310/190/151 322/202/151
f 310/190/152 311/191/152 323/203/152
f 311/191/153 312/192/153 324/204/153
f 312/192/154 301/21/154 313/193/154
f 325/205/155 313/193/155 314/194/155
f 326/206/156 314/194/156 315/195/156
f 327/207/157 315/195/157 316/196/157
f 328/208/158 316/196/158 317/197/158
f 329/209/159 317/197/159 318/198/159
f 330/210/160 318/198/160 319/211/160
f 319/212/161 320/200/161 332/213/161
f 320/200/162 321/201/162 333/214/162
f 321/201/163 322/202/163 334/215/163
f 322/202/164 323/203/164 335/216/164
f 323/203/165 324/204/165 336/217/165
f 324/204/166 313/193/166 325/205/166
f 337/17/167 325/205/167 326/206/167
f 338/218/168 326/206/168 327/207/168
f 339/219/169 327/207/169 328/208/169
f 340/220/170 328/208/170 329/209/170
f 341/221/171 329/209/171 330/210/171
f 342/222/172 330/210/172 331/223/172
f 331/224/173 332/213/173 344/225/173
f 332/213/174 333/214/174 345/226/174
f 333/214/175 334/215/175 346/227/175
f 334/215/176 335/216/176 347/228/176
f 335/216/177 336/217/177 348/229/177
f 336/217/178 325/205/178 337/17/178
f 349/49/179 350/231/179 362/230/179
f 350/231/180 351/233/180 363/232/180
f 351/233/181 352/235/181 364/234/181
f 352/235/182 353/237/182 365/236/182
f 353/237/183 354/239/183 366/238/183
f 354/239/184 355/50/184 367/240/184
f 367/241/185 355/243/185 356/242/185
f 368/244/186 356/242/186 357/245/186
f 369/246/187 357/245/187 358/247/187
f 370/248/188 358/247/188 359/249/188
f 371/250/189 359/249/189 360/251/189
f 372/252/190 360/251/190 349/49/190
f 361/253/191 362/230/191 374/254/191
f 362/230/192 363/232/192 375/255/192
f 363/232/193 364/234/193 376/256/193
f 364/234/194 365/236/194 377/257/194
f 365/236/195 366/238/195 378/258/195
f 366/238/196 367/240/196 379/259/196
f 379/260/197 367/241/197 368/244/197
f 380/261/198 368/244/198 369/246/198
f 381/262/199 369/246/199 370/248/199
f 382/263/200 370/248/200 371/250/200
f 383/264/201 371/250/201 372/252/201
f 384/265/202 372/252/202 361/253/202
f 373/266/203 374/254/203 386/267/203
f 374/254/204 375/255/204 387/268/204
f 375/255/205 376/256/205 388/269/205
f 376/256/206 377/257/206 389/270/206
f 377/257/207 378/258/207 390/271/207
f 378/258/208 379/259/208 391/46/208
f 391/272/209 379/260/209 380/261/209
f 392/273/210 380/261/210 381/262/210
f 393/274/211 381/262/211 382/263/211
f 394/275/212 382/263/212 383/264/212
f 395/276/213 383/264/213 384/265/213
f 396/277/214 384/265/214 373/266/214
f 385/45/215 386/267/215 398/278/215
f 386/267/216 387/268/216 399/279/216
f 387/268/217 388/269/217 400/280/217
f 388/269/218 389/270/218 401/281/218
f 389/270/219 390/271/219 402/282/219
f 390/271/220 391/46/220 403/283/220
f 403/284/221 391/272/221 392/273/221
f 404/285/222 392/273/222 393/274/222
f 405/286/223 393/274/223 394/275/223
f 406/287/224 394/275/224 395/276/224
f 407/288/225 395/276/225 396/277/225
f 408/289/226 396/277/226 385/45/226
f 397/290/227 398/278/227 410/291/227
f 398/278/228 399/279/228 411/292/228
f 399/279/229 400/280/229 412/293/229
f 400/280/230 401/281/230 413/294/230
f 401/281/231 402/282/231 414/295/231
f 402/282/232 403/283/232 415/296/232
f 415/297/233 403/284/233 404/285/233
f 416/298/234 404/285/234 405/286/234
f 417/299/235 405/286/235 406/287/235
f 418/300/236 406/287/236 407/288/236
f 419/301/237 407/288/237 408/289/237
f 420/302/238 408/289/238 397/290/238
f 409/303/239 410/291/239 422/304/239
f 410/291/240 411/292/240 423/305/240
f 411/292/241 412/293/241 424/306/241
f 412/293/242 413/294/242 425/307/242
f 413/294/243 414/295/243 426/308/243
f 414/295/244 415/296/244 427/42/244
f 427/309/245 415/297/245 416/298/245
f 428/310/246 416/298/246 417/299/246
f 429/311/247 417/299/247 418/300/247
f 430/312/248 418/300/248 419/301/248
f 431/313/249 419/301/249 420/302/249
f 432/314/250 420/302/250 409/303/250
f 421/41/251 422/304/251 434/315/251
f 422/304/252 423/305/252 435/316/252
f 423/305/253 424/306/253 436/317/253
f 424/306/254 425/307/254 437/318/254
f 425/307/255 426/308/255 438/319/255
f 426/308/256 427/42/256 439/320/256
f 439/321/257 427/309/257 428/310/257
f 440/322/258 428/310/258 429/311/258
f 441/323/259 429/311/259 430/312/259
f 442/324/260 430/312/260 431/313/260
f 443/325/261 431/313/261 432/314/261
f 444/326/262 432/314/262 421/41/262
f 433/327/263 434/315/263 446/328/263
f 434/315/264 435/316/264 447/329/264
f 435/316/265 436/317/265 448/330/265
f 436/317/266 437/318/266 449/331/266
f 437/318/267 438/319/267 450/332/267
f 438/319/268 439/320/268 451/333/268
f 451/334/269 439/321/269 440/322/269
f 452/335/270 440/322/270 441/323/270
f 453/336/271 441/323/271 442/324/271
f 454/337/272 442/324/272 443/325/272
f 455/338/273 443/325/273 444/326/273
f 456/339/274 444/326/274 433/327/274
f 445/340/275 446/328/275 458/341/275
f 446/328/276 447/329/276 459/342/276
f 447/329/277 448/330/277 460/343/277
f 448/330/278 449/331/278 461/344/278
f 449/331/279 450/332/279 462/345/279
f 450/332/280 451/333/280 463/38/280
f 463/346/281 451/334/281 452/335/281
f 464/347/282 452/335/282 453/336/282
f 465/348/283 453/336/283 454/337/283
f 466/349/284 454/337/284 455/338/284
f 467/350/285 455/338/285 456/339/285
f 468/351/286 456/339/286 445/340/286
f 457/37/287 458/341/287 470/352/287
f 458/341/288 459/342/288 471/353/288
f 459/342/289 460/343/289 472/354/289
f 460/343/290 461/344/290 473/355/290
f 461/344/291 462/345/291 474/356/291
f 462/345/292 463/38/292 475/357/292
f 475/358/293 463/346/293 464/347/293
f 476/359/294 464/347/294 465/348/294
f 477/360/295 465/348/295 466/349/295
f 478/361/296 466/349/296 467/350/296
f 479/362/297 467/350/297 468/351/297
f 480/363/298 468/351/298 457/37/298
f 469/364/299 470/352/299 482/365/299
f 470/352/300 471/353/300 483/366/300
f 471/353/301 472/354/301 484/367/301
f 472/354/302 473/355/302 485/368/302
f 473/355/303 474/356/303 486/369/303
f 474/356/304 475/357/304 487/370/304
f 487/371/305 475/358/305 476/359/305
f 488/372/306 476/359/306 477/360/306
f 489/373/307 477/360/307 478/361/307
f 490/374/308 478/361/308 479/362/308
f 491/375/309 479/362/309 480/363/309
f 492/376/310 480/363/310 469/364/310
f 481/377/311 482/365/311 194/73/311
f 482/365/312 483/366/312 195/75/312
f 483/366/313 484/367/313 196/77/313
f 484/367/314 485/368/314 197/79/314
f 485/368/315 486/369/315 198/81/315
f 486/369/316 487/370/316 199/34/316
f 199/83/317 487/371/317 488/372/317
f 200/85/318 488/372/318 489/373/318
f 201/87/319 489/373/319 490/374/319
f 202/89/320 490/374/320 491/375/320
f 203/91/321 491/375/321 492/376/321
f 204/93/322 492/376/322 481/377/322
f 494/378/323 493/379/323 495/312/323
f 496/153/324 495/312/324 499/41/324
f 500/25/325 499/41/325 497/306/325
f 498/146/326 497/306/326 493/42/326
f 499/41/34 495/57/34 493/380/34
f 496/9/31 500/25/31 498/146/31
f 515/38/19 514/37/19 516/39/19
f 517/40/20 516/39/20 518/41/20
f 519/42/21 518/41/21 520/43/21
f 521/44/22 520/43/22 522/45/22
f 523/46/23 522/45/23 524/47/23
f 525/48/24 524/47/24 526/49/24
f 527/50/25 526/49/25 528/51/25
f 529/52/26 528/51/26 530/53/26
f 531/54/27 530/53/27 532/55/27
f 533/56/28 532/55/28 534/57/28
f 535/58/29 534/57/29 536/59/29
f 537/60/30 536/59/30 538/61/30
f 539/65/32 538/61/32 540/66/32
f 541/67/33 540/66/33 501/68/33
f 543/1/327 542/3/327 544/2/327
f 545/4/328 544/2/328 546/5/328
f 547/6/329 546/5/329 548/7/329
f 549/8/330 548/7/330 550/9/330
f 551/10/331 550/9/331 552/11/331
f 553/12/332 552/11/332 554/13/332
f 555/14/333 554/13/333 556/15/333
f 557/16/334 556/15/334 558/17/334
f 559/18/335 558/17/335 560/19/335
f 561/20/336 560/19/336 562/21/336
f 563/22/337 562/21/337 564/23/337
f 565/24/338 564/23/338 566/25/338
f 567/26/339 566/25/339 568/27/339
f 569/28/340 568/27/340 570/29/340
f 571/30/341 570/29/341 572/31/341
f 573/32/342 572/31/342 574/33/342
f 575/34/343 574/33/343 576/35/343
f 577/36/344 576/35/344 578/37/344
f 579/38/345 578/37/345 580/39/345
f 581/40/346 580/39/346 582/41/346
f 583/42/347 582/41/347 584/43/347
f 585/44/348 584/43/348 586/45/348
f 587/46/349 586/45/349 588/47/349
f 589/48/350 588/47/350 590/49/350
f 591/50/351 590/49/351 592/51/351
f 593/52/352 592/51/352 594/53/352
f 595/54/353 594/53/353 596/55/353
f 597/56/354 596/55/354 598/57/354
f 599/58/355 598/57/355 600/59/355
f 601/60/356 600/59/356 602/61/356
f 579/62/31 547/64/31 563/63/31
f 603/65/357 602/61/357 604/66/357
f 605/67/358 604/66/358 542/68/358
f 572/69/34 604/71/34 588/70/34
f 607/1/327 606/3/327 608/2/327
f 609/4/328 608/2/328 610/5/328
f 611/6/329 610/5/329 612/7/329
f 613/8/359 612/7/359 614/9/359
f 615/10/331 614/9/331 616/11/331
f 617/12/332 616/11/332 618/13/332
f 619/14/333 618/13/333 620/15/333
f 621/16/334 620/15/334 622/17/334
f 623/18/360 622/17/360 624/19/360
f 625/20/336 624/19/336 626/21/336
f 627/22/337 626/21/337 628/23/337
f 629/24/338 628/23/338 630/25/338
f 631/26/339 630/25/339 632/27/339
f 633/28/340 632/27/340 634/29/340
f 635/30/341 634/29/341 636/31/341
f 637/32/342 636/31/342 638/33/342
f 639/34/343 638/33/343 640/35/343
f 641/36/344 640/35/344 642/37/344
f 643/38/345 642/37/345 644/39/345
f 645/40/346 644/39/346 646/41/346
f 647/42/347 646/41/347 648/43/347
f 649/44/348 648/43/348 650/45/348
f 651/46/349 650/45/349 652/47/349
f 653/48/350 652/47/350 654/49/350
f 655/50/351 654/49/351 656/51/351
f 657/52/352 656/51/352 658/53/352
f 659/54/353 658/53/353 660/55/353
f 661/56/354 660/55/354 662/57/354
f 663/58/355 662/57/355 664/59/355
f 665/60/356 664/59/356 666/61/356
f 643/62/31 611/64/31 627/63/31
f 667/65/357 666/61/357 668/66/357
f 669/67/358 668/66/358 606/68/358
f 636/69/34 668/71/34 652/70/34
f 2/1/1 3/2/1 4/4/1
f 4/4/2 5/5/2 6/6/2
f 6/6/3 7/7/3 8/8/3
f 8/8/4 9/9/4 10/10/4
f 10/10/5 11/11/5 12/12/5
f 12/12/6 13/13/6 14/14/6
f 14/14/7 15/15/7 16/16/7
f 16/16/8 17/17/8 18/18/8
f 18/18/9 19/19/9 20/20/9
f 20/20/10 21/21/10 22/22/10
f 22/22/11 23/23/11 24/24/11
f 24/24/12 25/25/12 26/26/12
f 26/26/13 27/27/13 28/28/13
f 28/28/14 29/29/14 30/30/14
f 30/30/15 31/31/15 32/32/15
f 32/32/16 33/33/16 34/34/16
f 34/34/17 35/35/17 36/36/17
f 36/36/18 37/37/18 38/38/18
f 38/38/19 39/39/19 40/40/19
f 40/40/20 41/41/20 42/42/20
f 42/42/21 43/43/21 44/44/21
f 44/44/22 45/45/22 46/46/22
f 46/46/23 47/47/23 48/48/23
f 48/48/24 49/49/24 50/50/24
f 50/50/25 51/51/25 52/52/25
f 52/52/26 53/53/26 54/54/26
f 54/54/27 55/55/27 56/56/27
f 56/56/28 57/57/28 58/58/28
f 58/58/29 59/59/29 60/60/29
f 60/60/30 61/61/30 62/65/30
f 6/64/31 2/382/31 4/381/31
f 2/382/31 62/384/31 64/383/31
f 62/384/31 58/386/31 60/385/31
f 58/386/31 54/388/31 56/387/31
f 54/388/31 50/390/31 52/389/31
f 50/390/31 46/392/31 48/391/31
f 46/392/31 42/394/31 44/393/31
f 42/394/31 38/62/31 40/395/31
f 38/62/31 34/397/31 36/396/31
f 34/397/31 30/399/31 32/398/31
f 30/399/31 26/401/31 28/400/31
f 26/401/31 22/63/31 24/402/31
f 22/63/31 18/404/31 20/403/31
f 18/404/31 14/406/31 16/405/31
f 14/406/31 10/408/31 12/407/31
f 10/408/31 6/64/31 8/409/31
f 6/64/31 62/384/31 2/382/31
f 62/384/31 54/388/31 58/386/31
f 54/388/31 46/392/31 50/390/31
f 46/392/31 38/62/31 42/394/31
f 38/62/31 30/399/31 34/397/31
f 30/399/31 22/63/31 26/401/31
f 22/63/31 14/406/31 18/404/31
f 14/406/31 6/64/31 10/408/31
f 6/64/31 54/388/31 62/384/31
f 54/388/31 38/62/31 46/392/31
f 38/62/31 22/63/31 30/399/31
f 22/63/31 6/64/31 14/406/31
f 6/64/31 38/62/31 54/388/31
f 62/65/32 63/66/32 64/67/32
f 64/67/33 1/68/33 2/410/33
f 63/71/34 3/412/34 1/411/34
f 3/412/34 7/414/34 5/413/34
f 7/414/34 11/416/34 9/415/34
f 11/416/34 15/418/34 13/417/34
f 15/418/34 19/420/34 17/419/34
f 19/420/34 23/422/34 21/421/34
f 23/422/34 27/424/34 25/423/34
f 27/424/34 31/69/34 29/425/34
f 31/69/34 35/427/34 33/426/34
f 35/427/34 39/429/34 37/428/34
f 39/429/34 43/431/34 41/430/34
f 43/431/34 47/70/34 45/432/34
f 47/70/34 51/434/34 49/433/34
f 51/434/34 55/436/34 53/435/34
f 55/436/34 59/438/34 57/437/34
f 59/438/34 63/71/34 61/439/34
f 63/71/34 7/414/34 3/412/34
f 7/414/34 15/418/34 11/416/34
f 15/418/34 23/422/34 19/420/34
f 23/422/34 31/69/34 27/424/34
f 31/69/34 39/429/34 35/427/34
f 39/429/34 47/70/34 43/431/34
f 47/70/34 55/436/34 51/434/34
f 55/436/34 63/71/34 59/438/34
f 63/71/34 15/418/34 7/414/34
f 15/418/34 31/69/34 23/422/34
f 31/69/34 47/70/34 39/429/34
f 47/70/34 63/71/34 55/436/34
f 63/71/34 31/69/34 15/418/34
f 66/1/1 67/2/1 68/4/1
f 68/4/2 69/5/2 70/6/2
f 70/6/3 71/7/3 72/8/3
f 72/8/4 73/9/4 74/10/4
f 74/10/5 75/11/5 76/12/5
f 76/12/6 77/13/6 78/14/6
f 78/14/7 79/15/7 80/16/7
f 80/16/8 81/17/8 82/18/8
f 82/18/9 83/19/9 84/20/9
f 84/20/10 85/21/10 86/22/10
f 86/22/11 87/23/11 88/24/11
f 88/24/12 89/25/12 90/26/12
f 90/26/13 91/27/13 92/28/13
f 92/28/14 93/29/14 94/30/14
f 94/30/15 95/31/15 96/32/15
f 96/32/16 97/33/16 98/34/16
f 98/34/17 99/35/17 100/36/17
f 100/36/18 101/37/18 102/38/18
f 102/38/19 103/39/19 104/40/19
f 104/40/20 105/41/20 106/42/20
f 106/42/21 107/43/21 108/44/21
f 108/44/22 109/45/22 110/46/22
f 110/46/23 111/47/23 112/48/23
f 112/48/24 113/49/24 114/50/24
f 114/50/25 115/51/25 116/52/25
f 116/52/26 117/53/26 118/54/26
f 118/54/27 119/55/27 120/56/27
f 120/56/28 121/57/28 122/58/28
f 122/58/29 123/59/29 124/60/29
f 124/60/30 125/61/30 126/65/30
f 70/64/31 66/382/31 68/381/31
f 66/382/31 126/384/31 128/383/31
f 126/384/31 122/386/31 124/385/31
f 122/386/31 118/388/31 120/387/31
f 118/388/31 114/390/31 116/389/31
f 114/390/31 110/392/31 112/391/31
f 110/392/31 106/394/31 108/393/31
f 106/394/31 102/62/31 104/395/31
f 102/62/31 98/397/31 100/396/31
f 98/397/31 94/399/31 96/398/31
f 94/399/31 90/401/31 92/400/31
f 90/401/31 86/63/31 88/402/31
f 86/63/31 82/404/31 84/403/31
f 82/404/31 78/406/31 80/405/31
f 78/406/31 74/408/31 76/407/31
f 74/408/31 70/64/31 72/409/31
f 70/64/31 126/384/31 66/382/31
f 126/384/31 118/388/31 122/386/31
f 118/388/31 110/392/31 114/390/31
f 110/392/31 102/62/31 106/394/31
f 102/62/31 94/399/31 98/397/31
f 94/399/31 86/63/31 90/401/31
f 86/63/31 78/406/31 82/404/31
f 78/406/31 70/64/31 74/408/31
f 70/64/31 118/388/31 126/384/31
f 118/388/31 102/62/31 110/392/31
f 102/62/31 86/63/31 94/399/31
f 86/63/31 70/64/31 78/406/31
f 70/64/31 102/62/31 118/388/31
f 126/65/32 127/66/32 128/67/32
f 128/67/33 65/68/33 66/410/33
f 127/71/34 67/412/34 65/411/34
f 67/412/34 71/414/34 69/413/34
f 71/414/361 75/416/361 73/415/361
f 75/416/34 79/418/34 77/417/34
f 79/418/34 83/420/34 81/419/34
f 83/420/34 87/422/34 85/421/34
f 87/422/361 91/424/361 89/423/361
f 91/424/34 95/69/34 93/425/34
f 95/69/34 99/427/34 97/426/34
f 99/427/34 103/429/34 101/428/34
f 103/429/362 107/431/362 105/430/362
f 107/431/34 111/70/34 109/432/34
f 111/70/34 115/434/34 113/433/34
f 115/434/34 119/436/34 117/435/34
f 119/436/363 123/438/363 121/437/363
f 123/438/34 127/71/34 125/439/34
f 127/71/34 71/414/34 67/412/34
f 71/414/34 79/418/34 75/416/34
f 79/418/34 87/422/34 83/420/34
f 87/422/34 95/69/34 91/424/34
f 95/69/34 103/429/34 99/427/34
f 103/429/34 111/70/34 107/431/34
f 111/70/34 119/436/34 115/434/34
f 119/436/34 127/71/34 123/438/34
f 127/71/34 79/418/34 71/414/34
f 79/418/34 95/69/34 87/422/34
f 95/69/34 111/70/34 103/429/34
f 111/70/34 127/71/34 119/436/34
f 127/71/34 95/69/34 79/418/34
f 130/1/1 131/2/1 132/4/1
f 132/4/2 133/5/2 134/6/2
f 134/6/3 135/7/3 136/8/3
f 136/8/4 137/9/4 138/10/4
f 138/10/5 139/11/5 140/12/5
f 140/12/6 141/13/6 142/14/6
f 142/14/7 143/15/7 144/16/7
f 144/16/8 145/17/8 146/18/8
f 146/18/9 147/19/9 148/20/9
f 148/20/10 149/21/10 150/22/10
f 150/22/11 151/23/11 152/24/11
f 152/24/12 153/25/12 154/26/12
f 154/26/13 155/27/13 156/28/13
f 156/28/14 157/29/14 158/30/14
f 158/30/15 159/31/15 160/32/15
f 160/32/16 161/33/16 162/34/16
f 162/34/17 163/35/17 164/36/17
f 164/36/18 165/37/18 166/38/18
f 166/38/19 167/39/19 168/40/19
f 168/40/20 169/41/20 170/42/20
f 170/42/21 171/43/21 172/44/21
f 172/44/22 173/45/22 174/46/22
f 174/46/23 175/47/23 176/48/23
f 176/48/24 177/49/24 178/50/24
f 178/50/25 179/51/25 180/52/25
f 180/52/26 181/53/26 182/54/26
f 182/54/27 183/55/27 184/56/27
f 184/56/28 185/57/28 186/58/28
f 186/58/29 187/59/29 188/60/29
f 188/60/30 189/61/30 190/65/30
f 134/64/31 130/382/31 132/381/31
f 130/382/31 190/384/31 192/383/31
f 190/384/31 186/386/31 188/385/31
f 186/386/31 182/388/31 184/387/31
f 182/388/31 178/390/31 180/389/31
f 178/390/31 174/392/31 176/391/31
f 174/392/31 170/394/31 172/393/31
f 170/394/31 166/62/31 168/395/31
f 166/62/31 162/397/31 164/396/31
f 162/397/31 158/399/31 160/398/31
f 158/399/31 154/401/31 156/400/31
f 154/401/31 150/63/31 152/402/31
f 150/63/31 146/404/31 148/403/31
f 146/404/31 142/406/31 144/405/31
f 142/406/31 138/408/31 140/407/31
f 138/408/31 134/64/31 136/409/31
f 134/64/31 190/384/31 130/382/31
f 190/384/31 182/388/31 186/386/31
f 182/388/31 174/392/31 178/390/31
f 174/392/31 166/62/31 170/394/31
f 166/62/31 158/399/31 162/397/31
f 158/399/31 150/63/31 154/401/31
f 150/63/31 142/406/31 146/404/31
f 142/406/31 134/64/31 138/408/31
f 134/64/31 182/388/31 190/384/31
f 182/388/31 166/62/31 174/392/31
f 166/62/31 150/63/31 158/399/31
f 150/63/31 134/64/31 142/406/31
f 134/64/31 166/62/31 182/388/31
f 190/65/32 191/66/32 192/67/32
f 192/67/33 129/68/33 130/410/33
f 191/71/34 131/412/34 129/411/34
f 131/412/34 135/414/34 133/413/34
f 135/414/361 139/416/361 137/415/361
f 139/416/34 143/418/34 141/417/34
f 143/418/34 147/420/34 145/419/34
f 147/420/34 151/422/34 149/421/34
f 151/422/361 155/424/361 153/423/361
f 155/424/34 159/69/34 157/425/34
f 159/69/34 163/427/34 161/426/34
f 163/427/34 167/429/34 165/428/34
f 167/429/362 171/431/362 169/430/362
f 171/431/34 175/70/34 173/432/34
f 175/70/34 179/434/34 177/433/34
f 179/434/34 183/436/34 181/435/34
f 183/436/363 187/438/363 185/437/363
f 187/438/34 191/71/34 189/439/34
f 191/71/34 135/414/34 131/412/34
f 135/414/34 143/418/34 139/416/34
f 143/418/34 151/422/34 147/420/34
f 151/422/34 159/69/34 155/424/34
f 159/69/34 167/429/34 163/427/34
f 167/429/34 175/70/34 171/431/34
f 175/70/34 183/436/34 179/434/34
f 183/436/34 191/71/34 187/438/34
f 191/71/34 143/418/34 135/414/34
f 143/418/34 159/69/34 151/422/34
f 159/69/34 175/70/34 167/429/34
f 175/70/34 191/71/34 183/436/34
f 191/71/34 159/69/34 143/418/34
f 205/72/35 194/73/35 206/74/35
f 206/74/36 195/75/36 207/76/36
f 207/76/37 196/77/37 208/78/37
f 208/78/38 197/79/38 209/80/38
f 209/80/39 198/81/39 210/82/39
f 210/82/40 199/34/40 211/100/40
f 199/83/41 212/84/41 211/101/41
f 200/85/42 213/86/42 212/84/42
f 201/87/43 214/88/43 213/86/43
f 202/89/44 215/90/44 214/88/44
f 203/91/45 216/92/45 215/90/45
f 204/93/46 205/72/46 216/92/46
f 217/94/47 206/74/47 218/95/47
f 218/95/48 207/76/48 219/96/48
f 219/96/49 208/78/49 220/97/49
f 220/97/50 209/80/50 221/98/50
f 221/98/51 210/82/51 222/99/51
f 222/99/52 211/100/52 223/112/52
f 211/101/364 224/102/364 223/113/364
f 212/84/54 225/103/54 224/102/54
f 213/86/55 226/104/55 225/103/55
f 214/88/56 227/105/56 226/104/56
f 215/90/57 228/106/57 227/105/57
f 216/92/58 217/94/58 228/106/58
f 229/29/59 218/95/59 230/107/59
f 230/107/60 219/96/60 231/108/60
f 231/108/61 220/97/61 232/109/61
f 232/109/62 221/98/62 233/110/62
f 233/110/63 222/99/63 234/111/63
f 234/111/64 223/112/64 235/30/64
f 223/113/65 236/114/65 235/125/65
f 224/102/66 237/115/66 236/114/66
f 225/103/67 238/116/67 237/115/67
f 226/104/68 239/117/68 238/116/68
f 227/105/69 240/118/69 239/117/69
f 228/106/70 229/29/70 240/118/70
f 241/119/365 230/107/365 242/120/365
f 242/120/72 231/108/72 243/121/72
f 243/121/73 232/109/73 244/122/73
f 244/122/74 233/110/74 245/123/74
f 245/123/75 234/111/75 246/124/75
f 246/124/76 235/30/76 247/137/76
f 235/125/77 248/126/77 247/138/77
f 236/114/78 249/127/78 248/126/78
f 237/115/79 250/128/79 249/127/79
f 238/116/80 251/129/80 250/128/80
f 239/117/81 252/130/81 251/129/81
f 240/118/82 241/119/82 252/130/82
f 253/131/83 242/120/83 254/132/83
f 254/132/84 243/121/84 255/133/84
f 255/133/85 244/122/85 256/134/85
f 256/134/86 245/123/86 257/135/86
f 257/135/87 246/124/87 258/136/87
f 258/136/88 247/137/88 259/149/88
f 247/138/89 260/139/89 259/150/89
f 248/126/90 261/140/90 260/139/90
f 249/127/91 262/141/91 261/140/91
f 250/128/92 263/142/92 262/141/92
f 251/129/93 264/143/93 263/142/93
f 252/130/94 253/131/94 264/143/94
f 265/25/95 254/132/95 266/144/95
f 266/144/96 255/133/96 267/145/96
f 267/145/97 256/134/97 268/146/97
f 268/146/98 257/135/98 269/147/98
f 269/147/366 258/136/366 270/148/366
f 270/148/100 259/149/100 271/26/100
f 259/150/101 272/151/101 271/162/101
f 260/139/367 273/152/367 272/151/367
f 261/140/103 274/153/103 273/152/103
f 262/141/104 275/154/104 274/153/104
f 263/142/105 276/155/105 275/154/105
f 264/143/106 265/25/106 276/155/106
f 277/156/107 266/144/107 278/157/107
f 278/157/368 267/145/368 279/158/368
f 279/158/109 268/146/109 280/159/109
f 280/159/110 269/147/110 281/160/110
f 281/160/111 270/148/111 282/161/111
f 282/161/112 271/26/112 283/174/112
f 271/162/113 284/163/113 283/175/113
f 272/151/114 285/164/114 284/163/114
f 273/152/115 286/165/115 285/164/115
f 274/153/116 287/166/116 286/165/116
f 275/154/369 288/167/369 287/166/369
f 276/155/118 277/156/118 288/167/118
f 289/168/119 278/157/119 290/169/119
f 290/169/120 279/158/120 291/170/120
f 291/170/121 280/159/121 292/171/121
f 292/171/122 281/160/122 293/172/122
f 293/172/123 282/161/123 294/173/123
f 294/173/124 283/174/124 295/186/124
f 283/175/125 296/176/125 295/187/125
f 284/163/126 297/177/126 296/176/126
f 285/164/127 298/178/127 297/177/127
f 286/165/128 299/179/128 298/178/128
f 287/166/129 300/180/129 299/179/129
f 288/167/130 289/168/130 300/180/130
f 301/21/131 290/169/131 302/181/131
f 302/181/132 291/170/132 303/182/132
f 303/182/133 292/171/133 304/183/133
f 304/183/134 293/172/134 305/184/134
f 305/184/135 294/173/135 306/185/135
f 306/185/136 295/186/136 307/22/136
f 295/187/137 308/188/137 307/199/137
f 296/176/138 309/189/138 308/188/138
f 297/177/139 310/190/139 309/189/139
f 298/178/140 311/191/140 310/190/140
f 299/179/141 312/192/141 311/191/141
f 300/180/142 301/21/142 312/192/142
f 313/193/143 302/181/143 314/194/143
f 314/194/144 303/182/144 315/195/144
f 315/195/145 304/183/145 316/196/145
f 316/196/146 305/184/146 317/197/146
f 317/197/147 306/185/147 318/198/147
f 318/198/148 307/22/148 319/211/148
f 307/199/149 320/200/149 319/212/149
f 308/188/150 321/201/150 320/200/150
f 309/189/151 322/202/151 321/201/151
f 310/190/152 323/203/152 322/202/152
f 311/191/153 324/204/153 323/203/153
f 312/192/154 313/193/154 324/204/154
f 325/205/370 314/194/370 326/206/370
f 326/206/156 315/195/156 327/207/156
f 327/207/157 316/196/157 328/208/157
f 328/208/158 317/197/158 329/209/158
f 329/209/159 318/198/159 330/210/159
f 330/210/160 319/211/160 331/223/160
f 319/212/161 332/213/161 331/224/161
f 320/200/162 333/214/162 332/213/162
f 321/201/163 334/215/163 333/214/163
f 322/202/164 335/216/164 334/215/164
f 323/203/165 336/217/165 335/216/165
f 324/204/371 325/205/371 336/217/371
f 337/17/167 326/206/167 338/218/167
f 338/218/168 327/207/168 339/219/168
f 339/219/169 328/208/169 340/220/169
f 340/220/170 329/209/170 341/221/170
f 341/221/171 330/210/171 342/222/171
f 342/222/172 331/223/172 343/18/172
f 331/224/173 344/225/173 343/440/173
f 332/213/174 345/226/174 344/225/174
f 333/214/175 346/227/175 345/226/175
f 334/215/176 347/228/176 346/227/176
f 335/216/177 348/229/177 347/228/177
f 336/217/178 337/17/178 348/229/178
f 349/49/179 362/230/179 361/253/179
f 350/231/180 363/232/180 362/230/180
f 351/233/181 364/234/181 363/232/181
f 352/235/182 365/236/182 364/234/182
f 353/237/183 366/238/183 365/236/183
f 354/239/184 367/240/184 366/238/184
f 367/241/185 356/242/185 368/244/185
f 368/244/186 357/245/186 369/246/186
f 369/246/187 358/247/187 370/248/187
f 370/248/188 359/249/188 371/250/188
f 371/250/189 360/251/189 372/252/189
f 372/252/190 349/49/190 361/253/190
f 361/253/372 374/254/372 373/266/372
f 362/230/192 375/255/192 374/254/192
f 363/232/193 376/256/193 375/255/193
f 364/234/194 377/257/194 376/256/194
f 365/236/195 378/258/195 377/257/195
f 366/238/196 379/259/196 378/258/196
f 379/260/197 368/244/197 380/261/197
f 380/261/373 369/246/373 381/262/373
f 381/262/199 370/248/199 382/263/199
f 382/263/200 371/250/200 383/264/200
f 383/264/201 372/252/201 384/265/201
f 384/265/374 361/253/374 373/266/374
f 373/266/203 386/267/203 385/45/203
f 374/254/204 387/268/204 386/267/204
f 375/255/205 388/269/205 387/268/205
f 376/256/206 389/270/206 388/269/206
f 377/257/207 390/271/207 389/270/207
f 378/258/208 391/46/208 390/271/208
f 391/272/209 380/261/209 392/273/209
f 392/273/210 381/262/210 393/274/210
f 393/274/211 382/263/211 394/275/211
f 394/275/212 383/264/212 395/276/212
f 395/276/213 384/265/213 396/277/213
f 396/277/214 373/266/214 385/45/214
f 385/45/215 398/278/215 397/290/215
f 386/267/216 399/279/216 398/278/216
f 387/268/217 400/280/217 399/279/217
f 388/269/218 401/281/218 400/280/218
f 389/270/219 402/282/219 401/281/219
f 390/271/220 403/283/220 402/282/220
f 403/284/221 392/273/221 404/285/221
f 404/285/222 393/274/222 405/286/222
f 405/286/223 394/275/223 406/287/223
f 406/287/224 395/276/224 407/288/224
f 407/288/225 396/277/225 408/289/225
f 408/289/226 385/45/226 397/290/226
f 397/290/227 410/291/227 409/303/227
f 398/278/228 411/292/228 410/291/228
f 399/279/229 412/293/229 411/292/229
f 400/280/230 413/294/230 412/293/230
f 401/281/231 414/295/231 413/294/231
f 402/282/232 415/296/232 414/295/232
f 415/297/233 404/285/233 416/298/233
f 416/298/234 405/286/234 417/299/234
f 417/299/235 406/287/235 418/300/235
f 418/300/236 407/288/236 419/301/236
f 419/301/237 408/289/237 420/302/237
f 420/302/238 397/290/238 409/303/238
f 409/303/239 422/304/239 421/41/239
f 410/291/375 423/305/375 422/304/375
f 411/292/241 424/306/241 423/305/241
f 412/293/242 425/307/242 424/306/242
f 413/294/243 426/308/243 425/307/243
f 414/295/244 427/42/244 426/308/244
f 427/309/245 416/298/245 428/310/245
f 428/310/246 417/299/246 429/311/246
f 429/311/247 418/300/247 430/312/247
f 430/312/248 419/301/248 431/313/248
f 431/313/376 420/302/376 432/314/376
f 432/314/250 409/303/250 421/41/250
f 421/41/251 434/315/251 433/327/251
f 422/304/252 435/316/252 434/315/252
f 423/305/253 436/317/253 435/316/253
f 424/306/254 437/318/254 436/317/254
f 425/307/255 438/319/255 437/318/255
f 426/308/256 439/320/256 438/319/256
f 439/321/257 428/310/257 440/322/257
f 440/322/377 429/311/377 441/323/377
f 441/323/259 430/312/259 442/324/259
f 442/324/260 431/313/260 443/325/260
f 443/325/261 432/314/261 444/326/261
f 444/326/262 421/41/262 433/327/262
f 433/327/263 446/328/263 445/340/263
f 434/315/264 447/329/264 446/328/264
f 435/316/265 448/330/265 447/329/265
f 436/317/266 449/331/266 448/330/266
f 437/318/267 450/332/267 449/331/267
f 438/319/268 451/333/268 450/332/268
f 451/334/269 440/322/269 452/335/269
f 452/335/270 441/323/270 453/336/270
f 453/336/271 442/324/271 454/337/271
f 454/337/272 443/325/272 455/338/272
f 455/338/273 444/326/273 456/339/273
f 456/339/274 433/327/274 445/340/274
f 445/340/275 458/341/275 457/37/275
f 446/328/276 459/342/276 458/341/276
f 447/329/277 460/343/277 459/342/277
f 448/330/278 461/344/278 460/343/278
f 449/331/279 462/345/279 461/344/279
f 450/332/280 463/38/280 462/345/280
f 463/346/281 452/335/281 464/347/281
f 464/347/282 453/336/282 465/348/282
f 465/348/283 454/337/283 466/349/283
f 466/349/284 455/338/284 467/350/284
f 467/350/285 456/339/285 468/351/285
f 468/351/286 445/340/286 457/37/286
f 457/37/287 470/352/287 469/364/287
f 458/341/288 471/353/288 470/352/288
f 459/342/289 472/354/289 471/353/289
f 460/343/290 473/355/290 472/354/290
f 461/344/291 474/356/291 473/355/291
f 462/345/292 475/357/292 474/356/292
f 475/358/293 464/347/293 476/359/293
f 476/359/294 465/348/294 477/360/294
f 477/360/295 466/349/295 478/361/295
f 478/361/296 467/350/296 479/362/296
f 479/362/297 468/351/297 480/363/297
f 480/363/298 457/37/298 469/364/298
f 469/364/299 482/365/299 481/377/299
f 470/352/300 483/366/300 482/365/300
f 471/353/301 484/367/301 483/366/301
f 472/354/302 485/368/302 484/367/302
f 473/355/303 486/369/303 485/368/303
f 474/356/378 487/370/378 486/369/378
f 487/371/379 476/359/379 488/372/379
f 488/372/306 477/360/306 489/373/306
f 489/373/307 478/361/307 490/374/307
f 490/374/308 479/362/308 491/375/308
f 491/375/309 480/363/309 492/376/309
f 492/376/310 469/364/310 481/377/310
f 481/377/311 194/73/311 193/33/311
f 482/365/312 195/75/312 194/73/312
f 483/366/313 196/77/313 195/75/313
f 484/367/314 197/79/314 196/77/314
f 485/368/315 198/81/315 197/79/315
f 486/369/316 199/34/316 198/81/316
f 199/83/317 488/372/317 200/85/317
f 200/85/318 489/373/318 201/87/318
f 201/87/319 490/374/319 202/89/319
f 202/89/320 491/375/320 203/91/320
f 203/91/321 492/376/321 204/93/321
f 204/93/322 481/377/322 193/33/322
f 494/378/323 495/312/323 496/153/323
f 496/153/324 499/41/324 500/25/324
f 500/25/325 497/306/325 498/146/325
f 498/146/326 493/42/326 494/26/326
f 499/41/34 493/380/34 497/306/34
f 496/9/31 498/146/31 494/441/31
f 515/38/19 516/39/19 517/40/19
f 517/40/20 518/41/20 519/42/20
f 519/42/21 520/43/21 521/44/21
f 521/44/22 522/45/22 523/46/22
f 523/46/23 524/47/23 525/48/23
f 525/48/24 526/49/24 527/50/24
f 527/50/25 528/51/25 529/52/25
f 529/52/26 530/53/26 531/54/26
f 531/54/27 532/55/27 533/56/27
f 533/56/28 534/57/28 535/58/28
f 535/58/29 536/59/29 537/60/29
f 537/60/30 538/61/30 539/65/30
f 539/65/32 540/66/32 541/67/32
f 541/67/33 501/68/33 502/410/33
f 543/1/327 544/2/327 545/4/327
f 545/4/328 546/5/328 547/6/328
f 547/6/380 548/7/380 549/8/380
f 549/8/359 550/9/359 551/10/359
f 551/10/331 552/11/331 553/12/331
f 553/12/332 554/13/332 555/14/332
f 555/14/333 556/15/333 557/16/333
f 557/16/334 558/17/334 559/18/334
f 559/18/335 560/19/335 561/20/335
f 561/20/336 562/21/336 563/22/336
f 563/22/337 564/23/337 565/24/337
f 565/24/338 566/25/338 567/26/338
f 567/26/339 568/27/339 569/28/339
f 569/28/340 570/29/340 571/30/340
f 571/30/341 572/31/341 573/32/341
f 573/32/342 574/33/342 575/34/342
f 575/34/343 576/35/343 577/36/343
f 577/36/344 578/37/344 579/38/344
f 579/38/345 580/39/345 581/40/345
f 581/40/346 582/41/346 583/42/346
f 583/42/347 584/43/347 585/44/347
f 585/44/348 586/45/348 587/46/348
f 587/46/349 588/47/349 589/48/349
f 589/48/350 590/49/350 591/50/350
f 591/50/381 592/51/381 593/52/381
f 593/52/352 594/53/352 595/54/352
f 595/54/353 596/55/353 597/56/353
f 597/56/354 598/57/354 599/58/354
f 599/58/355 600/59/355 601/60/355
f 601/60/356 602/61/356 603/65/356
f 547/64/31 543/382/31 545/381/31
f 543/382/31 603/384/31 605/383/31
f 603/384/31 599/386/31 601/385/31
f 599/386/31 595/388/31 597/387/31
f 595/388/31 591/390/31 593/389/31
f 591/390/31 587/392/31 589/391/31
f 587/392/31 583/394/31 585/393/31
f 583/394/31 579/62/31 581/395/31
f 579/62/31 575/397/31 577/396/31
f 575/397/31 571/399/31 573/398/31
f 571/399/31 567/401/31 569/400/31
f 567/401/31 563/63/31 565/402/31
f 563/63/31 559/404/31 561/403/31
f 559/404/31 555/406/31 557/405/31
f 555/406/31 551/408/31 553/407/31
f 551/408/31 547/64/31 549/409/31
f 547/64/31 603/384/31 543/382/31
f 603/384/31 595/388/31 599/386/31
f 595/388/31 587/392/31 591/390/31
f 587/392/31 579/62/31 583/394/31
f 579/62/31 571/399/31 575/397/31
f 571/399/31 563/63/31 567/401/31
f 563/63/31 555/406/31 559/404/31
f 555/406/31 547/64/31 551/408/31
f 547/64/31 595/388/31 603/384/31
f 595/388/31 579/62/31 587/392/31
f 579/62/31 563/63/31 571/399/31
f 563/63/31 547/64/31 555/406/31
f 547/64/31 579/62/31 595/388/31
f 603/65/357 604/66/357 605/67/357
f 605/67/358 542/68/358 543/410/358
f 604/71/34 544/412/34 542/411/34
f 544/412/34 548/414/34 546/413/34
f 548/414/34 552/416/34 550/415/34
f 552/416/34 556/418/34 554/417/34
f 556/418/34 560/420/34 558/419/34
f 560/420/34 564/422/34 562/421/34
f 564/422/34 568/424/34 566/423/34
f 568/424/34 572/69/34 570/425/34
f 572/69/34 576/427/34 574/426/34
f 576/427/34 580/429/34 578/428/34
f 580/429/34 584/431/34 582/430/34
f 584/431/34 588/70/34 586/432/34
f 588/70/34 592/434/34 590/433/34
f 592/434/34 596/436/34 594/435/34
f 596/436/34 600/438/34 598/437/34
f 600/438/34 604/71/34 602/439/34
f 604/71/34 548/414/34 544/412/34
f 548/414/34 556/418/34 552/416/34
f 556/418/34 564/422/34 560/420/34
f 564/422/34 572/69/34 568/424/34
f 572/69/34 580/429/34 576/427/34
f 580/429/34 588/70/34 584/431/34
f 588/70/34 596/436/34 592/434/34
f 596/436/34 604/71/34 600/438/34
f 604/71/34 556/418/34 548/414/34
f 556/418/34 572/69/34 564/422/34
f 572/69/34 588/70/34 580/429/34
f 588/70/34 604/71/34 596/436/34
f 604/71/34 572/69/34 556/418/34
f 607/1/327 608/2/327 609/4/327
f 609/4/328 610/5/328 611/6/328
f 611/6/329 612/7/329 613/8/329
f 613/8/359 614/9/359 615/10/359
f 615/10/331 616/11/331 617/12/331
f 617/12/332 618/13/332 619/14/332
f 619/14/333 620/15/333 621/16/333
f 621/16/334 622/17/334 623/18/334
f 623/18/360 624/19/360 625/20/360
f 625/20/336 626/21/336 627/22/336
f 627/22/337 628/23/337 629/24/337
f 629/24/338 630/25/338 631/26/338
f 631/26/339 632/27/339 633/28/339
f 633/28/340 634/29/340 635/30/340
f 635/30/341 636/31/341 637/32/341
f 637/32/342 638/33/342 639/34/342
f 639/34/343 640/35/343 641/36/343
f 641/36/344 642/37/344 643/38/344
f 643/38/345 644/39/345 645/40/345
f 645/40/346 646/41/346 647/42/346
f 647/42/347 648/43/347 649/44/347
f 649/44/348 650/45/348 651/46/348
f 651/46/349 652/47/349 653/48/349
f 653/48/350 654/49/350 655/50/350
f 655/50/351 656/51/351 657/52/351
f 657/52/352 658/53/352 659/54/352
f 659/54/353 660/55/353 661/56/353
f 661/56/354 662/57/354 663/58/354
f 663/58/355 664/59/355 665/60/355
f 665/60/356 666/61/356 667/65/356
f 611/64/31 607/382/31 609/381/31
f 607/382/31 667/384/31 669/383/31
f 667/384/31 663/386/31 665/385/31
f 663/386/31 659/388/31 661/387/31
f 659/388/31 655/390/31 657/389/31
f 655/390/31 651/392/31 653/391/31
f 651/392/31 647/394/31 649/393/31
f 647/394/31 643/62/31 645/395/31
f 643/62/31 639/397/31 641/396/31
f 639/397/31 635/399/31 637/398/31
f 635/399/31 631/401/31 633/400/31
f 631/401/31 627/63/31 629/402/31
f 627/63/31 623/404/31 625/403/31
f 623/404/31 619/406/31 621/405/31
f 619/406/31 615/408/31 617/407/31
f 615/408/31 611/64/31 613/409/31
f 611/64/31 667/384/31 607/382/31
f 667/384/31 659/388/31 663/386/31
f 659/388/31 651/392/31 655/390/31
f 651/392/31 643/62/31 647/394/31
f 643/62/31 635/399/31 639/397/31
f 635/399/31 627/63/31 631/401/31
f 627/63/31 619/406/31 623/404/31
f 619/406/31 611/64/31 615/408/31
f 611/64/31 659/388/31 667/384/31
f 659/388/31 643/62/31 651/392/31
f 643/62/31 627/63/31 635/399/31
f 627/63/31 611/64/31 619/406/31
f 611/64/31 643/62/31 659/388/31
f 667/65/357 668/66/357 669/67/357
f 669/67/358 606/68/358 607/410/358
f 668/71/34 608/412/34 606/411/34
f 608/412/34 612/414/34 610/413/34
f 612/414/34 616/416/34 614/415/34
f 616/416/34 620/418/34 618/417/34
f 620/418/34 624/420/34 622/419/34
f 624/420/34 628/422/34 626/421/34
f 628/422/34 632/424/34 630/423/34
f 632/424/34 636/69/34 634/425/34
f 636/69/34 640/427/34 638/426/34
f 640/427/34 644/429/34 642/428/34
f 644/429/34 648/431/34 646/430/34
f 648/431/34 652/70/34 650/432/34
f 652/70/34 656/434/34 654/433/34
f 656/434/34 660/436/34 658/435/34
f 660/436/34 664/438/34 662/437/34
f 664/438/34 668/71/34 666/439/34
f 668/71/34 612/414/34 608/412/34
f 612/414/34 620/418/34 616/416/34
f 620/418/34 628/422/34 624/420/34
f 628/422/34 636/69/34 632/424/34
f 636/69/34 644/429/34 640/427/34
f 644/429/34 652/70/34 648/431/34
f 652/70/34 660/436/34 656/434/34
f 660/436/34 668/71/34 664/438/34
f 668/71/34 620/418/34 612/414/34
f 620/418/34 636/69/34 628/422/34
f 636/69/34 652/70/34 644/429/34
f 652/70/34 668/71/34 660/436/34
f 668/71/34 636/69/34 620/418/34
l 501 503
l 505 504
l 506 505
l 507 506
l 508 507
l 509 508
l 510 509
l 511 510
l 512 511
l 513 512
l 515 513
