# Blender 4.5.3 LTS
# www.blender.org
mtllib gateIzq.mtl
g GATE_IZQ_Mesh
v -1.980109 0.205538 0.075963
v 0.032006 0.205538 0.075963
v 0.032006 0.205538 0.022911
v -1.980109 0.205538 0.022911
v 0.032006 0.251413 0.022911
v -1.980108 0.251414 0.022911
v 0.032006 0.251413 0.075963
v -1.980108 0.251414 0.075963
v -1.980109 0.400296 0.075963
v 0.032006 0.400296 0.075963
v 0.032006 0.400296 0.022911
v -1.980109 0.400296 0.022911
v 0.032005 0.446172 0.022911
v -1.980109 0.446173 0.022911
v 0.032005 0.446172 0.075963
v -1.980109 0.446173 0.075963
v -1.980109 2.164741 0.075963
v 0.032006 2.164741 0.075963
v 0.032006 2.164741 0.022911
v -1.980109 2.164741 0.022911
v 0.032006 2.210617 0.022911
v -1.980109 2.210617 0.022911
v 0.032006 2.210617 0.075963
v -1.980109 2.210617 0.075963
v -1.983448 1.409930 0.075963
v 0.032005 1.409930 0.075963
v 0.032005 1.409930 0.022911
v -1.983448 1.409930 0.022911
v 0.032005 1.455805 0.022911
v -1.983448 1.455805 0.022911
v 0.032005 1.455805 0.075963
v -1.983448 1.455805 0.075963
v -1.684994 3.298899 -0.023888
v -1.640480 3.139876 -0.023888
v -1.640480 3.139876 -0.076940
v -1.684994 3.298899 -0.076940
v -1.596302 3.152243 -0.076940
v -1.640817 3.311267 -0.076940
v -1.596302 3.152243 -0.023888
v -1.640817 3.311267 -0.023888
v -1.571695 3.010891 -0.023888
v -1.571695 3.010891 -0.076940
v -1.504596 3.008190 -0.076940
v -1.523561 2.969349 -0.076940
v -1.475428 2.953896 -0.076940
v -1.470274 2.999481 -0.076940
v -1.538918 3.042989 -0.023888
v -1.538918 3.042989 -0.076940
v -1.420169 2.999956 -0.023888
v -1.420169 2.999956 -0.076940
v -1.374722 3.022172 -0.076940
v -1.374722 3.022172 -0.023888
v -1.504596 3.008190 -0.023888
v -1.470274 2.999481 -0.023888
v -1.523561 2.969349 -0.023888
v -1.475428 2.953896 -0.023888
v -1.275629 3.040507 -0.023888
v -1.301071 3.076538 -0.023888
v -1.260963 3.155130 -0.023888
v -1.225218 3.126373 -0.023888
v -1.415177 2.955510 -0.076940
v -1.415177 2.955510 -0.023888
v -1.359585 2.978866 -0.023888
v -1.359585 2.978866 -0.076940
v -1.248891 3.225468 -0.023888
v -1.248891 3.225468 -0.076940
v -1.258562 3.295806 -0.076940
v -1.258562 3.295806 -0.023888
v -1.301071 3.076538 -0.076940
v -1.275629 3.040507 -0.076940
v -1.225218 3.126373 -0.076940
v -1.260963 3.155130 -0.076940
v -1.333165 3.416903 -0.023888
v -1.333165 3.416903 -0.076940
v -1.441934 3.522470 -0.076940
v -1.441934 3.522470 -0.023888
v -1.208089 3.210499 -0.076940
v -1.208089 3.210499 -0.023888
v -1.212700 3.294625 -0.023888
v -1.212700 3.294625 -0.076940
v -1.530113 3.605520 -0.023888
v -1.544038 3.564678 -0.023888
v -1.653595 3.575207 -0.023888
v -1.654417 3.621074 -0.023888
v -1.295900 3.434220 -0.076940
v -1.295900 3.434220 -0.023888
v -1.413264 3.558285 -0.023888
v -1.413264 3.558285 -0.076940
v -1.743717 3.535499 -0.023888
v -1.743717 3.535499 -0.076939
v -1.822967 3.467841 -0.076939
v -1.822967 3.467841 -0.023888
v -1.544038 3.564678 -0.076940
v -1.530113 3.605520 -0.076940
v -1.654417 3.621074 -0.076940
v -1.653595 3.575207 -0.076939
v -1.914389 3.389978 -0.076939
v -1.914389 3.389978 -0.023888
v -1.946911 3.278187 -0.023888
v -1.946911 3.278187 -0.076939
v -1.760532 3.574467 -0.076940
v -1.760532 3.574467 -0.023888
v -1.855777 3.499905 -0.023888
v -1.855777 3.499905 -0.076939
v -1.966957 3.106778 -0.023888
v -1.922941 3.101884 -0.023888
v -1.910356 2.942368 -0.023888
v -1.955696 2.935369 -0.023888
v -1.876636 3.365551 -0.023888
v -1.904217 3.261399 -0.023888
v -1.876636 3.365551 -0.076939
v -1.904217 3.261399 -0.076939
v -1.868798 2.851320 -0.023888
v -1.868798 2.851320 -0.076939
v -1.805499 2.769589 -0.076939
v -1.805499 2.769589 -0.023888
v -1.922941 3.101884 -0.076939
v -1.966957 3.106778 -0.076939
v -1.955696 2.935369 -0.076939
v -1.910356 2.942368 -0.076939
v -1.842977 2.743131 -0.023888
v -1.337659 2.395494 -0.023886
v -1.365419 2.358970 -0.023886
v -1.910207 2.834591 -0.076939
v -1.910207 2.834591 -0.023888
v -1.842977 2.743131 -0.076939
v -1.337659 2.395494 -0.076938
v -1.365419 2.358970 -0.076938
v -1.171277 2.186222 -0.076938
v -1.134869 2.214134 -0.076938
v -1.082521 2.118686 -0.023886
v -1.082521 2.118686 -0.076938
v -1.052537 2.021000 -0.076938
v -1.052537 2.021000 -0.023886
v -1.134869 2.214134 -0.023886
v -1.171277 2.186222 -0.023886
v -1.105628 1.908915 -0.023886
v -1.062727 1.903012 -0.023886
v -1.110933 1.798441 -0.023886
v -1.151771 1.819342 -0.023886
v -1.123209 2.100183 -0.076938
v -1.123209 2.100183 -0.023886
v -1.097502 2.011906 -0.023886
v -1.097502 2.011906 -0.076938
v -1.110933 1.798441 -0.076938
v -1.276391 1.569909 -0.076938
v -1.276391 1.569909 -0.023886
v -1.062727 1.903012 -0.076938
v -1.105628 1.908915 -0.076938
v -1.151771 1.819342 -0.076938
v -1.644601 1.174275 -0.076938
v -1.644601 1.174275 -0.023886
v -1.309974 1.601164 -0.023886
v -1.309974 1.601164 -0.076938
v -1.678184 1.205529 -0.023886
v -1.732030 1.010372 -0.023886
v -1.774077 1.028717 -0.023886
v -1.678184 1.205529 -0.076938
v -1.732030 1.010372 -0.076938
v -1.774077 1.028717 -0.076938
v -0.871217 1.837196 -0.023887
v -0.759016 1.778491 -0.023887
v -0.759016 1.778491 -0.076938
v -0.871217 1.837196 -0.076938
v -0.748049 1.823036 -0.076938
v -0.846029 1.873561 -0.076938
v -0.748049 1.823036 -0.023887
v -0.846029 1.873561 -0.023887
v -0.811140 2.119991 -0.086995
v -0.811140 2.119991 -0.013830
v -0.744284 2.156586 -0.023887
v -0.744284 2.156586 -0.076938
v -0.510675 2.063006 -0.083849
v -0.510675 2.063006 -0.016976
v -0.475115 1.988975 -0.023887
v -0.475115 1.988975 -0.076938
v -0.842922 2.149008 -0.013830
v -0.759406 2.199898 -0.023887
v -0.842922 2.149008 -0.086995
v -0.759406 2.199898 -0.076938
v -0.437078 1.850069 -0.023887
v -0.437078 1.850069 -0.076938
v -0.504010 1.730230 -0.076938
v -0.504010 1.730230 -0.023887
v -0.474967 2.084726 -0.016976
v -0.474967 2.084726 -0.083849
v -0.429779 1.995996 -0.076938
v -0.429779 1.995996 -0.023887
v -0.637278 1.684617 -0.023886
v -0.613608 1.646850 -0.023886
v -0.741842 1.583968 -0.023886
v -0.756305 1.627506 -0.023886
v -0.476184 1.862556 -0.023887
v -0.536887 1.762227 -0.023887
v -0.476183 1.862556 -0.076938
v -0.536887 1.762227 -0.076938
v -1.009502 1.546249 -0.076938
v -1.009502 1.546249 -0.023886
v -1.262699 1.442451 -0.023886
v -1.262699 1.442451 -0.076938
v -0.613608 1.646850 -0.076938
v -0.637278 1.684616 -0.076938
v -0.756305 1.627506 -0.076938
v -0.741842 1.583969 -0.076938
v -1.507551 1.276461 -0.023886
v -1.479085 1.240761 -0.023886
v -1.701678 1.039972 -0.023886
v -1.733620 1.072902 -0.023886
v -0.989774 1.505244 -0.023886
v -0.989774 1.505245 -0.076938
v -1.237707 1.403979 -0.076938
v -1.237707 1.403979 -0.023886
v -1.701678 1.039972 -0.076937
v -1.733620 1.072902 -0.076937
v -1.848909 0.886531 -0.076937
v -1.806600 0.868796 -0.076937
v -1.479085 1.240761 -0.076938
v -1.507551 1.276461 -0.076938
v -1.848909 0.886531 -0.023886
v -1.895489 0.775406 -0.023886
v -1.895489 0.775406 -0.076937
v -1.806599 0.868796 -0.023886
v -1.853178 0.757671 -0.076937
v -1.853178 0.757671 -0.023886
v -0.649489 2.193796 -0.080737
v -0.656049 2.156464 -0.080737
v -0.571574 2.128327 -0.084535
v -0.550721 2.159805 -0.084535
v -0.656049 2.156464 -0.020088
v -0.649489 2.193796 -0.020088
v -0.550721 2.159805 -0.016290
v -0.571574 2.128327 -0.016290
v -0.923178 2.071956 -0.015743
v -0.923178 2.071956 -0.085082
v -0.888066 2.050806 -0.085082
v -0.888066 2.050806 -0.015743
v -0.903550 1.971331 -0.076938
v -0.903550 1.971331 -0.023887
v -0.945610 1.953013 -0.023887
v -0.945610 1.953013 -0.076938
v -0.427184 0.804934 -0.023886
v -0.417916 0.868382 -0.023886
v -0.417916 0.868382 -0.076938
v -0.427184 0.804934 -0.076938
v -0.456576 0.893081 -0.076938
v -0.469419 0.818491 -0.076938
v -0.456576 0.893081 -0.023886
v -0.469419 0.818491 -0.023886
v -0.418342 0.944308 -0.076938
v -0.391722 0.910210 -0.076938
v -0.352587 0.933921 -0.076938
v -0.367169 0.977418 -0.076938
v -0.427392 0.741486 -0.076938
v -0.473204 0.743901 -0.076938
v -0.473204 0.743901 -0.023886
v -0.427392 0.741486 -0.023886
v -0.305327 0.989486 -0.023886
v -0.305327 0.989486 -0.076938
v -0.239603 0.983434 -0.076938
v -0.239603 0.983434 -0.023886
v -0.418342 0.944308 -0.023886
v -0.367169 0.977418 -0.023886
v -0.391722 0.910210 -0.023886
v -0.352587 0.933921 -0.023886
v -0.201361 0.902205 -0.023886
v -0.174691 0.933962 -0.023886
v -0.142390 0.868959 -0.023886
v -0.184083 0.849820 -0.023886
v -0.303860 0.945550 -0.076938
v -0.303860 0.945550 -0.023886
v -0.251250 0.939061 -0.023886
v -0.251250 0.939061 -0.076938
v -0.118870 0.794080 -0.023886
v -0.118870 0.794080 -0.076938
v -0.117090 0.719201 -0.076938
v -0.117090 0.719201 -0.023886
v -0.174691 0.933962 -0.076938
v -0.201361 0.902205 -0.076938
v -0.184083 0.849820 -0.076938
v -0.142390 0.868959 -0.076938
v -0.152292 0.614477 -0.023886
v -0.152292 0.614477 -0.076938
v -0.213893 0.536154 -0.076938
v -0.213893 0.536154 -0.023886
v -0.162644 0.785196 -0.076938
v -0.162644 0.785196 -0.023886
v -0.162946 0.720571 -0.023886
v -0.162946 0.720571 -0.076938
v -0.331435 0.514362 -0.023886
v -0.310732 0.478317 -0.023886
v -0.429569 0.438598 -0.023886
v -0.433442 0.484310 -0.023886
v -0.193987 0.628351 -0.076938
v -0.193987 0.628351 -0.023886
v -0.251428 0.562532 -0.023886
v -0.251428 0.562532 -0.076938
v -0.513169 0.440726 -0.023886
v -0.513169 0.440726 -0.076938
v -0.591593 0.455795 -0.076938
v -0.591593 0.455795 -0.023886
v -0.310732 0.478317 -0.076938
v -0.331435 0.514362 -0.076938
v -0.433442 0.484310 -0.076938
v -0.429569 0.438598 -0.076938
v -0.580917 0.500412 -0.076938
v -0.580918 0.500412 -0.023886
v -1.499149 0.829966 -0.023887
v -1.499149 0.829966 -0.076938
v -0.509767 0.485890 -0.076938
v -0.509767 0.485890 -0.023886
v -1.509826 0.785350 -0.023887
v -1.672685 0.814543 -0.023887
v -1.672315 0.860417 -0.023887
v -1.509826 0.785350 -0.076938
v -1.672685 0.814543 -0.076939
v -1.775568 0.801293 -0.076939
v -1.775568 0.801292 -0.023887
v -1.672315 0.860417 -0.076939
v -1.790756 0.844582 -0.023887
v -1.855121 0.747399 -0.023888
v -1.886124 0.781214 -0.023888
v -1.790756 0.844582 -0.076939
v -1.855121 0.747399 -0.076939
v -1.886124 0.781214 -0.076939
v -1.940996 0.639454 -0.076940
v -1.900102 0.618662 -0.076940
v -1.934154 0.319163 -0.023889
v -1.934154 0.319163 -0.076941
v -1.930190 0.019665 -0.076942
v -1.930190 0.019665 -0.023890
v -1.900102 0.618662 -0.023888
v -1.940996 0.639454 -0.023888
v -1.976066 0.019855 -0.076942
v -1.976066 0.019855 -0.023890
v -1.977539 0.329654 -0.076941
v -1.977539 0.329654 -0.023889
v -0.066278 2.415485 -0.023886
v 0.028896 2.470783 -0.023886
v 0.028896 2.470783 -0.076938
v -0.066278 2.415485 -0.076938
v 0.006564 2.510858 -0.076938
v -0.082585 2.457876 -0.076938
v 0.006564 2.510858 -0.023886
v -0.082585 2.457876 -0.023886
v -0.266998 2.360058 -0.023886
v -0.266998 2.360058 -0.076938
v -0.358568 2.350612 -0.076938
v -0.358568 2.350612 -0.023886
v -0.450286 2.393777 -0.076938
v -0.450286 2.393777 -0.023886
v -0.542649 2.406600 -0.023886
v -0.542649 2.406600 -0.076938
v -0.271818 2.405348 -0.076938
v -0.271818 2.405348 -0.023886
v -0.357923 2.396484 -0.023886
v -0.357923 2.396484 -0.076938
v -1.276416 3.398669 -0.023887
v -1.276416 3.398669 -0.076939
v -1.395688 3.532372 -0.076939
v -1.395688 3.532372 -0.023887
v -1.473303 3.661888 -0.023887
v -1.503972 3.628081 -0.023887
v -1.620306 3.707689 -0.023887
v -1.593044 3.744587 -0.023887
v -1.048422 2.910432 -0.076939
v -1.005801 2.927406 -0.076939
v -1.150753 3.291107 -0.076939
v -1.188452 3.264966 -0.076939
v -1.240529 3.427098 -0.076939
v -1.240529 3.427098 -0.023887
v -1.361613 3.563088 -0.023887
v -1.361613 3.563088 -0.076939
v -0.871279 2.639176 -0.023886
v -0.905341 2.608445 -0.023886
v -1.048422 2.910432 -0.023887
v -1.005801 2.927406 -0.023887
v -1.188452 3.264966 -0.023887
v -1.150753 3.291107 -0.023887
v -0.806428 2.561543 -0.023886
v -0.833203 2.524780 -0.023886
v -0.905341 2.608445 -0.076938
v -0.871279 2.639176 -0.076939
v -0.639234 2.438709 -0.023886
v -0.654251 2.395980 -0.023886
v -0.744679 2.451009 -0.023886
v -0.722774 2.491317 -0.023886
v -0.833203 2.524780 -0.076938
v -0.806428 2.561543 -0.076938
v -0.454673 2.348266 -0.023886
v -0.550778 2.361450 -0.023886
v -0.454673 2.348266 -0.076938
v -0.550778 2.361450 -0.076938
v -0.181053 2.425084 -0.023886
v -0.170769 2.380374 -0.023886
v -0.181053 2.425084 -0.076938
v -0.170769 2.380374 -0.076938
v -0.654251 2.395980 -0.076938
v -0.639234 2.438709 -0.076938
v -0.722774 2.491317 -0.076938
v -0.744679 2.451009 -0.076938
v -1.786677 3.820103 -0.076939
v -1.786677 3.820103 -0.023887
v -1.972259 3.858052 -0.023887
v -1.972259 3.858052 -0.076939
v -1.473303 3.661888 -0.076939
v -1.593044 3.744587 -0.076939
v -1.503972 3.628081 -0.076939
v -1.620306 3.707689 -0.076939
v -1.975983 3.812327 -0.076939
v -1.975983 3.812327 -0.023887
v -1.802170 3.778793 -0.023887
v -1.802170 3.778793 -0.076939
v -0.014892 0.449669 0.026526
v -0.014892 0.001735 0.026526
v -0.014892 0.001735 -0.026526
v -0.014892 0.449669 -0.026526
v 0.030985 0.001734 -0.026526
v 0.030985 0.449669 -0.026526
v 0.030985 0.001734 0.026526
v 0.030985 0.449669 0.026526
v -0.047319 0.794084 0.064025
v -0.047319 0.794084 -0.064025
v -0.013505 0.794084 -0.024924
v -0.013505 0.794084 0.024924
v 0.029600 0.794084 0.024924
v -0.013505 1.551711 0.024924
v 0.029600 1.551711 0.024924
v 0.029600 0.794084 -0.024924
v 0.029600 1.551711 -0.024924
v 0.034022 1.552417 0.030038
v 0.034022 1.552417 -0.030038
v 0.063413 0.794084 -0.064025
v 0.070876 0.786444 0.072655
v -0.054781 0.786445 0.072655
v 0.063413 0.794084 0.064025
v -0.013505 1.551711 -0.024924
v 0.070876 0.457532 -0.072655
v 0.070876 0.457532 0.072655
v 0.070876 0.786444 -0.072655
v -0.054781 0.786445 -0.072655
v 0.062911 0.449669 0.063445
v -0.046817 0.449669 0.063445
v -0.054781 0.457532 0.072655
v -0.054781 0.457532 -0.072655
v 0.062911 0.449669 -0.063445
v -0.046817 0.449669 -0.063445
v -0.017928 1.552416 -0.030038
v -0.017928 1.552416 0.030038
v 0.060939 1.552416 0.061164
v 0.060939 1.552416 -0.061164
v -0.044845 1.552416 -0.061164
v -0.044844 1.552416 0.061164
v -0.053647 1.561518 -0.071344
v -0.053647 1.561518 0.071344
v 0.069741 1.561518 0.071344
v 0.069741 1.561518 -0.071344
v -0.053647 1.821635 0.071344
v 0.069741 1.821635 0.071344
v 0.069741 1.821635 -0.071344
v -0.053647 1.821635 -0.071344
v 0.061001 1.830802 0.061236
v 0.061001 1.830802 -0.061236
v -0.044907 1.830802 -0.061236
v -0.044907 1.830802 0.061236
v -0.013088 1.831074 0.024440
v 0.029181 1.831074 0.024440
v 0.029181 1.831074 -0.024440
v -0.013088 1.831074 -0.024440
v 0.029182 2.625274 -0.024440
v -0.013088 2.625273 -0.024440
v 0.029182 2.625274 0.024440
v -0.013088 2.625273 0.024440
v 0.059189 2.625273 0.059141
v 0.059189 2.625273 -0.059141
v -0.043095 2.625274 -0.059141
v -0.043095 2.625274 0.059141
v -0.053580 2.635383 0.071266
v 0.069675 2.635383 0.071266
v 0.069675 2.635383 -0.071267
v -0.053580 2.635383 -0.071267
v 0.069675 2.901713 0.071265
v 0.069675 2.901713 -0.071267
v -0.053580 2.901713 -0.071267
v -0.053580 2.901713 0.071265
v 0.055381 2.911386 0.054737
v 0.055381 2.911386 -0.054739
v -0.039287 2.911386 -0.054739
v -0.039287 2.911386 0.054737
v -1.379453 3.856910 0.026525
v -1.379453 -0.001116 0.026526
v -1.379453 -0.001116 -0.026526
v -1.379453 3.856910 -0.026527
v -1.333578 -0.001116 -0.026526
v -1.333577 3.856910 -0.026527
v -1.333578 -0.001116 0.026526
v -1.333577 3.856910 0.026525
v -1.419100 3.874884 0.072373
v -1.293930 3.874884 0.072373
v -1.419100 3.874884 -0.072375
v -1.419101 3.895853 -0.072375
v -1.419101 3.895853 0.072373
v -1.293930 3.874884 -0.072375
v -1.293930 3.895853 0.072373
v -1.379670 3.915324 0.026776
v -1.333360 3.915326 0.026776
v -1.293930 3.895853 -0.072375
v -1.333360 3.915326 -0.026778
v -1.297462 3.940489 0.068289
v -1.297462 3.940489 -0.068291
v -1.379670 3.915324 -0.026778
v -1.415569 3.940489 0.068289
v -1.415569 3.961159 0.068289
v -1.297462 3.961159 0.068289
v -1.415569 3.940489 -0.068291
v -1.415569 3.961159 -0.068291
v -1.297462 3.961159 -0.068291
v -1.355933 4.138650 -0.000675
v -1.357098 4.138649 -0.000675
v -1.355933 4.138650 0.000673
v -1.357098 4.138649 0.000673
v -1.682793 4.078064 0.026525
v -1.682794 -0.001761 0.026526
v -1.682794 -0.001761 -0.026526
v -1.682793 4.078064 -0.026527
v -1.636918 -0.001761 -0.026526
v -1.636918 4.078064 -0.026527
v -1.636918 -0.001761 0.026526
v -1.636918 4.078064 0.026525
v -1.722440 4.096037 0.072373
v -1.597271 4.096038 0.072373
v -1.722440 4.096037 -0.072375
v -1.722440 4.117007 -0.072375
v -1.722440 4.117007 0.072373
v -1.597271 4.096038 -0.072375
v -1.597270 4.117007 0.072373
v -1.683011 4.136479 0.026776
v -1.636701 4.136479 0.026776
v -1.597270 4.117007 -0.072375
v -1.636701 4.136479 -0.026778
v -1.600803 4.161643 0.068289
v -1.600803 4.161643 -0.068291
v -1.683011 4.136479 -0.026778
v -1.718910 4.161643 0.068289
v -1.718910 4.182313 0.068289
v -1.600802 4.182313 0.068289
v -1.718910 4.161643 -0.068291
v -1.718910 4.182313 -0.068291
v -1.600802 4.182313 -0.068291
v -1.659273 4.359804 -0.000675
v -1.660438 4.359804 -0.000675
v -1.659273 4.359804 0.000673
v -1.660438 4.359804 0.000673
v -1.986614 4.198256 0.026525
v -1.986614 0.001577 0.026526
v -1.986614 0.001577 -0.026526
v -1.986614 4.198256 -0.026527
v -1.940737 0.001577 -0.026526
v -1.940737 4.198256 -0.026527
v -1.940737 0.001577 0.026526
v -1.940737 4.198256 0.026525
v -2.026261 4.216229 0.072373
v -1.901091 4.216229 0.072373
v -2.026261 4.216229 -0.072375
v -2.026261 4.237200 -0.072375
v -2.026261 4.237200 0.072373
v -1.901091 4.216229 -0.072375
v -1.901091 4.237200 0.072373
v -1.986831 4.256671 0.026776
v -1.940520 4.256672 0.026776
v -1.901091 4.237200 -0.072375
v -1.940520 4.256672 -0.026778
v -1.904621 4.281835 0.068289
v -1.904621 4.281835 -0.068291
v -1.986831 4.256671 -0.026778
v -2.022729 4.281835 0.068289
v -2.022729 4.302505 0.068289
v -1.904621 4.302505 0.068289
v -2.022729 4.281835 -0.068291
v -2.022729 4.302505 -0.068291
v -1.904621 4.302505 -0.068291
v -1.963093 4.479996 -0.000675
v -1.964258 4.479996 -0.000675
v -1.963093 4.479996 0.000673
v -1.964258 4.479996 0.000673
v -1.075074 3.371333 0.026525
v -1.075074 0.002379 0.026526
v -1.075074 0.002379 -0.026526
v -1.075074 3.371333 -0.026527
v -1.029198 0.002379 -0.026526
v -1.029198 3.371333 -0.026527
v -1.029198 0.002379 0.026526
v -1.029198 3.371333 0.026525
v -1.114721 3.389307 0.072373
v -0.989551 3.389307 0.072373
v -1.114721 3.389307 -0.072375
v -1.114721 3.410276 -0.072375
v -1.114721 3.410276 0.072373
v -0.989551 3.389307 -0.072375
v -0.989551 3.410277 0.072373
v -1.075292 3.429747 0.026776
v -1.028981 3.429747 0.026776
v -0.989551 3.410277 -0.072375
v -1.028981 3.429747 -0.026778
v -0.993083 3.454911 0.068289
v -0.993083 3.454911 -0.068291
v -1.075292 3.429747 -0.026778
v -1.111190 3.454911 0.068289
v -1.111190 3.475580 0.068289
v -0.993083 3.475580 0.068289
v -1.111190 3.454911 -0.068291
v -1.111190 3.475580 -0.068291
v -0.993083 3.475580 -0.068291
v -1.051553 3.653072 -0.000675
v -1.052719 3.653072 -0.000675
v -1.051553 3.653072 0.000673
v -1.052719 3.653072 0.000673
v -0.775074 2.866524 0.026525
v -0.775074 0.000724 0.026526
v -0.775074 0.000724 -0.026526
v -0.775074 2.866524 -0.026527
v -0.729198 0.000724 -0.026526
v -0.729198 2.866524 -0.026527
v -0.729198 0.000724 0.026526
v -0.729198 2.866524 0.026525
v -0.814721 2.884499 0.072373
v -0.689551 2.884498 0.072373
v -0.814721 2.884499 -0.072375
v -0.814721 2.905468 -0.072375
v -0.814721 2.905468 0.072373
v -0.689551 2.884498 -0.072375
v -0.689551 2.905468 0.072373
v -0.775291 2.924940 0.026776
v -0.728980 2.924940 0.026776
v -0.689551 2.905468 -0.072375
v -0.728980 2.924940 -0.026778
v -0.693082 2.950103 0.068289
v -0.693082 2.950103 -0.068291
v -0.775291 2.924940 -0.026778
v -0.811190 2.950103 0.068289
v -0.811190 2.970774 0.068289
v -0.693082 2.970774 0.068289
v -0.811190 2.950103 -0.068291
v -0.811190 2.970774 -0.068291
v -0.693082 2.970774 -0.068291
v -0.751554 3.148264 -0.000675
v -0.752718 3.148264 -0.000675
v -0.751554 3.148264 0.000673
v -0.752718 3.148264 0.000673
v -0.471254 2.765564 0.026525
v -0.471254 0.001734 0.026526
v -0.471254 0.001734 -0.026526
v -0.471254 2.765564 -0.026527
v -0.425378 0.001735 -0.026526
v -0.425378 2.765564 -0.026527
v -0.425378 0.001735 0.026526
v -0.425378 2.765564 0.026525
v -0.510901 2.783538 0.072373
v -0.385731 2.783536 0.072373
v -0.510901 2.783538 -0.072375
v -0.510901 2.804507 -0.072375
v -0.510901 2.804507 0.072373
v -0.385731 2.783536 -0.072375
v -0.385731 2.804507 0.072373
v -0.471471 2.823978 0.026776
v -0.425161 2.823978 0.026776
v -0.385731 2.804507 -0.072375
v -0.425161 2.823978 -0.026778
v -0.389263 2.849141 0.068289
v -0.389263 2.849141 -0.068291
v -0.471471 2.823978 -0.026778
v -0.507370 2.849142 0.068289
v -0.507370 2.869811 0.068289
v -0.389263 2.869811 0.068289
v -0.507370 2.849142 -0.068291
v -0.507370 2.869811 -0.068291
v -0.389263 2.869811 -0.068291
v -0.447733 3.047302 -0.000675
v -0.448899 3.047302 -0.000675
v -0.447733 3.047302 0.000673
v -0.448899 3.047302 0.000673
v -0.167914 2.765564 0.026525
v -0.167914 0.001734 0.026526
v -0.167914 0.001734 -0.026526
v -0.167914 2.765564 -0.026527
v -0.122038 0.001734 -0.026526
v -0.122038 2.765564 -0.026527
v -0.122038 0.001734 0.026526
v -0.122038 2.765564 0.026525
v -0.207561 2.783538 0.072373
v -0.082391 2.783536 0.072373
v -0.207561 2.783538 -0.072375
v -0.207561 2.804507 -0.072375
v -0.207561 2.804507 0.072373
v -0.082391 2.783536 -0.072375
v -0.082391 2.804507 0.072373
v -0.168131 2.823978 0.026776
v -0.121821 2.823978 0.026776
v -0.082391 2.804507 -0.072375
v -0.121821 2.823978 -0.026778
v -0.085922 2.849141 0.068289
v -0.085922 2.849141 -0.068291
v -0.168131 2.823978 -0.026778
v -0.204029 2.849141 0.068289
v -0.204029 2.869811 0.068289
v -0.085922 2.869811 0.068289
v -0.204029 2.849142 -0.068291
v -0.204029 2.869811 -0.068291
v -0.085922 2.869811 -0.068291
v -0.144393 3.047302 -0.000675
v -0.145558 3.047302 -0.000675
v -0.144393 3.047302 0.000673
v -0.145558 3.047302 0.000673
vn -0.0000 1.0000 -0.0000
vn -0.0000 -0.0000 1.0000
vn -0.0000 -1.0000 -0.0000
vn -0.0000 -0.0000 -1.0000
vn -1.0000 -0.0000 -0.0000
vn 1.0000 -0.0000 -0.0000
vn 0.9630 0.2696 -0.0000
vn -0.9630 -0.2696 -0.0000
vn 0.8824 0.4705 -0.0000
vn 0.2696 -0.9630 -0.0000
vn -0.8853 -0.4650 -0.0000
vn 0.4392 -0.8984 -0.0000
vn -0.2459 -0.9693 -0.0000
vn 0.3057 0.9521 -0.0000
vn -0.3873 0.9219 -0.0000
vn 0.9907 0.1362 -0.0000
vn 0.8907 -0.4546 -0.0000
vn -0.8624 0.5063 -0.0000
vn 0.6965 0.7176 -0.0000
vn -0.9985 -0.0547 -0.0000
vn -0.7265 -0.6872 -0.0000
vn -0.6493 0.7605 -0.0000
vn 0.0957 0.9954 -0.0000
vn -0.1242 -0.9923 -0.0000
vn 0.9602 -0.2793 -0.0000
vn 0.6164 -0.7874 -0.0000
vn -0.9667 0.2560 -0.0000
vn -0.7906 -0.6123 -0.0000
vn -0.9969 -0.0786 -0.0000
vn 0.9978 0.0656 -0.0000
vn 0.8057 0.5923 -0.0000
vn -0.6245 -0.7810 -0.0000
vn 0.6268 0.7792 -0.0000
vn -0.9560 -0.2934 -0.0000
vn -0.6666 -0.7454 -0.0000
vn 0.6647 0.7471 -0.0000
vn 0.9601 0.2796 -0.0000
vn -0.8100 0.5864 -0.0000
vn -0.9081 0.4186 -0.0000
vn -0.9082 0.4186 -0.0000
vn 0.8890 -0.4580 -0.0000
vn -0.7320 0.6813 -0.0000
vn 0.8096 -0.5870 -0.0000
vn 0.7320 -0.6813 -0.0000
vn 0.3999 0.9166 -0.0000
vn -0.8823 0.4706 -0.0000
vn 0.8790 -0.4767 -0.0000
vn -0.0268 0.9996 -0.0000
vn 0.0095 -1.0000 -0.0000
vn -0.5918 0.8061 -0.0000
vn 0.5939 -0.8046 -0.0000
vn 0.6534 0.7570 -0.0000
vn -0.7120 -0.7022 -0.0000
vn -0.9799 0.1995 -0.0000
vn 0.9856 -0.1692 -0.0000
vn -0.8590 -0.5120 -0.0000
vn 0.8514 0.5245 -0.0000
vn -0.3748 -0.9271 -0.0000
vn 0.3820 0.9242 -0.0000
vn 0.4021 -0.9156 -0.0000
vn -0.4032 0.9151 -0.0000
vn -0.8855 0.4646 -0.0000
vn 0.8824 -0.4705 -0.0000
vn 0.9932 -0.1162 -0.0000
vn -0.9932 0.1166 -0.0000
vn 0.9115 0.4114 -0.0000
vn -0.9097 -0.4152 -0.0000
vn 0.8730 0.4877 -0.0000
vn -0.8768 -0.4809 -0.0000
vn 0.9969 -0.0787 -0.0000
vn -0.9963 0.0860 -0.0000
vn 0.4636 0.8860 -0.0000
vn -0.4583 -0.8888 -0.0000
vn -0.9710 0.2391 -0.0000
vn -0.4801 0.8772 -0.0000
vn 0.9014 0.4330 -0.0000
vn -0.0857 -0.0696 -0.9939
vn -0.1077 -0.0552 -0.9926
vn -0.1252 -0.0437 -0.9912
vn -0.0857 -0.0696 0.9939
vn -0.1077 -0.0552 0.9926
vn -0.0718 -0.0787 0.9943
vn 0.5204 -0.8539 -0.0000
vn -0.8731 0.4876 -0.0000
vn -0.8911 -0.4538 -0.0000
vn -0.0335 0.0720 -0.9968
vn -0.0190 0.0720 -0.9972
vn -0.0438 0.0720 -0.9964
vn -0.0335 0.0720 0.9968
vn -0.0190 0.0720 0.9972
vn -0.0112 0.0720 0.9973
vn 0.8556 -0.5177 -0.0000
vn 0.3793 -0.9253 -0.0000
vn 0.4326 -0.9016 -0.0000
vn -0.4403 0.8979 -0.0000
vn -0.3781 0.9258 -0.0000
vn 0.6691 -0.7431 -0.0000
vn -0.6698 0.7425 -0.0000
vn 0.9223 -0.3866 -0.0000
vn 0.8504 -0.5261 -0.0000
vn -0.8526 0.5226 -0.0000
vn 0.3866 0.9223 -0.0000
vn -0.9223 0.3866 -0.0000
vn -0.5602 0.8284 -0.0000
vn 0.5611 -0.8277 -0.0000
vn -0.3026 0.9531 -0.0000
vn 0.3056 -0.9522 -0.0000
vn -0.6055 0.7959 -0.0000
vn 0.6116 -0.7912 -0.0000
vn 0.6116 -0.7911 -0.0000
vn 1.0000 -0.0085 -0.0000
vn -0.9988 0.0500 -0.0000
vn 0.0401 -0.0062 0.9992
vn 0.0336 -0.0180 0.9993
vn 0.0313 -0.0207 0.9993
vn 0.0401 -0.0062 -0.9992
vn 0.0336 -0.0180 -0.9993
vn 0.0427 -0.0075 -0.9991
vn -0.3254 -0.9456 -0.0000
vn 0.3160 0.9488 -0.0000
vn -0.0057 0.0047 1.0000
vn -0.0041 0.0054 1.0000
vn -0.0034 0.0057 1.0000
vn -0.0057 0.0047 -1.0000
vn -0.0041 0.0054 -1.0000
vn -0.0066 0.0044 -1.0000
vn -0.7039 -0.7103 -0.0000
vn 0.7314 0.6819 -0.0000
vn 0.0014 1.0000 -0.0000
vn -0.0554 -0.9985 -0.0000
vn 0.0368 0.0084 -0.9993
vn 0.0368 0.0084 0.9993
vn 0.0352 0.0123 0.9993
vn 0.6926 -0.7214 -0.0000
vn 0.0099 0.0149 0.9998
vn 0.0118 0.0141 0.9998
vn 0.0092 0.0153 0.9998
vn 0.0099 0.0149 -0.9998
vn 0.0118 0.0141 -0.9998
vn 0.0125 0.0137 -0.9998
vn -0.6687 0.7435 -0.0000
vn -0.9815 0.1912 -0.0000
vn -0.0169 0.0774 -0.9969
vn 0.0278 0.0860 -0.9959
vn 0.0549 0.0912 -0.9943
vn -0.0169 0.0774 0.9969
vn 0.0278 0.0860 0.9959
vn -0.0324 0.0744 0.9967
vn 0.9827 -0.1853 -0.0000
vn -0.8619 -0.5071 -0.0000
vn 0.8414 0.5404 -0.0000
vn -0.9895 0.1445 -0.0000
vn 0.9855 -0.1697 -0.0000
vn 0.0526 0.9986 -0.0000
vn -0.0917 -0.9958 -0.0000
vn 0.5432 -0.8396 -0.0000
vn -0.5182 0.8553 -0.0000
vn 0.1224 0.9925 -0.0000
vn -0.9997 -0.0238 -0.0000
vn -0.8955 -0.4450 -0.0000
vn 0.9497 0.3132 -0.0000
vn 0.9494 0.3140 -0.0000
vn -0.7860 0.6182 -0.0000
vn 1.0000 -0.0047 -0.0000
vn 0.7534 -0.6575 -0.0000
vn 0.1887 0.9820 -0.0000
vn -0.3170 0.9484 -0.0000
vn 0.2826 -0.9592 -0.0000
vn -0.3378 -0.9412 -0.0000
vn -0.2000 -0.9798 -0.0000
vn 0.3378 0.9412 -0.0000
vn -0.1277 0.9918 -0.0000
vn 0.1764 0.9843 -0.0000
vn -0.1732 -0.9849 -0.0000
vn 0.1325 -0.9912 -0.0000
vn -0.5609 0.8279 -0.0000
vn 0.5534 -0.8329 -0.0000
vn -0.9999 -0.0132 -0.0000
vn -0.9440 0.3298 -0.0000
vn 0.9326 -0.3610 -0.0000
vn 0.0041 1.0000 -0.0000
vn 1.0000 0.0048 -0.0000
vn 0.9931 -0.1171 -0.0000
vn -0.9936 0.1130 -0.0000
vn 0.5942 0.8043 -0.0000
vn -0.6062 -0.7953 -0.0000
vn 0.9491 0.3149 -0.0000
vn -0.9540 -0.2997 -0.0000
vn 0.9478 -0.3190 -0.0000
vn -0.9479 0.3186 -0.0000
vn 0.5158 -0.8567 -0.0000
vn -0.5128 0.8585 -0.0000
vn -0.0207 -0.9998 -0.0000
vn 0.0254 0.9997 -0.0000
vn -0.2321 0.9727 -0.0000
vn 0.1915 -0.9815 -0.0000
vn -0.8475 0.5307 -0.0000
vn 0.8014 -0.5981 -0.0000
vn 0.9987 -0.0507 -0.0000
vn -1.0000 0.0033 -0.0000
vn -0.5024 0.8646 -0.0000
vn 0.5109 -0.8596 -0.0000
vn -0.8735 -0.4868 -0.0000
vn -0.1026 0.9947 -0.0000
vn -0.1375 -0.9905 -0.0000
vn 0.1024 -0.9947 -0.0000
vn 0.7462 0.6657 -0.0000
vn -0.7469 -0.6650 -0.0000
vn 0.1359 0.9907 -0.0000
vn 0.3160 -0.9488 -0.0000
vn -0.3185 0.9479 -0.0000
vn 0.2125 -0.9772 -0.0000
vn -0.2066 0.9784 -0.0000
vn 0.9301 0.3674 -0.0000
vn -0.9289 -0.3702 -0.0000
vn 0.9037 0.4282 -0.0000
vn -0.9062 -0.4229 -0.0000
vn -0.7675 -0.6411 -0.0000
vn 0.7573 0.6530 -0.0000
vn 0.5198 0.8543 -0.0000
vn -0.5329 -0.8462 -0.0000
vn -0.2003 -0.9797 -0.0000
vn -0.5683 -0.8228 -0.0000
vn 0.5647 0.8253 -0.0000
vn 0.9967 -0.0812 -0.0000
vn 0.1894 0.9819 -0.0000
vn 0.3641 0.9313 -0.0000
vn -0.3633 -0.9317 -0.0000
vn 0.6623 0.7493 -0.0000
vn -0.6626 -0.7490 -0.0000
vn -0.8345 -0.5509 -0.0000
vn 0.8354 0.5496 -0.0000
vn 0.6402 0.7682 -0.0000
vn -0.6430 -0.7659 -0.0000
vn -0.3155 -0.9489 -0.0000
vn 0.3165 0.9486 -0.0000
vn -0.0244 0.9997 -0.0000
vn 0.0293 -0.9996 -0.0000
vn -0.1576 0.9875 -0.0000
vn -0.0000 -0.7488 -0.6628
vn -0.7153 -0.6988 -0.0000
vn 0.7153 -0.6988 -0.0000
vn -0.0000 0.7605 -0.6493
vn -0.0000 -0.7488 0.6628
vn -0.7026 0.7116 -0.0000
vn 0.7026 0.7116 -0.0000
vn -0.0000 0.7605 0.6493
vn 0.1574 0.9875 -0.0000
vn -0.0000 0.9906 -0.1365
vn -0.0000 0.9906 -0.1367
vn -0.0000 0.9906 0.1365
vn -0.0000 0.9906 0.1367
vn 0.7188 0.6952 -0.0000
vn -0.0000 0.7455 -0.6665
vn -0.0000 0.7455 0.6665
vn -0.7188 0.6952 -0.0000
vn -0.7237 -0.6901 -0.0000
vn 0.7237 -0.6901 -0.0000
vn -0.0000 -0.7408 -0.6717
vn -0.0000 -0.7408 0.6717
vn 0.0043 -1.0000 -0.0037
vn -0.0043 -1.0000 -0.0037
vn 0.0043 -1.0000 0.0037
vn -0.0043 -1.0000 0.0037
vn -0.0000 0.7680 -0.6404
vn -0.0000 0.7681 0.6404
vn -0.6941 0.7198 -0.0000
vn 0.6941 0.7199 -0.0000
vn -0.5605 -0.8282 -0.0000
vn 0.5605 -0.8282 -0.0000
vn -0.0000 -0.8631 -0.5051
vn -0.0000 -0.8631 0.5051
vn -0.0000 0.9310 -0.3650
vn -0.0000 0.9310 0.3650
vn 0.4129 0.9108 -0.0000
vn -0.4129 0.9108 -0.0000
vn -0.0000 -0.9196 -0.3927
vn -0.0000 -0.9197 -0.3927
vn -0.0000 -0.9196 -0.3928
vn -0.5740 0.8189 -0.0000
vn -0.0000 -0.9196 0.3927
vn -0.0000 -0.9197 0.3927
vn -0.4428 -0.8966 -0.0000
vn 0.4428 -0.8966 -0.0000
vn 0.5740 0.8189 -0.0000
vn -0.0000 0.8552 -0.5184
vn -0.0000 0.8552 0.5184
vn -0.0000 0.8551 0.5184
vn -0.0000 -0.3560 0.9345
vn 0.0003 -0.3560 0.9345
vn 0.0011 -1.0000 -0.0000
vn -0.9498 -0.3129 -0.0000
vn 0.9498 -0.3129 -0.0000
vn -0.0000 -0.3560 -0.9345
vn 0.0003 -0.3560 -0.9345
vn 0.0004 -0.3560 -0.9345
vn -1.0000 0.0001 -0.0000
vn -0.0002 -0.3561 0.9345
vn -0.0003 -0.3561 0.9344
vn -0.0007 -1.0000 -0.0000
vn -0.9498 -0.3128 -0.0000
vn -0.0002 -0.3561 -0.9345
vn -0.0000 0.8552 0.5183
vn -0.0000 -0.3559 0.9345
vn 0.8890 -0.4579 -0.0000
vn -0.0718 -0.0787 -0.9943
vn -0.1252 -0.0437 0.9912
vn -0.0112 0.0720 -0.9973
vn -0.0438 0.0720 0.9964
vn 0.0427 -0.0075 0.9991
vn 0.0313 -0.0207 -0.9993
vn -0.0066 0.0044 1.0000
vn -0.0034 0.0057 -1.0000
vn 0.0352 0.0123 -0.9993
vn 0.0125 0.0137 0.9998
vn 0.0092 0.0153 -0.9998
vn -0.0324 0.0744 -0.9967
vn 0.0549 0.0912 0.9943
vn -0.0000 -0.7408 -0.6718
vn -0.0000 -0.7408 0.6718
vn -0.0000 0.7680 0.6404
vn -0.0000 -0.9196 0.3928
vn -0.0000 0.8551 -0.5184
vn 0.0004 -0.3559 0.9345
vn 0.9498 -0.3130 -0.0000
vn -0.0003 -0.3561 -0.9344
vn -0.0000 -0.3559 -0.9345
vt 1.000000 0.000000
vt 0.000000 1.000000
vt 0.000000 0.000000
vt 1.000000 1.000000
s 1
g off
g GATE_IZQ_metall.003
usemtl metall.003
f 2/1/1 4/2/1 1/3/1
s 2
f 3/1/2 6/2/2 4/3/2
s 3
f 5/1/3 8/2/3 6/3/3
s 4
f 8/3/4 2/4/4 1/2/4
s 5
f 3/1/5 7/2/5 5/3/5
s 6
f 6/1/6 1/2/6 4/3/6
s 7
f 10/1/1 12/2/1 9/3/1
s 8
f 12/3/2 13/4/2 14/2/2
s 9
f 13/1/3 16/2/3 14/3/3
s 10
f 15/1/4 9/2/4 16/3/4
s 11
f 11/1/5 15/2/5 13/3/5
s 12
f 14/1/6 9/2/6 12/3/6
s 13
f 18/1/1 20/2/1 17/3/1
s 14
f 19/1/2 22/2/2 20/3/2
s 15
f 21/1/3 24/2/3 22/3/3
s 16
f 23/1/4 17/2/4 24/3/4
s 17
f 19/1/5 23/2/5 21/3/5
s 18
f 22/1/6 17/2/6 20/3/6
s 19
f 26/1/1 28/2/1 25/3/1
s 20
f 27/1/2 30/2/2 28/3/2
s 21
f 29/1/3 32/2/3 30/3/3
s 22
f 31/1/4 25/2/4 32/3/4
s 23
f 27/1/5 31/2/5 29/3/5
s 24
f 30/1/6 25/2/6 28/3/6
s 25
f 34/1/7 36/2/7 33/3/7
s 26
f 36/3/2 37/4/2 38/2/2
s 27
f 37/1/8 40/2/8 38/3/8
s 28
f 39/1/4 33/2/4 40/3/4
s 29
f 34/1/9 42/2/9 35/3/9
s 30
f 38/1/10 33/2/10 36/3/10
s 26
f 43/3/2 45/4/2 46/2/2
s 28
f 34/3/4 47/4/4 41/2/4
s 26
f 35/1/2 48/2/2 37/3/2
s 31
f 37/1/11 47/2/11 39/3/11
s 32
f 50/1/12 52/2/12 49/3/12
s 33
f 43/1/13 54/2/13 53/3/13
s 34
f 55/1/14 45/2/14 44/3/14
s 28
f 53/1/4 56/2/4 55/3/4
f 58/1/4 60/2/4 57/3/4
s 35
f 62/1/15 64/2/15 61/3/15
s 28
f 49/1/4 63/2/4 62/3/4
s 26
f 50/3/2 64/4/2 51/2/2
s 36
f 66/1/16 68/2/16 65/3/16
s 26
f 69/3/2 71/4/2 72/2/2
s 37
f 69/1/17 59/2/17 58/3/17
s 38
f 57/1/18 71/2/18 70/3/18
s 39
f 74/1/19 76/2/19 73/3/19
s 40
f 78/1/20 80/2/20 77/3/20
s 28
f 65/1/4 79/2/4 78/3/4
s 26
f 66/3/2 80/4/2 67/2/2
s 28
f 82/1/4 84/2/4 81/3/4
s 41
f 86/1/21 88/2/21 85/3/21
s 28
f 73/1/4 87/2/4 86/3/4
s 26
f 74/3/2 88/4/2 75/2/2
s 42
f 90/1/22 92/2/22 89/3/22
s 26
f 93/3/2 95/4/2 96/2/2
s 43
f 82/3/23 96/4/23 83/2/23
s 44
f 81/1/24 95/2/24 94/3/24
s 45
f 98/1/25 100/2/25 97/3/25
s 46
f 102/1/26 104/2/26 101/3/26
s 28
f 89/1/4 103/2/4 102/3/4
s 26
f 90/3/2 104/4/2 91/2/2
s 28
f 106/1/4 108/2/4 105/3/4
f 109/1/4 99/2/4 98/3/4
s 26
f 111/3/2 100/4/2 112/2/2
s 47
f 111/1/27 110/2/27 109/3/27
s 48
f 114/1/28 116/2/28 113/3/28
s 26
f 117/3/2 119/4/2 120/2/2
s 49
f 117/1/29 107/2/29 106/3/29
s 50
f 105/1/30 119/2/30 118/3/30
s 28
f 116/1/4 123/2/4 121/3/4
s 51
f 125/1/31 126/2/31 124/3/31
s 28
f 113/1/4 121/2/4 125/3/4
s 26
f 114/3/2 126/4/2 115/2/2
f 127/3/2 129/4/2 130/2/2
f 115/3/2 128/4/2 127/2/2
s 52
f 116/3/32 127/4/32 122/2/32
s 53
f 121/1/33 128/2/33 126/3/33
s 54
f 132/1/34 134/2/34 131/3/34
s 55
f 127/1/35 135/2/35 122/3/35
s 56
f 123/1/36 129/2/36 128/3/36
s 28
f 122/1/4 136/2/4 123/3/4
f 137/3/4 139/4/4 140/2/4
s 57
f 142/1/37 144/2/37 141/3/37
s 28
f 142/3/4 134/4/4 143/2/4
s 26
f 141/1/2 133/2/2 132/3/2
s 58
f 145/1/38 147/2/38 139/3/38
s 26
f 149/1/2 145/2/2 148/3/2
s 59
f 148/1/39 139/2/39 138/3/40
s 60
f 137/1/41 150/2/41 149/3/41
s 61
f 146/1/42 152/2/42 147/3/42
s 62
f 140/1/43 154/2/43 150/3/43
s 28
f 140/3/4 147/4/4 153/2/4
s 26
f 150/1/2 146/2/2 145/3/2
s 28
f 152/1/4 157/2/4 155/3/4
s 63
f 153/1/44 158/2/44 154/3/44
s 28
f 153/3/4 152/4/4 155/2/4
s 26
f 154/1/2 151/2/2 146/3/2
s 64
f 160/1/45 156/2/45 159/3/45
s 26
f 151/3/2 160/4/2 159/2/2
s 65
f 151/1/46 156/2/46 152/3/46
s 66
f 155/1/47 160/2/47 158/3/47
s 26
f 46/3/2 61/4/2 50/2/2
s 28
f 54/1/4 62/2/4 56/3/4
s 67
f 56/1/48 61/2/48 45/3/48
s 68
f 46/1/49 49/2/49 54/3/49
s 69
f 63/1/50 70/2/50 64/3/50
s 70
f 51/1/51 58/2/51 52/3/51
s 26
f 51/3/2 70/4/2 69/2/2
s 28
f 52/1/4 57/2/4 63/3/4
f 41/3/4 53/4/4 55/2/4
s 71
f 41/1/52 44/2/52 42/3/52
s 72
f 48/1/53 53/2/53 47/3/53
s 26
f 42/1/2 43/2/2 48/3/2
f 72/3/2 77/4/2 66/2/2
s 28
f 59/1/4 78/2/4 60/3/4
s 73
f 60/1/54 77/2/54 71/3/54
s 74
f 72/1/55 65/2/55 59/3/55
s 26
f 67/3/2 85/4/2 74/2/2
s 28
f 68/1/4 86/2/4 79/3/4
s 75
f 79/1/56 85/2/56 80/3/56
s 76
f 67/1/57 73/2/57 68/3/57
s 77
f 87/1/58 94/2/58 88/3/58
s 78
f 75/1/59 82/2/59 76/3/59
s 26
f 75/3/2 94/4/2 93/2/2
s 28
f 76/1/4 81/2/4 87/3/4
s 26
f 96/3/2 101/4/2 90/2/2
s 28
f 83/1/4 102/2/4 84/3/4
s 79
f 84/1/60 101/2/60 95/3/60
s 80
f 96/1/61 89/2/61 83/3/61
s 81
f 91/1/62 109/2/62 92/3/62
s 26
f 91/3/2 97/4/2 111/2/2
s 28
f 92/1/4 98/2/4 103/3/4
s 82
f 103/1/63 97/2/63 104/3/63
s 83
f 99/1/64 118/2/64 100/3/64
s 84
f 112/1/65 106/2/65 110/3/65
s 26
f 112/3/2 118/4/2 117/2/2
s 28
f 110/1/4 105/2/4 99/3/4
s 26
f 120/3/2 124/4/2 114/2/2
s 28
f 107/1/4 125/2/4 108/3/4
s 85
f 108/1/66 124/2/66 119/3/66
s 86
f 120/1/67 113/2/67 107/3/67
s 26
f 129/1/2 132/2/2 130/3/2
s 28
f 136/3/4 131/4/4 142/2/4
s 87
f 136/1/68 141/2/68 129/3/68
s 88
f 130/1/69 131/2/69 135/3/69
s 89
f 143/1/70 149/2/70 144/3/70
s 90
f 133/1/71 138/2/71 134/3/71
s 26
f 144/1/2 148/2/2 133/3/2
s 28
f 143/3/4 138/4/4 137/2/4
s 91
f 162/1/72 164/2/72 161/3/72
s 92
f 164/3/2 165/4/2 166/2/2
s 93
f 165/1/73 168/2/73 166/3/73
s 94
f 167/1/4 161/2/4 168/3/4
s 95
f 163/1/74 167/2/74 165/3/74
s 96
f 169/3/75 171/4/75 172/2/75
s 97
f 174/1/76 176/2/76 173/3/76
s 98
f 170/3/77 178/4/78 171/2/79
s 99
f 169/1/80 180/2/81 179/3/82
s 100
f 179/1/83 178/2/83 177/3/83
s 101
f 182/1/84 184/2/84 181/3/84
s 102
f 186/1/85 188/2/85 185/3/85
s 103
f 185/1/86 175/2/87 174/3/88
s 104
f 186/3/89 176/4/90 187/2/91
s 105
f 190/1/4 192/2/4 189/3/4
f 181/1/4 194/2/4 193/3/4
s 106
f 182/3/2 196/4/2 183/2/2
s 107
f 193/1/92 196/2/92 195/3/92
s 108
f 198/1/93 200/2/93 197/3/93
s 106
f 201/3/2 203/4/2 204/2/2
s 109
f 202/3/94 192/4/94 203/2/94
s 110
f 190/3/95 204/4/95 191/2/95
s 105
f 206/1/4 208/2/4 205/3/4
s 111
f 209/3/96 211/4/96 212/2/96
s 105
f 198/3/4 212/4/4 199/2/4
s 106
f 197/1/2 211/2/2 210/3/2
f 213/3/2 215/4/2 216/2/2
f 217/3/2 214/4/2 213/2/2
s 112
f 205/1/97 214/2/97 218/3/97
s 113
f 206/3/98 213/4/98 207/2/98
s 114
f 219/1/99 221/2/99 215/3/99
s 115
f 208/1/100 215/2/100 214/3/100
s 116
f 213/1/101 222/2/101 207/3/101
s 105
f 207/1/4 219/2/4 208/3/4
s 117
f 221/1/102 224/2/102 223/3/102
s 118
f 216/1/103 224/2/103 222/3/103
s 105
f 222/1/4 220/2/4 219/3/4
s 106
f 216/3/2 221/4/2 223/2/2
s 119
f 211/1/104 206/2/104 212/3/104
s 120
f 199/1/105 218/2/105 200/3/105
s 106
f 200/1/2 217/2/2 211/3/2
s 105
f 199/3/4 206/4/4 205/2/4
s 106
f 203/1/2 210/2/2 204/3/2
s 105
f 192/3/4 209/4/4 198/2/4
s 121
f 191/3/106 210/4/106 209/2/106
s 122
f 192/1/107 197/2/107 203/3/107
s 123
f 184/3/108 201/4/108 190/2/108
s 124
f 196/3/109 189/4/109 202/2/110
s 106
f 196/1/2 201/2/2 183/3/2
s 105
f 194/3/4 190/4/4 189/2/4
s 125
f 175/1/111 195/2/111 176/3/111
s 106
f 187/3/2 195/4/2 182/2/2
s 105
f 188/1/4 193/2/4 175/3/4
s 126
f 187/1/112 181/2/112 188/3/112
s 127
f 225/3/113 227/4/114 228/2/115
s 128
f 230/1/116 232/2/117 229/3/118
s 129
f 225/1/119 231/2/119 230/3/119
s 130
f 229/1/120 227/2/120 226/3/120
s 131
f 228/3/121 173/4/122 186/2/123
s 132
f 231/1/124 174/2/125 232/3/126
s 133
f 228/1/127 185/2/127 231/3/127
s 134
f 232/1/128 173/2/128 227/3/128
s 135
f 171/1/129 226/2/129 172/3/129
s 136
f 180/1/130 230/2/130 178/3/130
s 128
f 171/3/131 230/4/116 229/2/118
s 127
f 172/1/132 225/2/113 180/3/133
s 137
f 234/1/134 177/2/134 233/3/134
s 138
f 235/1/135 179/2/136 234/3/137
s 139
f 236/3/138 177/4/139 170/2/140
s 140
f 236/1/141 169/2/141 235/3/141
s 141
f 238/1/142 235/2/142 237/3/142
s 142
f 238/3/143 233/4/144 236/2/145
s 143
f 237/1/146 234/2/147 240/3/148
s 144
f 240/1/149 233/2/149 239/3/149
s 94
f 168/1/4 239/2/4 238/3/4
s 145
f 166/1/150 238/2/150 237/3/150
s 92
f 240/3/2 166/4/2 237/2/2
s 146
f 161/1/151 240/2/151 239/3/151
s 147
f 242/1/152 244/2/152 241/3/152
s 148
f 243/1/2 246/2/2 244/3/2
s 149
f 245/1/153 248/2/153 246/3/153
s 150
f 248/3/4 242/4/4 241/2/4
s 148
f 249/3/2 251/4/2 252/2/2
s 151
f 254/1/154 256/2/154 253/3/154
s 152
f 258/1/155 260/2/155 257/3/155
s 153
f 249/1/156 262/2/156 261/3/156
s 154
f 263/1/157 251/2/157 250/3/157
s 150
f 261/1/4 264/2/4 263/3/4
f 265/3/4 267/4/4 268/2/4
s 155
f 270/1/158 272/2/158 269/3/158
s 150
f 257/1/4 271/2/4 270/3/4
s 148
f 258/3/2 272/4/2 259/2/2
s 156
f 274/1/159 276/2/159 273/3/159
s 148
f 278/1/2 280/2/2 277/3/2
s 157
f 277/1/160 267/2/160 266/3/160
s 158
f 265/1/161 279/2/162 278/3/161
s 159
f 282/1/163 284/2/163 281/3/163
s 160
f 286/1/164 288/2/164 285/3/164
s 150
f 286/3/4 276/4/4 287/2/4
s 148
f 285/1/2 275/2/2 274/3/2
s 150
f 290/1/4 292/2/4 289/3/4
s 161
f 294/1/165 296/2/165 293/3/165
s 150
f 294/3/4 284/4/4 295/2/4
s 148
f 293/1/2 283/2/2 282/3/2
s 162
f 298/1/166 300/2/166 297/3/166
s 148
f 301/3/2 303/4/2 304/2/2
s 163
f 301/1/167 291/2/167 290/3/167
s 164
f 289/1/168 303/2/168 302/3/168
s 165
f 306/1/169 308/2/169 305/3/169
s 166
f 310/1/170 305/2/170 309/3/170
s 150
f 310/3/4 300/4/4 306/2/4
s 148
f 309/1/2 299/2/2 298/3/2
s 150
f 307/3/4 312/4/4 313/2/4
f 306/3/4 311/4/4 307/2/4
s 148
f 305/1/2 314/2/2 299/3/2
s 167
f 299/1/171 311/2/171 300/3/171
s 168
f 312/3/172 316/4/172 317/2/172
s 148
f 308/1/2 315/2/2 314/3/2
s 169
f 314/1/173 312/2/173 311/3/173
s 170
f 308/3/174 313/4/174 318/2/174
s 150
f 317/1/4 321/2/4 319/3/4
s 171
f 313/1/175 322/2/175 318/3/175
s 150
f 313/3/4 317/4/4 319/2/4
s 148
f 318/1/2 316/2/2 315/3/2
f 323/3/2 325/4/2 326/2/2
f 316/3/2 324/4/2 323/2/2
s 172
f 317/3/176 323/4/176 320/2/176
s 173
f 322/3/177 321/4/177 324/2/177
s 174
f 328/1/178 330/2/178 327/3/178
s 175
f 323/1/179 331/2/179 320/3/179
s 176
f 324/3/180 332/4/180 325/2/180
s 150
f 320/1/4 332/2/4 321/3/4
s 177
f 329/3/181 334/4/181 330/2/181
s 178
f 336/1/182 333/2/182 335/3/182
s 150
f 327/1/4 334/2/4 336/3/4
s 148
f 328/3/2 333/4/2 329/2/2
f 326/3/2 335/4/2 328/2/2
s 150
f 331/1/4 336/2/4 332/3/4
s 179
f 325/3/183 336/4/183 335/2/183
s 180
f 326/1/184 327/2/184 331/3/184
s 181
f 271/1/185 278/2/185 272/3/185
s 182
f 259/1/186 266/2/186 260/3/186
s 148
f 272/1/2 277/2/2 259/3/2
s 150
f 271/3/4 266/4/4 265/2/4
s 148
f 279/1/2 274/2/2 280/3/2
s 150
f 268/3/4 273/4/4 286/2/4
s 158
f 268/1/162 285/2/187 279/3/162
s 183
f 280/1/188 273/2/188 267/3/188
s 148
f 288/1/2 282/2/2 275/3/2
s 150
f 287/3/4 281/4/4 294/2/4
s 184
f 287/1/189 293/2/189 288/3/189
s 185
f 275/1/190 281/2/190 276/3/190
s 186
f 295/1/191 302/2/191 296/3/191
s 187
f 283/1/192 290/2/192 284/3/192
s 148
f 296/1/2 301/2/2 283/3/2
s 150
f 295/3/4 290/4/4 289/2/4
s 148
f 303/1/2 298/2/2 304/3/2
s 150
f 292/3/4 297/4/4 310/2/4
s 188
f 292/1/193 309/2/193 303/3/193
s 189
f 304/1/194 297/2/194 291/3/194
s 148
f 252/3/2 269/4/2 258/2/2
s 150
f 262/1/4 270/2/4 264/3/4
s 190
f 264/1/195 269/2/195 251/3/195
s 191
f 252/1/196 257/2/196 262/3/196
s 150
f 247/1/4 263/2/4 242/3/4
s 192
f 242/1/197 250/2/197 243/3/197
s 193
f 245/1/198 261/2/198 247/3/198
s 148
f 245/3/2 250/4/2 249/2/2
s 150
f 255/3/4 241/4/4 256/2/4
s 194
f 246/1/199 255/2/199 254/3/199
s 148
f 244/1/2 254/2/2 253/3/2
s 195
f 241/1/200 253/2/200 256/3/200
s 196
f 338/1/201 340/2/201 337/3/201
s 197
f 339/1/2 342/2/2 340/3/2
s 198
f 341/1/202 344/2/202 342/3/202
s 199
f 344/3/4 338/4/4 337/2/4
s 200
f 339/1/203 343/2/203 341/3/203
s 201
f 346/1/204 348/2/204 345/3/204
s 202
f 350/1/205 352/2/205 349/3/205
s 203
f 354/1/206 356/2/206 353/3/206
s 199
f 345/1/4 355/2/4 354/3/4
s 197
f 346/3/2 356/4/2 347/2/2
s 204
f 358/1/207 360/2/207 357/3/207
s 199
f 362/1/4 364/2/4 361/3/4
s 197
f 366/1/2 368/2/2 365/3/2
s 205
f 370/1/208 372/2/208 369/3/208
s 199
f 373/3/4 375/4/4 376/2/4
f 376/3/4 377/4/4 378/2/4
f 379/3/4 374/4/4 373/2/4
s 197
f 382/1/2 365/2/2 381/3/2
s 199
f 383/3/4 385/4/4 386/2/4
s 197
f 388/1/2 381/2/2 387/3/2
s 199
f 350/3/4 390/4/4 351/2/4
s 206
f 391/1/209 390/2/209 389/3/209
s 199
f 393/3/4 337/4/4 394/2/4
s 207
f 342/1/210 393/2/210 395/3/210
s 197
f 340/1/2 395/2/2 396/3/2
s 208
f 337/1/211 396/2/211 394/3/211
s 197
f 396/3/2 353/4/2 346/2/2
s 199
f 394/1/4 354/2/4 393/3/4
s 209
f 393/1/212 353/2/212 395/3/212
s 210
f 396/1/213 345/2/213 394/3/213
s 197
f 398/1/2 400/2/2 397/3/2
f 358/3/2 372/4/2 359/2/2
s 199
f 357/1/4 371/2/4 370/3/4
s 211
f 365/1/214 377/2/214 375/3/214
s 212
f 376/1/215 367/2/215 366/3/215
s 213
f 381/1/216 375/2/216 374/3/216
s 214
f 373/1/217 366/2/217 382/3/217
s 215
f 379/1/218 382/2/218 388/3/218
s 216
f 387/1/219 374/2/219 380/3/219
s 217
f 397/1/220 385/2/220 384/3/220
s 218
f 383/1/221 399/2/221 398/3/221
s 197
f 349/1/2 392/2/2 391/3/2
s 219
f 402/1/222 404/2/222 401/3/222
s 220
f 361/1/223 406/2/223 405/3/223
s 197
f 407/3/2 406/4/2 408/2/2
s 221
f 407/1/224 363/2/224 362/3/224
s 222
f 404/1/225 410/2/225 409/3/225
s 199
f 411/1/4 403/2/4 402/3/4
s 223
f 412/1/226 410/2/226 411/3/226
s 197
f 412/3/2 404/4/2 409/2/2
f 408/3/2 401/4/2 412/2/2
s 224
f 408/1/227 411/2/227 363/3/227
s 199
f 363/1/4 402/2/4 364/3/4
s 225
f 364/1/228 401/2/228 406/3/228
s 226
f 359/1/229 362/2/229 360/3/229
s 197
f 359/3/2 405/4/2 407/2/2
s 227
f 371/1/230 405/2/230 372/3/230
s 199
f 360/1/4 361/2/4 371/3/4
f 378/3/4 357/4/4 370/2/4
s 197
f 367/1/2 358/2/2 368/3/2
s 228
f 378/1/231 369/2/231 367/3/231
s 229
f 368/1/232 357/2/232 377/3/232
s 230
f 400/1/233 380/2/233 385/3/233
s 231
f 386/1/234 388/2/234 399/3/234
s 197
f 399/1/2 387/2/2 400/3/2
s 199
f 386/3/4 380/4/4 379/2/4
s 232
f 351/1/235 398/2/235 352/3/235
s 233
f 392/1/236 384/2/236 390/3/236
s 197
f 352/1/2 397/2/2 392/3/2
s 199
f 351/3/4 384/4/4 383/2/4
s 197
f 347/3/2 349/4/2 391/2/2
s 234
f 347/1/237 389/2/237 348/3/237
s 199
f 348/1/4 350/2/4 355/3/4
s 235
f 355/1/238 349/2/238 356/3/238
s 236
f 414/1/6 416/2/6 413/3/6
s 237
f 415/1/2 418/2/2 416/3/2
s 238
f 417/1/5 420/2/5 418/3/5
s 239
f 420/3/4 414/4/4 413/2/4
s 240
f 422/1/3 424/2/3 421/3/3
s 241
f 415/1/1 419/2/1 417/3/1
s 242
f 424/1/4 427/2/4 425/3/4
s 243
f 425/1/5 429/2/5 428/3/5
s 244
f 427/1/239 431/2/239 429/3/239
s 240
f 432/1/3 423/2/3 422/3/3
s 245
f 433/3/240 421/4/240 435/2/240
s 240
f 421/1/3 425/2/3 435/3/3
s 246
f 428/1/2 436/2/2 423/3/2
s 247
f 423/1/6 426/2/6 424/3/6
s 248
f 438/1/5 439/2/5 437/3/5
s 249
f 433/1/241 432/2/241 439/3/241
s 250
f 440/1/242 421/2/242 434/3/242
s 240
f 435/1/3 428/2/3 432/3/3
s 251
f 442/1/243 438/2/243 441/3/243
s 252
f 439/1/244 422/2/244 440/3/244
s 253
f 444/3/2 439/4/2 440/2/2
s 254
f 444/1/6 434/2/6 443/3/6
s 255
f 418/1/1 446/2/1 416/3/1
s 256
f 441/1/245 437/2/245 445/3/245
s 257
f 446/1/246 443/2/246 442/3/246
s 258
f 443/1/4 433/2/4 438/3/4
s 255
f 416/1/1 442/2/1 413/3/1
f 420/3/1 442/4/1 441/2/1
s 259
f 445/1/247 444/2/247 446/3/247
s 255
f 420/1/1 445/2/1 418/3/1
s 260
f 436/1/248 448/2/248 426/3/248
s 261
f 426/1/249 430/2/250 427/3/250
s 262
f 436/3/251 431/4/252 447/2/251
s 263
f 431/3/1 449/4/1 450/2/1
f 448/3/1 451/4/1 452/2/1
f 448/1/1 449/2/1 430/3/1
f 431/1/1 451/2/1 447/3/1
s 264
f 452/3/253 453/4/253 454/2/253
s 265
f 452/1/254 455/2/254 449/3/254
s 266
f 450/1/255 453/2/255 451/3/255
s 267
f 450/3/256 455/4/256 456/2/256
s 268
f 454/1/4 458/2/4 455/3/4
s 269
f 456/1/2 460/2/2 453/3/2
s 270
f 455/1/5 459/2/5 456/3/5
s 271
f 453/1/6 457/2/6 454/3/6
s 272
f 458/1/257 462/2/257 459/3/257
s 273
f 460/1/258 464/2/258 457/3/258
s 274
f 457/1/259 461/2/259 458/3/259
s 275
f 459/1/260 463/2/260 460/3/260
s 276
f 464/1/261 466/2/262 461/3/262
f 463/3/263 467/4/264 468/2/263
f 461/1/262 467/2/264 462/3/264
f 463/1/263 465/2/261 464/3/261
s 277
f 467/1/2 470/2/2 468/3/2
s 278
f 466/1/5 469/2/5 467/3/5
s 279
f 468/1/6 472/2/6 465/3/6
s 280
f 466/3/4 472/4/4 471/2/4
s 281
f 471/1/1 474/2/1 469/3/1
f 470/1/1 476/2/1 472/3/1
f 472/1/1 473/2/1 471/3/1
f 469/1/1 475/2/1 470/3/1
s 282
f 476/1/265 478/2/265 473/3/265
s 283
f 475/3/266 479/4/266 480/2/266
s 284
f 473/1/267 479/2/267 474/3/267
s 285
f 475/1/268 477/2/268 476/3/268
s 286
f 478/1/5 482/2/5 479/3/5
s 287
f 480/1/6 484/2/6 477/3/6
s 288
f 477/1/4 481/2/4 478/3/4
s 289
f 479/1/2 483/2/2 480/3/2
s 290
f 481/1/269 486/2/269 482/3/269
s 291
f 483/1/270 488/2/270 484/3/270
s 292
f 484/1/271 485/2/271 481/3/271
s 293
f 482/1/272 487/2/272 483/3/272
s 294
f 486/1/3 488/2/3 487/3/3
s 295
f 490/1/6 492/2/6 489/3/6
s 296
f 491/1/2 494/2/2 492/3/2
s 297
f 493/1/5 496/2/5 494/3/5
s 298
f 496/3/4 490/4/4 489/2/4
s 299
f 489/1/273 498/2/273 496/3/273
s 300
f 491/1/1 495/2/1 493/3/1
s 301
f 499/1/6 501/2/6 497/3/6
s 302
f 494/1/274 499/2/274 492/3/274
s 303
f 492/1/275 497/2/275 489/3/275
s 304
f 496/1/276 502/2/276 494/3/276
s 305
f 503/3/277 504/4/278 505/2/279
s 306
f 497/1/4 503/2/4 498/3/4
s 307
f 499/3/2 506/4/2 500/2/2
s 308
f 498/1/5 506/2/5 502/3/5
s 309
f 505/1/280 509/2/280 507/3/280
s 310
f 506/1/281 510/2/282 500/3/282
s 311
f 503/1/283 507/2/283 506/3/283
s 312
f 500/1/284 504/2/284 501/3/284
s 313
f 511/1/4 513/2/4 508/3/4
s 314
f 510/1/285 511/2/285 504/3/285
s 315
f 505/3/286 511/4/286 508/2/286
s 316
f 507/1/287 514/2/287 510/3/288
s 317
f 516/1/289 518/2/290 515/3/289
s 318
f 509/1/2 515/2/2 514/3/2
s 319
f 508/1/5 516/2/5 509/3/5
s 320
f 514/1/6 512/2/6 511/3/6
s 321
f 517/1/291 520/2/291 518/3/291
s 322
f 513/1/292 517/2/292 516/3/292
s 323
f 512/3/293 518/4/293 520/2/293
s 324
f 513/3/294 520/4/295 519/2/296
s 325
f 522/1/6 524/2/6 521/3/6
s 326
f 523/1/2 526/2/2 524/3/2
s 327
f 525/1/5 528/2/5 526/3/5
s 328
f 527/1/4 521/2/4 528/3/4
s 329
f 521/1/273 530/2/273 528/3/273
s 330
f 523/1/1 527/2/1 525/3/1
s 331
f 531/1/6 533/2/6 529/3/6
s 332
f 524/3/274 534/4/274 531/2/274
s 333
f 524/1/275 529/2/275 521/3/275
s 334
f 528/1/276 534/2/276 526/3/276
s 335
f 533/1/278 537/2/278 535/3/278
s 336
f 530/3/4 533/4/4 535/2/4
s 337
f 534/1/2 532/2/2 531/3/2
s 338
f 530/1/5 538/2/5 534/3/297
s 339
f 539/3/280 540/4/280 541/2/280
s 340
f 532/3/282 539/4/282 542/2/282
s 341
f 535/1/283 539/2/283 538/3/283
s 342
f 532/1/284 536/2/284 533/3/284
s 343
f 540/3/4 544/4/4 545/2/4
s 344
f 542/1/285 543/2/285 536/3/285
s 345
f 536/1/286 540/2/286 537/3/286
s 346
f 539/1/287 546/2/287 542/3/288
s 347
f 547/3/289 549/4/298 550/2/299
s 348
f 541/1/2 547/2/2 546/3/2
s 349
f 540/1/5 548/2/5 541/3/5
s 350
f 546/1/6 544/2/6 543/3/6
s 351
f 549/1/300 552/2/300 550/3/300
s 352
f 545/1/292 549/2/301 548/3/292
s 353
f 547/1/293 552/2/293 544/3/293
s 354
f 544/1/294 551/2/302 545/3/294
s 355
f 554/1/6 556/2/6 553/3/6
s 356
f 555/1/2 558/2/2 556/3/2
s 357
f 557/1/5 560/2/5 558/3/5
s 358
f 559/1/4 553/2/4 560/3/4
s 359
f 553/1/273 562/2/273 560/3/273
s 360
f 555/1/1 559/2/1 557/3/1
s 361
f 558/1/274 563/2/274 556/3/274
s 362
f 556/1/275 561/2/275 553/3/275
s 363
f 560/1/276 566/2/276 558/3/276
s 364
f 567/3/278 568/4/278 569/2/277
s 365
f 561/1/4 567/2/4 562/3/4
s 366
f 566/1/2 564/2/2 563/3/2
s 367
f 562/1/5 570/2/5 566/3/5
s 368
f 571/3/280 572/4/280 573/2/280
s 369
f 570/1/282 574/2/282 564/3/282
s 370
f 567/1/283 571/2/283 570/3/283
s 371
f 564/1/284 568/2/284 565/3/284
s 372
f 575/1/4 577/2/4 572/3/4
s 373
f 574/1/285 575/2/285 568/3/285
s 374
f 569/3/286 575/4/286 572/2/286
s 375
f 571/1/287 578/2/287 574/3/303
s 376
f 579/3/289 581/4/289 582/2/289
s 377
f 578/3/2 580/4/2 579/2/2
s 378
f 572/1/5 580/2/5 573/3/5
s 379
f 581/1/3 584/2/3 582/3/3
s 380
f 577/1/292 581/2/292 580/3/292
s 381
f 579/1/293 584/2/293 576/3/293
s 382
f 576/1/294 583/2/294 577/3/294
s 383
f 586/1/6 588/2/6 585/3/6
s 384
f 587/1/2 590/2/2 588/3/2
s 385
f 589/1/5 592/2/5 590/3/5
s 386
f 591/1/4 585/2/4 592/3/4
s 387
f 585/1/273 594/2/273 592/3/273
s 388
f 587/1/1 591/2/1 589/3/1
s 389
f 595/1/6 597/2/6 593/3/6
s 390
f 590/1/274 595/2/274 588/3/274
s 391
f 588/1/275 593/2/275 585/3/275
s 392
f 592/1/276 598/2/276 590/3/276
s 393
f 597/1/278 601/2/278 599/3/278
s 394
f 594/3/4 597/4/4 599/2/4
s 395
f 598/1/2 596/2/2 595/3/2
s 396
f 594/1/5 602/2/5 598/3/5
s 397
f 601/1/280 605/2/280 603/3/280
s 398
f 596/3/282 603/4/282 606/2/282
s 399
f 599/1/283 603/2/283 602/3/283
s 400
f 596/1/284 600/2/284 597/3/284
s 401
f 607/1/4 609/2/4 604/3/4
s 402
f 606/1/285 607/2/285 600/3/285
s 403
f 601/3/286 607/4/286 604/2/286
s 404
f 603/1/287 610/2/287 606/3/287
s 405
f 611/3/289 613/4/289 614/2/304
s 406
f 605/1/2 611/2/2 610/3/2
s 407
f 604/1/5 612/2/5 605/3/5
s 408
f 610/1/6 608/2/6 607/3/6
s 409
f 613/1/3 616/2/3 614/3/3
s 410
f 609/1/292 613/2/301 612/3/292
s 411
f 611/1/293 616/2/293 608/3/293
s 412
f 608/1/294 615/2/294 609/3/294
s 413
f 618/1/6 620/2/6 617/3/6
s 414
f 619/1/2 622/2/2 620/3/2
s 415
f 621/1/5 624/2/5 622/3/5
s 416
f 623/1/4 617/2/4 624/3/4
s 417
f 617/1/273 626/2/273 624/3/273
s 418
f 619/1/1 623/2/1 621/3/1
s 419
f 627/1/6 629/2/6 625/3/6
s 420
f 620/3/274 630/4/274 627/2/274
s 421
f 620/1/275 625/2/275 617/3/275
s 422
f 624/1/276 630/2/276 622/3/276
s 423
f 631/3/278 632/4/278 633/2/278
s 424
f 625/1/4 631/2/4 626/3/4
s 425
f 627/3/2 634/4/2 628/2/2
s 426
f 626/1/5 634/2/5 630/3/5
s 427
f 633/1/280 637/2/280 635/3/280
s 428
f 634/1/282 638/2/282 628/3/282
s 429
f 631/1/283 635/2/283 634/3/283
s 430
f 628/1/284 632/2/284 629/3/284
s 431
f 639/1/4 641/2/4 636/3/4
s 432
f 638/1/285 639/2/285 632/3/285
s 433
f 632/1/286 636/2/286 633/3/286
s 434
f 638/3/287 637/4/287 642/2/287
s 435
f 644/1/289 646/2/289 643/3/289
s 436
f 637/1/2 643/2/2 642/3/2
s 437
f 636/1/5 644/2/5 637/3/5
s 438
f 642/1/6 640/2/6 639/3/6
s 439
f 645/1/3 648/2/3 646/3/3
s 440
f 641/1/292 645/2/292 644/3/292
s 441
f 643/1/293 648/2/293 640/3/293
s 442
f 640/1/294 647/2/294 641/3/294
s 443
f 650/1/6 652/2/6 649/3/6
s 444
f 652/3/2 653/4/2 654/2/2
s 445
f 653/1/5 656/2/5 654/3/5
s 446
f 655/1/4 649/2/4 656/3/4
s 447
f 656/3/273 657/4/273 658/2/273
s 448
f 651/1/1 655/2/1 653/3/1
s 449
f 659/1/6 661/2/6 657/3/6
s 450
f 654/1/274 659/2/274 652/3/274
s 451
f 652/1/275 657/2/275 649/3/275
s 452
f 656/1/276 662/2/276 654/3/276
s 453
f 661/1/278 665/2/278 663/3/278
s 454
f 657/1/4 663/2/4 658/3/4
s 455
f 659/3/2 666/4/2 660/2/2
s 456
f 658/1/5 666/2/5 662/3/5
s 457
f 665/1/280 669/2/280 667/3/280
s 458
f 666/1/282 670/2/282 660/3/282
s 459
f 663/1/283 667/2/283 666/3/283
s 460
f 660/1/284 664/2/284 661/3/284
s 461
f 671/1/4 673/2/4 668/3/4
s 462
f 664/3/285 674/4/285 671/2/285
s 463
f 665/3/286 671/4/286 668/2/286
s 464
f 667/1/287 674/2/287 670/3/287
s 465
f 676/1/289 678/2/289 675/3/289
s 466
f 674/3/2 676/4/2 675/2/2
s 467
f 668/1/5 676/2/5 669/3/5
s 468
f 674/1/6 672/2/6 671/3/6
s 469
f 677/1/3 680/2/3 678/3/3
s 470
f 673/1/292 677/2/292 676/3/292
s 471
f 675/1/293 680/2/293 672/3/293
s 472
f 672/1/294 679/2/294 673/3/294
s 473
f 682/1/6 684/2/6 681/3/6
s 474
f 683/1/2 686/2/2 684/3/2
s 475
f 685/1/5 688/2/5 686/3/5
s 476
f 687/1/4 681/2/4 688/3/4
s 477
f 688/3/273 689/4/273 690/2/273
s 478
f 683/1/1 687/2/1 685/3/1
s 479
f 691/1/6 693/2/6 689/3/6
s 480
f 686/1/274 691/2/274 684/3/274
s 481
f 684/1/275 689/2/275 681/3/275
s 482
f 688/1/276 694/2/276 686/3/276
s 483
f 695/3/278 696/4/278 697/2/278
s 484
f 689/1/4 695/2/4 690/3/4
s 485
f 691/3/2 698/4/2 692/2/2
s 486
f 690/1/5 698/2/5 694/3/5
s 487
f 697/1/280 701/2/280 699/3/280
s 488
f 698/1/282 702/2/282 692/3/282
s 489
f 695/1/283 699/2/283 698/3/283
s 490
f 692/1/284 696/2/284 693/3/284
s 491
f 700/3/4 704/4/4 705/2/4
s 492
f 696/3/285 706/4/285 703/2/285
s 493
f 696/1/286 700/2/286 697/3/286
s 494
f 699/1/287 706/2/287 702/3/287
s 495
f 708/1/289 710/2/289 707/3/289
s 496
f 706/3/2 708/4/2 707/2/2
s 497
f 700/1/5 708/2/5 701/3/5
s 498
f 706/1/6 704/2/6 703/3/6
s 499
f 709/1/3 712/2/3 710/3/3
s 500
f 705/1/292 709/2/292 708/3/292
s 501
f 707/1/293 712/2/293 704/3/293
s 502
f 704/1/294 711/2/294 705/3/294
s 1
f 2/1/1 3/4/1 4/2/1
s 2
f 3/1/2 5/4/2 6/2/2
s 3
f 5/1/3 7/4/3 8/2/3
s 4
f 8/3/4 7/1/4 2/4/4
s 5
f 3/1/5 2/4/5 7/2/5
s 6
f 6/1/6 8/4/6 1/2/6
s 7
f 10/1/1 11/4/1 12/2/1
s 8
f 12/3/2 11/1/2 13/4/2
s 9
f 13/1/3 15/4/3 16/2/3
s 10
f 15/1/4 10/4/4 9/2/4
s 11
f 11/1/5 10/4/5 15/2/5
s 12
f 14/1/6 16/4/6 9/2/6
s 13
f 18/1/1 19/4/1 20/2/1
s 14
f 19/1/2 21/4/2 22/2/2
s 15
f 21/1/3 23/4/3 24/2/3
s 16
f 23/1/4 18/4/4 17/2/4
s 17
f 19/1/5 18/4/5 23/2/5
s 18
f 22/1/6 24/4/6 17/2/6
s 19
f 26/1/1 27/4/1 28/2/1
s 20
f 27/1/2 29/4/2 30/2/2
s 21
f 29/1/3 31/4/3 32/2/3
s 22
f 31/1/4 26/4/4 25/2/4
s 23
f 27/1/5 26/4/5 31/2/5
s 24
f 30/1/6 32/4/6 25/2/6
s 25
f 34/1/7 35/4/7 36/2/7
s 26
f 36/3/2 35/1/2 37/4/2
s 27
f 37/1/8 39/4/8 40/2/8
s 28
f 39/1/4 34/4/4 33/2/4
s 29
f 34/1/9 41/4/9 42/2/9
s 30
f 38/1/10 40/4/10 33/2/10
s 26
f 43/3/2 44/1/2 45/4/2
s 28
f 34/3/4 39/1/4 47/4/4
s 26
f 35/1/2 42/4/2 48/2/2
s 31
f 37/1/11 48/4/11 47/2/11
s 32
f 50/1/12 51/4/12 52/2/12
s 33
f 43/1/13 46/4/13 54/2/13
s 34
f 55/1/14 56/4/14 45/2/14
s 28
f 53/1/4 54/4/4 56/2/4
f 58/1/4 59/4/4 60/2/4
s 35
f 62/1/15 63/4/15 64/2/15
s 28
f 49/1/4 52/4/4 63/2/4
s 26
f 50/3/2 61/1/2 64/4/2
s 36
f 66/1/16 67/4/16 68/2/16
s 26
f 69/3/2 70/1/2 71/4/2
s 37
f 69/1/17 72/4/17 59/2/17
s 38
f 57/1/18 60/4/18 71/2/18
s 39
f 74/1/19 75/4/19 76/2/19
s 40
f 78/1/20 79/4/20 80/2/20
s 28
f 65/1/4 68/4/4 79/2/4
s 26
f 66/3/2 77/1/2 80/4/2
s 28
f 82/1/4 83/4/4 84/2/4
s 41
f 86/1/21 87/4/21 88/2/21
s 28
f 73/1/4 76/4/4 87/2/4
s 26
f 74/3/2 85/1/2 88/4/2
s 42
f 90/1/22 91/4/22 92/2/22
s 26
f 93/3/2 94/1/2 95/4/2
s 43
f 82/3/23 93/1/23 96/4/23
s 44
f 81/1/24 84/4/24 95/2/24
s 45
f 98/1/25 99/4/25 100/2/25
s 46
f 102/1/26 103/4/26 104/2/26
s 28
f 89/1/4 92/4/4 103/2/4
s 26
f 90/3/2 101/1/2 104/4/2
s 28
f 106/1/4 107/4/4 108/2/4
f 109/1/4 110/4/4 99/2/4
s 26
f 111/3/2 97/1/2 100/4/2
s 47
f 111/1/27 112/4/27 110/2/27
s 48
f 114/1/28 115/4/28 116/2/28
s 26
f 117/3/2 118/1/2 119/4/2
s 49
f 117/1/29 120/4/29 107/2/29
s 50
f 105/1/30 108/4/30 119/2/30
s 28
f 116/1/4 122/4/4 123/2/4
s 51
f 125/1/31 121/4/31 126/2/31
s 28
f 113/1/4 116/4/4 121/2/4
s 26
f 114/3/2 124/1/2 126/4/2
f 127/3/2 128/1/2 129/4/2
f 115/3/2 126/1/2 128/4/2
s 52
f 116/3/32 115/1/32 127/4/32
s 53
f 121/1/33 123/4/33 128/2/33
s 54
f 132/1/34 133/4/34 134/2/34
s 55
f 127/1/35 130/4/35 135/2/35
s 56
f 123/1/36 136/4/36 129/2/36
s 28
f 122/1/4 135/4/4 136/2/4
f 137/3/4 138/1/4 139/4/4
s 57
f 142/1/37 143/4/37 144/2/37
s 28
f 142/3/4 131/1/4 134/4/4
s 26
f 141/1/2 144/4/2 133/2/2
s 58
f 145/1/38 146/4/38 147/2/38
s 26
f 149/1/2 150/4/2 145/2/2
s 59
f 148/1/39 145/4/39 139/2/39
s 60
f 137/1/41 140/4/305 150/2/41
s 61
f 146/1/42 151/4/42 152/2/42
s 62
f 140/1/43 153/4/43 154/2/43
s 28
f 140/3/4 139/1/4 147/4/4
s 26
f 150/1/2 154/4/2 146/2/2
s 28
f 152/1/4 156/4/4 157/2/4
s 63
f 153/1/44 155/4/44 158/2/44
s 28
f 153/3/4 147/1/4 152/4/4
s 26
f 154/1/2 158/4/2 151/2/2
s 64
f 160/1/45 157/4/45 156/2/45
s 26
f 151/3/2 158/1/2 160/4/2
s 65
f 151/1/46 159/4/46 156/2/46
s 66
f 155/1/47 157/4/47 160/2/47
s 26
f 46/3/2 45/1/2 61/4/2
s 28
f 54/1/4 49/4/4 62/2/4
s 67
f 56/1/48 62/4/48 61/2/48
s 68
f 46/1/49 50/4/49 49/2/49
s 69
f 63/1/50 57/4/50 70/2/50
s 70
f 51/1/51 69/4/51 58/2/51
s 26
f 51/3/2 64/1/2 70/4/2
s 28
f 52/1/4 58/4/4 57/2/4
f 41/3/4 47/1/4 53/4/4
s 71
f 41/1/52 55/4/52 44/2/52
s 72
f 48/1/53 43/4/53 53/2/53
s 26
f 42/1/2 44/4/2 43/2/2
f 72/3/2 71/1/2 77/4/2
s 28
f 59/1/4 65/4/4 78/2/4
s 73
f 60/1/54 78/4/54 77/2/54
s 74
f 72/1/55 66/4/55 65/2/55
s 26
f 67/3/2 80/1/2 85/4/2
s 28
f 68/1/4 73/4/4 86/2/4
s 75
f 79/1/56 86/4/56 85/2/56
s 76
f 67/1/57 74/4/57 73/2/57
s 77
f 87/1/58 81/4/58 94/2/58
s 78
f 75/1/59 93/4/59 82/2/59
s 26
f 75/3/2 88/1/2 94/4/2
s 28
f 76/1/4 82/4/4 81/2/4
s 26
f 96/3/2 95/1/2 101/4/2
s 28
f 83/1/4 89/4/4 102/2/4
s 79
f 84/1/60 102/4/60 101/2/60
s 80
f 96/1/61 90/4/61 89/2/61
s 81
f 91/1/62 111/4/62 109/2/62
s 26
f 91/3/2 104/1/2 97/4/2
s 28
f 92/1/4 109/4/4 98/2/4
s 82
f 103/1/63 98/4/63 97/2/63
s 83
f 99/1/64 105/4/64 118/2/64
s 84
f 112/1/65 117/4/65 106/2/65
s 26
f 112/3/2 100/1/2 118/4/2
s 28
f 110/1/4 106/4/4 105/2/4
s 26
f 120/3/2 119/1/2 124/4/2
s 28
f 107/1/4 113/4/4 125/2/4
s 85
f 108/1/66 125/4/66 124/2/66
s 86
f 120/1/67 114/4/67 113/2/67
s 26
f 129/1/2 141/4/2 132/2/2
s 28
f 136/3/4 135/1/4 131/4/4
s 87
f 136/1/68 142/4/68 141/2/68
s 88
f 130/1/69 132/4/69 131/2/69
s 89
f 143/1/70 137/4/70 149/2/70
s 90
f 133/1/71 148/4/71 138/2/71
s 26
f 144/1/2 149/4/2 148/2/2
s 28
f 143/3/4 134/1/4 138/4/4
s 91
f 162/1/72 163/4/72 164/2/72
s 92
f 164/3/2 163/1/2 165/4/2
s 93
f 165/1/73 167/4/73 168/2/73
s 94
f 167/1/4 162/4/4 161/2/4
s 95
f 163/1/74 162/4/74 167/2/74
s 96
f 169/3/75 170/1/75 171/4/75
s 97
f 174/1/76 175/4/76 176/2/76
s 98
f 170/3/77 177/1/306 178/4/78
s 99
f 169/1/80 172/4/307 180/2/81
s 100
f 179/1/83 180/4/83 178/2/83
s 101
f 182/1/84 183/4/84 184/2/84
s 102
f 186/1/85 187/4/85 188/2/85
s 103
f 185/1/86 188/4/308 175/2/87
s 104
f 186/3/89 173/1/309 176/4/90
s 105
f 190/1/4 191/4/4 192/2/4
f 181/1/4 184/4/4 194/2/4
s 106
f 182/3/2 195/1/2 196/4/2
s 107
f 193/1/92 194/4/92 196/2/92
s 108
f 198/1/93 199/4/93 200/2/93
s 106
f 201/3/2 202/1/2 203/4/2
s 109
f 202/3/94 189/1/94 192/4/94
s 110
f 190/3/95 201/1/95 204/4/95
s 105
f 206/1/4 207/4/4 208/2/4
s 111
f 209/3/96 210/1/96 211/4/96
s 105
f 198/3/4 209/1/4 212/4/4
s 106
f 197/1/2 200/4/2 211/2/2
f 213/3/2 214/1/2 215/4/2
f 217/3/2 218/1/2 214/4/2
s 112
f 205/1/97 208/4/97 214/2/97
s 113
f 206/3/98 217/1/98 213/4/98
s 114
f 219/1/99 220/4/99 221/2/99
s 115
f 208/1/100 219/4/100 215/2/100
s 116
f 213/1/101 216/4/101 222/2/101
s 105
f 207/1/4 222/4/4 219/2/4
s 117
f 221/1/102 220/4/102 224/2/102
s 118
f 216/1/103 223/4/103 224/2/103
s 105
f 222/1/4 224/4/4 220/2/4
s 106
f 216/3/2 215/1/2 221/4/2
s 119
f 211/1/104 217/4/104 206/2/104
s 120
f 199/1/105 205/4/105 218/2/105
s 106
f 200/1/2 218/4/2 217/2/2
s 105
f 199/3/4 212/1/4 206/4/4
s 106
f 203/1/2 197/4/2 210/2/2
s 105
f 192/3/4 191/1/4 209/4/4
s 121
f 191/3/106 204/1/106 210/4/106
s 122
f 192/1/107 198/4/107 197/2/107
s 123
f 184/3/108 183/1/108 201/4/108
s 124
f 196/3/109 194/1/109 189/4/109
s 106
f 196/1/2 202/4/2 201/2/2
s 105
f 194/3/4 184/1/4 190/4/4
s 125
f 175/1/111 193/4/111 195/2/111
s 106
f 187/3/2 176/1/2 195/4/2
s 105
f 188/1/4 181/4/4 193/2/4
s 126
f 187/1/112 182/4/112 181/2/112
s 127
f 225/3/113 226/1/310 227/4/114
s 128
f 230/1/116 231/4/311 232/2/117
s 129
f 225/1/119 228/4/119 231/2/119
s 130
f 229/1/120 232/4/120 227/2/120
s 131
f 228/3/121 227/1/312 173/4/122
s 132
f 231/1/124 185/4/313 174/2/125
s 133
f 228/1/127 186/4/127 185/2/127
s 134
f 232/1/128 174/4/128 173/2/128
s 135
f 171/1/129 229/4/129 226/2/129
s 136
f 180/1/130 225/4/130 230/2/130
s 128
f 171/3/131 178/1/314 230/4/116
s 127
f 172/1/132 226/4/310 225/2/113
s 137
f 234/1/134 179/4/134 177/2/134
s 138
f 235/1/135 169/4/315 179/2/136
s 139
f 236/3/138 233/1/316 177/4/139
s 140
f 236/1/141 170/4/141 169/2/141
s 141
f 238/1/142 236/4/142 235/2/142
s 142
f 238/3/143 239/1/317 233/4/144
s 143
f 237/1/146 235/4/318 234/2/147
s 144
f 240/1/149 234/4/149 233/2/149
s 94
f 168/1/4 161/4/4 239/2/4
s 145
f 166/1/150 168/4/150 238/2/150
s 92
f 240/3/2 164/1/2 166/4/2
s 146
f 161/1/151 164/4/151 240/2/151
s 147
f 242/1/152 243/4/152 244/2/152
s 148
f 243/1/2 245/4/2 246/2/2
s 149
f 245/1/153 247/4/153 248/2/153
s 150
f 248/3/4 247/1/4 242/4/4
s 148
f 249/3/2 250/1/2 251/4/2
s 151
f 254/1/154 255/4/154 256/2/154
s 152
f 258/1/155 259/4/155 260/2/155
s 153
f 249/1/156 252/4/156 262/2/156
s 154
f 263/1/157 264/4/157 251/2/157
s 150
f 261/1/4 262/4/4 264/2/4
f 265/3/4 266/1/4 267/4/4
s 155
f 270/1/158 271/4/158 272/2/158
s 150
f 257/1/4 260/4/4 271/2/4
s 148
f 258/3/2 269/1/2 272/4/2
s 156
f 274/1/159 275/4/159 276/2/159
s 148
f 278/1/2 279/4/2 280/2/2
s 157
f 277/1/160 280/4/160 267/2/160
s 158
f 265/1/161 268/4/162 279/2/162
s 159
f 282/1/163 283/4/163 284/2/163
s 160
f 286/1/164 287/4/164 288/2/164
s 150
f 286/3/4 273/1/4 276/4/4
s 148
f 285/1/2 288/4/2 275/2/2
s 150
f 290/1/4 291/4/4 292/2/4
s 161
f 294/1/165 295/4/165 296/2/165
s 150
f 294/3/4 281/1/4 284/4/4
s 148
f 293/1/2 296/4/2 283/2/2
s 162
f 298/1/166 299/4/166 300/2/166
s 148
f 301/3/2 302/1/2 303/4/2
s 163
f 301/1/167 304/4/167 291/2/167
s 164
f 289/1/168 292/4/168 303/2/168
s 165
f 306/1/169 307/4/169 308/2/169
s 166
f 310/1/170 306/4/170 305/2/170
s 150
f 310/3/4 297/1/4 300/4/4
s 148
f 309/1/2 305/4/2 299/2/2
s 150
f 307/3/4 311/1/4 312/4/4
f 306/3/4 300/1/4 311/4/4
s 148
f 305/1/2 308/4/2 314/2/2
s 167
f 299/1/171 314/4/171 311/2/171
s 168
f 312/3/172 315/1/172 316/4/172
s 148
f 308/1/2 318/4/2 315/2/2
s 169
f 314/1/173 315/4/173 312/2/173
s 170
f 308/3/174 307/1/174 313/4/174
s 150
f 317/1/4 320/4/4 321/2/4
s 171
f 313/1/175 319/4/175 322/2/175
s 150
f 313/3/4 312/1/4 317/4/4
s 148
f 318/1/2 322/4/2 316/2/2
f 323/3/2 324/1/2 325/4/2
f 316/3/2 322/1/2 324/4/2
s 172
f 317/3/176 316/1/176 323/4/176
s 173
f 322/3/177 319/1/177 321/4/177
s 174
f 328/1/178 329/4/178 330/2/178
s 175
f 323/1/179 326/4/179 331/2/179
s 176
f 324/3/180 321/1/180 332/4/180
s 150
f 320/1/4 331/4/4 332/2/4
s 177
f 329/3/181 333/1/181 334/4/181
s 178
f 336/1/182 334/4/182 333/2/182
s 150
f 327/1/4 330/4/4 334/2/4
s 148
f 328/3/2 335/1/2 333/4/2
f 326/3/2 325/1/2 335/4/2
s 150
f 331/1/4 327/4/4 336/2/4
s 179
f 325/3/183 332/1/183 336/4/183
s 180
f 326/1/184 328/4/184 327/2/184
s 181
f 271/1/185 265/4/185 278/2/185
s 182
f 259/1/186 277/4/186 266/2/186
s 148
f 272/1/2 278/4/2 277/2/2
s 150
f 271/3/4 260/1/4 266/4/4
s 148
f 279/1/2 285/4/2 274/2/2
s 150
f 268/3/4 267/1/4 273/4/4
s 158
f 268/1/162 286/4/187 285/2/187
s 183
f 280/1/188 274/4/188 273/2/188
s 148
f 288/1/2 293/4/2 282/2/2
s 150
f 287/3/4 276/1/4 281/4/4
s 184
f 287/1/189 294/4/189 293/2/189
s 185
f 275/1/190 282/4/190 281/2/190
s 186
f 295/1/191 289/4/191 302/2/191
s 187
f 283/1/192 301/4/192 290/2/192
s 148
f 296/1/2 302/4/2 301/2/2
s 150
f 295/3/4 284/1/4 290/4/4
s 148
f 303/1/2 309/4/2 298/2/2
s 150
f 292/3/4 291/1/4 297/4/4
s 188
f 292/1/193 310/4/193 309/2/193
s 189
f 304/1/194 298/4/194 297/2/194
s 148
f 252/3/2 251/1/2 269/4/2
s 150
f 262/1/4 257/4/4 270/2/4
s 190
f 264/1/195 270/4/195 269/2/195
s 191
f 252/1/196 258/4/196 257/2/196
s 150
f 247/1/4 261/4/4 263/2/4
s 192
f 242/1/197 263/4/197 250/2/197
s 193
f 245/1/198 249/4/198 261/2/198
s 148
f 245/3/2 243/1/2 250/4/2
s 150
f 255/3/4 248/1/4 241/4/4
s 194
f 246/1/199 248/4/199 255/2/199
s 148
f 244/1/2 246/4/2 254/2/2
s 195
f 241/1/200 244/4/200 253/2/200
s 196
f 338/1/201 339/4/201 340/2/201
s 197
f 339/1/2 341/4/2 342/2/2
s 198
f 341/1/202 343/4/202 344/2/202
s 199
f 344/3/4 343/1/4 338/4/4
s 200
f 339/1/203 338/4/203 343/2/203
s 201
f 346/1/204 347/4/204 348/2/204
s 202
f 350/1/205 351/4/205 352/2/205
s 203
f 354/1/206 355/4/206 356/2/206
s 199
f 345/1/4 348/4/4 355/2/4
s 197
f 346/3/2 353/1/2 356/4/2
s 204
f 358/1/207 359/4/207 360/2/207
s 199
f 362/1/4 363/4/4 364/2/4
s 197
f 366/1/2 367/4/2 368/2/2
s 205
f 370/1/208 371/4/208 372/2/208
s 199
f 373/3/4 374/1/4 375/4/4
f 376/3/4 375/1/4 377/4/4
f 379/3/4 380/1/4 374/4/4
s 197
f 382/1/2 366/4/2 365/2/2
s 199
f 383/3/4 384/1/4 385/4/4
s 197
f 388/1/2 382/4/2 381/2/2
s 199
f 350/3/4 389/1/4 390/4/4
s 206
f 391/1/209 392/4/209 390/2/209
s 199
f 393/3/4 344/1/4 337/4/4
s 207
f 342/1/210 344/4/210 393/2/210
s 197
f 340/1/2 342/4/2 395/2/2
s 208
f 337/1/211 340/4/211 396/2/211
s 197
f 396/3/2 395/1/2 353/4/2
s 199
f 394/1/4 345/4/4 354/2/4
s 209
f 393/1/212 354/4/212 353/2/212
s 210
f 396/1/213 346/4/213 345/2/213
s 197
f 398/1/2 399/4/2 400/2/2
f 358/3/2 369/1/2 372/4/2
s 199
f 357/1/4 360/4/4 371/2/4
s 211
f 365/1/214 368/4/214 377/2/214
s 212
f 376/1/215 378/4/215 367/2/215
s 213
f 381/1/216 365/4/216 375/2/216
s 214
f 373/1/217 376/4/217 366/2/217
s 215
f 379/1/218 373/4/218 382/2/218
s 216
f 387/1/219 381/4/219 374/2/219
s 217
f 397/1/220 400/4/220 385/2/220
s 218
f 383/1/221 386/4/221 399/2/221
s 197
f 349/1/2 352/4/2 392/2/2
s 219
f 402/1/222 403/4/222 404/2/222
s 220
f 361/1/223 364/4/223 406/2/223
s 197
f 407/3/2 405/1/2 406/4/2
s 221
f 407/1/224 408/4/224 363/2/224
s 222
f 404/1/225 403/4/225 410/2/225
s 199
f 411/1/4 410/4/4 403/2/4
s 223
f 412/1/226 409/4/226 410/2/226
s 197
f 412/3/2 401/1/2 404/4/2
f 408/3/2 406/1/2 401/4/2
s 224
f 408/1/227 412/4/227 411/2/227
s 199
f 363/1/4 411/4/4 402/2/4
s 225
f 364/1/228 402/4/228 401/2/228
s 226
f 359/1/229 407/4/229 362/2/229
s 197
f 359/3/2 372/1/2 405/4/2
s 227
f 371/1/230 361/4/230 405/2/230
s 199
f 360/1/4 362/4/4 361/2/4
f 378/3/4 377/1/4 357/4/4
s 197
f 367/1/2 369/4/2 358/2/2
s 228
f 378/1/231 370/4/231 369/2/231
s 229
f 368/1/232 358/4/232 357/2/232
s 230
f 400/1/233 387/4/233 380/2/233
s 231
f 386/1/234 379/4/234 388/2/234
s 197
f 399/1/2 388/4/2 387/2/2
s 199
f 386/3/4 385/1/4 380/4/4
s 232
f 351/1/235 383/4/235 398/2/235
s 233
f 392/1/236 397/4/236 384/2/236
s 197
f 352/1/2 398/4/2 397/2/2
s 199
f 351/3/4 390/1/4 384/4/4
s 197
f 347/3/2 356/1/2 349/4/2
s 234
f 347/1/237 391/4/237 389/2/237
s 199
f 348/1/4 389/4/4 350/2/4
s 235
f 355/1/238 350/4/238 349/2/238
s 236
f 414/1/6 415/4/6 416/2/6
s 237
f 415/1/2 417/4/2 418/2/2
s 238
f 417/1/5 419/4/5 420/2/5
s 239
f 420/3/4 419/1/4 414/4/4
s 240
f 422/1/3 423/4/3 424/2/3
s 241
f 415/1/1 414/4/1 419/2/1
s 242
f 424/1/4 426/4/4 427/2/4
s 243
f 425/1/5 427/4/5 429/2/5
s 244
f 427/1/239 430/4/239 431/2/239
s 240
f 432/1/3 428/4/3 423/2/3
s 245
f 433/3/240 434/1/240 421/4/240
s 240
f 421/1/3 424/4/3 425/2/3
s 246
f 428/1/2 429/4/2 436/2/2
s 247
f 423/1/6 436/4/6 426/2/6
s 248
f 438/1/5 433/4/5 439/2/5
s 249
f 433/1/241 435/4/241 432/2/241
s 250
f 440/1/242 422/4/242 421/2/242
s 240
f 435/1/3 425/4/3 428/2/3
s 251
f 442/1/243 443/4/243 438/2/243
s 252
f 439/1/244 432/4/244 422/2/244
s 253
f 444/3/2 437/1/2 439/4/2
s 254
f 444/1/6 440/4/6 434/2/6
s 255
f 418/1/1 445/4/1 446/2/1
s 256
f 441/1/245 438/4/245 437/2/245
s 257
f 446/1/246 444/4/246 443/2/246
s 258
f 443/1/4 434/4/4 433/2/4
s 255
f 416/1/1 446/4/1 442/2/1
f 420/3/1 413/1/1 442/4/1
s 259
f 445/1/247 437/4/247 444/2/247
s 255
f 420/1/1 441/4/1 445/2/1
s 260
f 436/1/248 447/4/248 448/2/248
s 261
f 426/1/249 448/4/249 430/2/250
s 262
f 436/3/251 429/1/252 431/4/252
s 263
f 431/3/1 430/1/1 449/4/1
f 448/3/1 447/1/1 451/4/1
f 448/1/1 452/4/1 449/2/1
f 431/1/1 450/4/1 451/2/1
s 264
f 452/3/253 451/1/253 453/4/253
s 265
f 452/1/254 454/4/254 455/2/254
s 266
f 450/1/255 456/4/255 453/2/255
s 267
f 450/3/256 449/1/256 455/4/256
s 268
f 454/1/4 457/4/4 458/2/4
s 269
f 456/1/2 459/4/2 460/2/2
s 270
f 455/1/5 458/4/5 459/2/5
s 271
f 453/1/6 460/4/6 457/2/6
s 272
f 458/1/257 461/4/257 462/2/257
s 273
f 460/1/258 463/4/258 464/2/258
s 274
f 457/1/259 464/4/319 461/2/259
s 275
f 459/1/260 462/4/320 463/2/260
s 276
f 464/1/261 465/4/261 466/2/262
f 463/3/263 462/1/264 467/4/264
f 461/1/262 466/4/262 467/2/264
f 463/1/263 468/4/263 465/2/261
s 277
f 467/1/2 469/4/2 470/2/2
s 278
f 466/1/5 471/4/5 469/2/5
s 279
f 468/1/6 470/4/6 472/2/6
s 280
f 466/3/4 465/1/4 472/4/4
s 281
f 471/1/1 473/4/1 474/2/1
f 470/1/1 475/4/1 476/2/1
f 472/1/1 476/4/1 473/2/1
f 469/1/1 474/4/1 475/2/1
s 282
f 476/1/265 477/4/265 478/2/265
s 283
f 475/3/266 474/1/321 479/4/266
s 284
f 473/1/267 478/4/267 479/2/267
s 285
f 475/1/268 480/4/268 477/2/268
s 286
f 478/1/5 481/4/5 482/2/5
s 287
f 480/1/6 483/4/6 484/2/6
s 288
f 477/1/4 484/4/4 481/2/4
s 289
f 479/1/2 482/4/2 483/2/2
s 290
f 481/1/269 485/4/269 486/2/269
s 291
f 483/1/270 487/4/270 488/2/270
s 292
f 484/1/271 488/4/271 485/2/271
s 293
f 482/1/272 486/4/272 487/2/272
s 294
f 486/1/3 485/4/3 488/2/3
s 295
f 490/1/6 491/4/6 492/2/6
s 296
f 491/1/2 493/4/2 494/2/2
s 297
f 493/1/5 495/4/5 496/2/5
s 298
f 496/3/4 495/1/4 490/4/4
s 299
f 489/1/273 497/4/273 498/2/273
s 300
f 491/1/1 490/4/1 495/2/1
s 301
f 499/1/6 500/4/6 501/2/6
s 302
f 494/1/274 502/4/274 499/2/274
s 303
f 492/1/275 499/4/275 497/2/275
s 304
f 496/1/276 498/4/276 502/2/276
s 305
f 503/3/277 501/1/278 504/4/278
s 306
f 497/1/4 501/4/4 503/2/4
s 307
f 499/3/2 502/1/2 506/4/2
s 308
f 498/1/5 503/4/5 506/2/5
s 309
f 505/1/280 508/4/280 509/2/280
s 310
f 506/1/281 507/4/322 510/2/282
s 311
f 503/1/283 505/4/283 507/2/283
s 312
f 500/1/284 510/4/284 504/2/284
s 313
f 511/1/4 512/4/4 513/2/4
s 314
f 510/1/285 514/4/285 511/2/285
s 315
f 505/3/286 504/1/323 511/4/286
s 316
f 507/1/287 509/4/287 514/2/287
s 317
f 516/1/289 517/4/324 518/2/290
s 318
f 509/1/2 516/4/2 515/2/2
s 319
f 508/1/5 513/4/5 516/2/5
s 320
f 514/1/6 515/4/6 512/2/6
s 321
f 517/1/291 519/4/291 520/2/291
s 322
f 513/1/292 519/4/292 517/2/292
s 323
f 512/3/293 515/1/293 518/4/293
s 324
f 513/3/294 512/1/294 520/4/295
s 325
f 522/1/6 523/4/6 524/2/6
s 326
f 523/1/2 525/4/2 526/2/2
s 327
f 525/1/5 527/4/5 528/2/5
s 328
f 527/1/4 522/4/4 521/2/4
s 329
f 521/1/273 529/4/273 530/2/273
s 330
f 523/1/1 522/4/1 527/2/1
s 331
f 531/1/6 532/4/6 533/2/6
s 332
f 524/3/274 526/1/274 534/4/274
s 333
f 524/1/275 531/4/275 529/2/275
s 334
f 528/1/276 530/4/276 534/2/276
s 335
f 533/1/278 536/4/278 537/2/278
s 336
f 530/3/4 529/1/4 533/4/4
s 337
f 534/1/2 538/4/2 532/2/2
s 338
f 530/1/5 535/4/5 538/2/5
s 339
f 539/3/280 537/1/280 540/4/280
s 340
f 532/3/282 538/1/282 539/4/282
s 341
f 535/1/283 537/4/283 539/2/283
s 342
f 532/1/284 542/4/284 536/2/284
s 343
f 540/3/4 543/1/4 544/4/4
s 344
f 542/1/285 546/4/285 543/2/285
s 345
f 536/1/286 543/4/286 540/2/286
s 346
f 539/1/287 541/4/287 546/2/287
s 347
f 547/3/289 548/1/289 549/4/298
s 348
f 541/1/2 548/4/2 547/2/2
s 349
f 540/1/5 545/4/5 548/2/5
s 350
f 546/1/6 547/4/6 544/2/6
s 351
f 549/1/300 551/4/300 552/2/300
s 352
f 545/1/292 551/4/301 549/2/301
s 353
f 547/1/293 550/4/325 552/2/293
s 354
f 544/1/294 552/4/326 551/2/302
s 355
f 554/1/6 555/4/6 556/2/6
s 356
f 555/1/2 557/4/2 558/2/2
s 357
f 557/1/5 559/4/5 560/2/5
s 358
f 559/1/4 554/4/4 553/2/4
s 359
f 553/1/273 561/4/273 562/2/273
s 360
f 555/1/1 554/4/1 559/2/1
s 361
f 558/1/274 566/4/274 563/2/274
s 362
f 556/1/275 563/4/275 561/2/275
s 363
f 560/1/276 562/4/276 566/2/276
s 364
f 567/3/278 565/1/278 568/4/278
s 366
f 566/1/2 570/4/2 564/2/2
s 367
f 562/1/5 567/4/5 570/2/5
s 368
f 571/3/280 569/1/280 572/4/280
s 369
f 570/1/282 571/4/281 574/2/282
s 370
f 567/1/283 569/4/283 571/2/283
s 371
f 564/1/284 574/4/284 568/2/284
s 373
f 574/1/285 578/4/285 575/2/285
s 374
f 569/3/286 568/1/286 575/4/286
s 375
f 571/1/287 573/4/287 578/2/287
s 376
f 579/3/289 580/1/289 581/4/289
s 377
f 578/3/2 573/1/2 580/4/2
s 378
f 572/1/5 577/4/5 580/2/5
s 379
f 581/1/3 583/4/3 584/2/3
s 380
f 577/1/292 583/4/292 581/2/292
s 381
f 579/1/293 582/4/293 584/2/293
s 382
f 576/1/294 584/4/327 583/2/294
s 383
f 586/1/6 587/4/6 588/2/6
s 384
f 587/1/2 589/4/2 590/2/2
s 385
f 589/1/5 591/4/5 592/2/5
s 386
f 591/1/4 586/4/4 585/2/4
s 387
f 585/1/273 593/4/273 594/2/273
s 388
f 587/1/1 586/4/1 591/2/1
s 389
f 595/1/6 596/4/6 597/2/6
s 390
f 590/1/274 598/4/274 595/2/274
s 391
f 588/1/275 595/4/275 593/2/275
s 392
f 592/1/276 594/4/276 598/2/276
s 393
f 597/1/278 600/4/278 601/2/278
s 394
f 594/3/4 593/1/4 597/4/4
s 395
f 598/1/2 602/4/2 596/2/2
s 396
f 594/1/5 599/4/5 602/2/5
s 397
f 601/1/280 604/4/280 605/2/280
s 398
f 596/3/282 602/1/282 603/4/282
s 399
f 599/1/283 601/4/283 603/2/283
s 400
f 596/1/284 606/4/284 600/2/284
s 401
f 607/1/4 608/4/4 609/2/4
s 402
f 606/1/285 610/4/285 607/2/285
s 403
f 601/3/286 600/1/286 607/4/286
s 404
f 603/1/287 605/4/287 610/2/287
s 405
f 611/3/289 612/1/289 613/4/289
s 406
f 605/1/2 612/4/2 611/2/2
s 407
f 604/1/5 609/4/5 612/2/5
s 408
f 610/1/6 611/4/6 608/2/6
s 409
f 613/1/3 615/4/3 616/2/3
s 410
f 609/1/292 615/4/301 613/2/301
s 411
f 611/1/293 614/4/293 616/2/293
s 412
f 608/1/294 616/4/294 615/2/294
s 413
f 618/1/6 619/4/6 620/2/6
s 414
f 619/1/2 621/4/2 622/2/2
s 415
f 621/1/5 623/4/5 624/2/5
s 416
f 623/1/4 618/4/4 617/2/4
s 417
f 617/1/273 625/4/273 626/2/273
s 418
f 619/1/1 618/4/1 623/2/1
s 419
f 627/1/6 628/4/6 629/2/6
s 420
f 620/3/274 622/1/274 630/4/274
s 421
f 620/1/275 627/4/275 625/2/275
s 422
f 624/1/276 626/4/276 630/2/276
s 423
f 631/3/278 629/1/278 632/4/278
s 424
f 625/1/4 629/4/4 631/2/4
s 425
f 627/3/2 630/1/2 634/4/2
s 426
f 626/1/5 631/4/5 634/2/5
s 427
f 633/1/280 636/4/280 637/2/280
s 428
f 634/1/282 635/4/282 638/2/282
s 429
f 631/1/283 633/4/283 635/2/283
s 430
f 628/1/284 638/4/284 632/2/284
s 431
f 639/1/4 640/4/4 641/2/4
s 432
f 638/1/285 642/4/285 639/2/285
s 433
f 632/1/286 639/4/286 636/2/286
s 434
f 638/3/287 635/1/287 637/4/287
s 435
f 644/1/289 645/4/289 646/2/289
s 436
f 637/1/2 644/4/2 643/2/2
s 437
f 636/1/5 641/4/5 644/2/5
s 438
f 642/1/6 643/4/6 640/2/6
s 439
f 645/1/3 647/4/3 648/2/3
s 440
f 641/1/292 647/4/292 645/2/292
s 441
f 643/1/293 646/4/293 648/2/293
s 442
f 640/1/294 648/4/294 647/2/294
s 443
f 650/1/6 651/4/6 652/2/6
s 444
f 652/3/2 651/1/2 653/4/2
s 445
f 653/1/5 655/4/5 656/2/5
s 446
f 655/1/4 650/4/4 649/2/4
s 447
f 656/3/273 649/1/273 657/4/273
s 448
f 651/1/1 650/4/1 655/2/1
s 449
f 659/1/6 660/4/6 661/2/6
s 450
f 654/1/274 662/4/274 659/2/274
s 451
f 652/1/275 659/4/275 657/2/275
s 452
f 656/1/276 658/4/276 662/2/276
s 453
f 661/1/278 664/4/278 665/2/278
s 454
f 657/1/4 661/4/4 663/2/4
s 455
f 659/3/2 662/1/2 666/4/2
s 456
f 658/1/5 663/4/5 666/2/5
s 457
f 665/1/280 668/4/280 669/2/280
s 458
f 666/1/282 667/4/282 670/2/282
s 459
f 663/1/283 665/4/283 667/2/283
s 460
f 660/1/284 670/4/284 664/2/284
s 461
f 671/1/4 672/4/4 673/2/4
s 462
f 664/3/285 670/1/285 674/4/285
s 463
f 665/3/286 664/1/286 671/4/286
s 464
f 667/1/287 669/4/287 674/2/287
s 465
f 676/1/289 677/4/289 678/2/289
s 466
f 674/3/2 669/1/2 676/4/2
s 467
f 668/1/5 673/4/5 676/2/5
s 468
f 674/1/6 675/4/6 672/2/6
s 469
f 677/1/3 679/4/3 680/2/3
s 470
f 673/1/292 679/4/292 677/2/292
s 471
f 675/1/293 678/4/293 680/2/293
s 472
f 672/1/294 680/4/294 679/2/294
s 473
f 682/1/6 683/4/6 684/2/6
s 474
f 683/1/2 685/4/2 686/2/2
s 475
f 685/1/5 687/4/5 688/2/5
s 476
f 687/1/4 682/4/4 681/2/4
s 477
f 688/3/273 681/1/273 689/4/273
s 478
f 683/1/1 682/4/1 687/2/1
s 479
f 691/1/6 692/4/6 693/2/6
s 480
f 686/1/274 694/4/274 691/2/274
s 481
f 684/1/275 691/4/275 689/2/275
s 482
f 688/1/276 690/4/276 694/2/276
s 483
f 695/3/278 693/1/278 696/4/278
s 484
f 689/1/4 693/4/4 695/2/4
s 485
f 691/3/2 694/1/2 698/4/2
s 486
f 690/1/5 695/4/5 698/2/5
s 487
f 697/1/280 700/4/280 701/2/280
s 488
f 698/1/282 699/4/282 702/2/282
s 489
f 695/1/283 697/4/283 699/2/283
s 490
f 692/1/284 702/4/284 696/2/284
s 491
f 700/3/4 703/1/4 704/4/4
s 492
f 696/3/285 702/1/285 706/4/285
s 493
f 696/1/286 703/4/286 700/2/286
s 494
f 699/1/287 701/4/287 706/2/287
s 495
f 708/1/289 709/4/289 710/2/289
s 496
f 706/3/2 701/1/2 708/4/2
s 497
f 700/1/5 705/4/5 708/2/5
s 498
f 706/1/6 707/4/6 704/2/6
s 499
f 709/1/3 711/4/3 712/2/3
s 500
f 705/1/292 711/4/292 709/2/292
s 501
f 707/1/293 710/4/293 712/2/293
s 502
f 704/1/294 712/4/294 711/2/294
